<?xml version="1.0" standalone="no"?>
<!DOCTYPE svg PUBLIC "-//W3C//DTD SVG 1.1//EN" "http://www.w3.org/Graphics/SVG/1.1/DTD/svg11.dtd" >
<svg>
<metadata>
Created by FontForge 20090622 at Thu May 24 11:28:36 2018
 By deploy user
&#194;&#169; 2015-2017 Apple Inc. All rights reserved.
</metadata>
<defs>
<font id="SFProDisplay-Medium" horiz-adv-x="1688" >
  <font-face 
    font-family="SF Pro Display"
    font-weight="500"
    font-stretch="normal"
    units-per-em="2048"
    panose-1="0 0 6 0 0 0 0 0 0 0"
    ascent="1638"
    descent="-410"
    x-height="1052"
    cap-height="1443"
    bbox="-541 -494 2588 2189"
    underline-thickness="145"
    underline-position="-227"
    unicode-range="U+0020-U+1F189"
  />
<missing-glyph horiz-adv-x="2048" 
d="M100 -494v256h1848v-256h-1848zM100 -56v256h1848v-256h-1848zM100 381v256h1848v-256h-1848zM100 819v256h1848v-256h-1848zM100 1256v256h1848v-256h-1848zM100 1694v256h1848v-256h-1848z" />
    <glyph glyph-name="uni2460" unicode="&#x31;&#x20dd;" 
d="M956 386h-156v552h-6l-164 -112v136l170 117h156v-693zM844 93q128 0 243.5 49.5t197.5 134t130 200t48 243.5t-48 243.5t-130 200t-197.5 134t-243.5 49.5t-243.5 -49.5t-197.5 -134t-130 -200t-48 -243.5t48 -243.5t130 -200t197.5 -134t243.5 -49.5zM844 -52
q-157 0 -300 61t-246.5 164.5t-164.5 247t-61 300.5t61 300t164.5 246.5t246.5 164.5t300 61t300 -61t246.5 -164.5t164.5 -246.5t61 -300q0 -126 -39 -244t-110.5 -213t-166.5 -166.5t-212.5 -110.5t-243.5 -39z" />
    <glyph glyph-name="uni2461" unicode="&#x32;&#x20dd;" 
d="M738 867h-146v5q0 92 67 155.5t186 63.5q111 0 180 -55.5t69 -141.5q0 -60 -31 -106.5t-97 -111.5l-155 -162v-6h296v-122h-508v93l262 265q26 27 40.5 44t27 42.5t12.5 50.5q0 39 -28.5 64.5t-71.5 25.5q-48 0 -75.5 -28.5t-27.5 -70.5v-5zM844 93q128 0 243.5 49.5
t197.5 134t130 200t48 243.5t-48 243.5t-130 200t-197.5 134t-243.5 49.5t-243.5 -49.5t-197.5 -134t-130 -200t-48 -243.5t48 -243.5t130 -200t197.5 -134t243.5 -49.5zM844 -52q-157 0 -300 61t-246.5 164.5t-164.5 247t-61 300.5t61 300t164.5 246.5t246.5 164.5t300 61
t300 -61t246.5 -164.5t164.5 -246.5t61 -300q0 -126 -39 -244t-110.5 -213t-166.5 -166.5t-212.5 -110.5t-243.5 -39z" />
    <glyph glyph-name="uni2462" unicode="&#x33;&#x20dd;" 
d="M766 684v115h74q46 0 76 25.5t30 65.5q-1 39 -30.5 63t-75.5 24q-47 0 -77 -24.5t-32 -59.5h-144q3 88 70.5 142.5t185.5 55.5q114 0 183 -50.5t71 -130.5q1 -63 -42 -106t-92 -51v-7q59 -6 106.5 -49t48.5 -117q1 -94 -77.5 -150t-200.5 -56q-120 0 -191.5 56.5
t-73.5 142.5h142q3 -37 37 -60.5t86 -24.5q56 0 90.5 28t34.5 71q-1 43 -34 70t-88 27h-77zM844 93q128 0 243.5 49.5t197.5 134t130 200t48 243.5t-48 243.5t-130 200t-197.5 134t-243.5 49.5t-243.5 -49.5t-197.5 -134t-130 -200t-48 -243.5t48 -243.5t130 -200
t197.5 -134t243.5 -49.5zM844 -52q-157 0 -300 61t-246.5 164.5t-164.5 247t-61 300.5t61 300t164.5 246.5t246.5 164.5t300 61t300 -61t246.5 -164.5t164.5 -246.5t61 -300q0 -126 -39 -244t-110.5 -213t-166.5 -166.5t-212.5 -110.5t-243.5 -39z" />
    <glyph glyph-name="uni2463" unicode="&#x34;&#x20dd;" 
d="M800 1079h219v-448h92v-119h-92v-126h-139v126h-350v120q51 94 270 447zM669 631h211v341h-6q-119 -180 -205 -338v-3zM844 93q128 0 243.5 49.5t197.5 134t130 200t48 243.5t-48 243.5t-130 200t-197.5 134t-243.5 49.5t-243.5 -49.5t-197.5 -134t-130 -200t-48 -243.5
t48 -243.5t130 -200t197.5 -134t243.5 -49.5zM844 -52q-157 0 -300 61t-246.5 164.5t-164.5 247t-61 300.5t61 300t164.5 246.5t246.5 164.5t300 61t300 -61t246.5 -164.5t164.5 -246.5t61 -300q0 -126 -39 -244t-110.5 -213t-166.5 -166.5t-212.5 -110.5t-243.5 -39z" />
    <glyph glyph-name="uni2464" unicode="&#x35;&#x20dd;" 
d="M588 572h144q8 -39 42 -59.5t79 -20.5q50 0 86.5 34.5t36.5 91.5q0 53 -36 85.5t-88 32.5q-41 0 -70.5 -18.5t-41.5 -42.5h-137l30 406h451v-117h-329l-16 -179h8q15 23 54.5 42t93.5 19q99 0 165 -60.5t66 -163.5q0 -111 -76 -179t-201 -68q-113 0 -185 55.5t-76 141.5z
M844 93q128 0 243.5 49.5t197.5 134t130 200t48 243.5t-48 243.5t-130 200t-197.5 134t-243.5 49.5t-243.5 -49.5t-197.5 -134t-130 -200t-48 -243.5t48 -243.5t130 -200t197.5 -134t243.5 -49.5zM844 -52q-157 0 -300 61t-246.5 164.5t-164.5 247t-61 300.5t61 300
t164.5 246.5t246.5 164.5t300 61t300 -61t246.5 -164.5t164.5 -246.5t61 -300q0 -126 -39 -244t-110.5 -213t-166.5 -166.5t-212.5 -110.5t-243.5 -39z" />
    <glyph glyph-name="uni2465" unicode="&#x36;&#x20dd;" 
d="M1102 915h-145q-9 25 -35 43t-68 18q-68 0 -107 -63.5t-36 -171.5h7q18 41 62.5 68.5t110.5 27.5q94 0 160 -59t66 -161q0 -113 -75 -178.5t-195 -65.5q-158 0 -232 116q-54 83 -54 229q0 184 78 278t215 94q108 0 175.5 -53t72.5 -122zM725 612q0 -56 34.5 -89.5
t87.5 -33.5q54 0 88 32t34 90q0 56 -35.5 87.5t-86.5 31.5q-54 0 -88 -33t-34 -85zM844 93q128 0 243.5 49.5t197.5 134t130 200t48 243.5t-48 243.5t-130 200t-197.5 134t-243.5 49.5t-243.5 -49.5t-197.5 -134t-130 -200t-48 -243.5t48 -243.5t130 -200t197.5 -134
t243.5 -49.5zM844 -52q-157 0 -300 61t-246.5 164.5t-164.5 247t-61 300.5t61 300t164.5 246.5t246.5 164.5t300 61t300 -61t246.5 -164.5t164.5 -246.5t61 -300q0 -126 -39 -244t-110.5 -213t-166.5 -166.5t-212.5 -110.5t-243.5 -39z" />
    <glyph glyph-name="uni2466" unicode="&#x37;&#x20dd;" 
d="M604 1071h509v-124l-288 -569h-164l295 564v7h-352v122zM844 93q128 0 243.5 49.5t197.5 134t130 200t48 243.5t-48 243.5t-130 200t-197.5 134t-243.5 49.5t-243.5 -49.5t-197.5 -134t-130 -200t-48 -243.5t48 -243.5t130 -200t197.5 -134t243.5 -49.5zM844 -52
q-157 0 -300 61t-246.5 164.5t-164.5 247t-61 300.5t61 300t164.5 246.5t246.5 164.5t300 61t300 -61t246.5 -164.5t164.5 -246.5t61 -300q0 -126 -39 -244t-110.5 -213t-166.5 -166.5t-212.5 -110.5t-243.5 -39z" />
    <glyph glyph-name="uni2467" unicode="&#x38;&#x20dd;" 
d="M844 480q56 0 92.5 30.5t36.5 77.5q0 48 -36 78.5t-93 30.5t-93.5 -31t-36.5 -78t36.5 -77.5t93.5 -30.5zM844 796q47 0 77.5 27t30.5 68t-30.5 67t-77.5 26t-77.5 -26t-30.5 -67t30.5 -68t77.5 -27zM842 373q-128 0 -206 56t-78 149q0 65 42 111.5t111 58.5v7
q-59 18 -91.5 57.5t-32.5 94.5q0 82 71.5 133t185.5 51t185.5 -51t71.5 -133q0 -55 -33 -95.5t-91 -56.5v-7q69 -12 111 -58.5t42 -111.5q0 -92 -79.5 -148.5t-208.5 -56.5zM844 93q128 0 243.5 49.5t197.5 134t130 200t48 243.5t-48 243.5t-130 200t-197.5 134t-243.5 49.5
t-243.5 -49.5t-197.5 -134t-130 -200t-48 -243.5t48 -243.5t130 -200t197.5 -134t243.5 -49.5zM844 -52q-157 0 -300 61t-246.5 164.5t-164.5 247t-61 300.5t61 300t164.5 246.5t246.5 164.5t300 61t300 -61t246.5 -164.5t164.5 -246.5t61 -300q0 -126 -39 -244t-110.5 -213
t-166.5 -166.5t-212.5 -110.5t-243.5 -39z" />
    <glyph glyph-name="uni2468" unicode="&#x39;&#x20dd;" 
d="M571 852q0 109 76.5 174t196.5 65q60 0 109 -18t89 -57.5t62.5 -108.5t22.5 -164q0 -181 -74.5 -275t-219.5 -94q-108 0 -173 49.5t-71 120.5h146q7 -23 33.5 -39t65.5 -16q77 0 114 65.5t31 167.5h-6q-18 -42 -62 -69.5t-108 -27.5q-99 0 -165.5 61t-66.5 166zM962 852
q0 57 -34 90.5t-88 33.5q-52 0 -85.5 -33t-33.5 -89q0 -57 34.5 -89t86.5 -32q51 0 85.5 31.5t34.5 87.5zM844 93q128 0 243.5 49.5t197.5 134t130 200t48 243.5t-48 243.5t-130 200t-197.5 134t-243.5 49.5t-243.5 -49.5t-197.5 -134t-130 -200t-48 -243.5t48 -243.5
t130 -200t197.5 -134t243.5 -49.5zM844 -52q-157 0 -300 61t-246.5 164.5t-164.5 247t-61 300.5t61 300t164.5 246.5t246.5 164.5t300 61t300 -61t246.5 -164.5t164.5 -246.5t61 -300q0 -126 -39 -244t-110.5 -213t-166.5 -166.5t-212.5 -110.5t-243.5 -39z" />
    <glyph glyph-name="uni24B6" unicode="A&#x20dd;" 
d="M754 688h180l-85 272h-10zM670 408h-157l240 693h182l240 -693h-157l-54 169h-240zM844 93q128 0 243.5 49.5t197.5 134t130 200t48 243.5t-48 243.5t-130 200t-197.5 134t-243.5 49.5t-243.5 -49.5t-197.5 -134t-130 -200t-48 -243.5t48 -243.5t130 -200t197.5 -134
t243.5 -49.5zM844 -52q-157 0 -300 61t-246.5 164.5t-164.5 247t-61 300.5t61 300t164.5 246.5t246.5 164.5t300 61t300 -61t246.5 -164.5t164.5 -246.5t61 -300q0 -126 -39 -244t-110.5 -213t-166.5 -166.5t-212.5 -110.5t-243.5 -39z" />
    <glyph glyph-name="uni24B7" unicode="B&#x20dd;" 
d="M595 386v693h312q98 0 155.5 -46t57.5 -125q0 -59 -34.5 -99t-91.5 -53v-5q73 -9 117.5 -53.5t44.5 -117.5q0 -90 -68.5 -142t-179.5 -52h-313zM745 971v-179h91q135 0 135 91q0 41 -27 64.5t-76 23.5h-123zM745 694v-198h102q81 0 117.5 24t36.5 73q0 48 -32.5 74.5
t-92.5 26.5h-131zM844 93q128 0 243.5 49.5t197.5 134t130 200t48 243.5t-48 243.5t-130 200t-197.5 134t-243.5 49.5t-243.5 -49.5t-197.5 -134t-130 -200t-48 -243.5t48 -243.5t130 -200t197.5 -134t243.5 -49.5zM844 -52q-157 0 -300 61t-246.5 164.5t-164.5 247
t-61 300.5t61 300t164.5 246.5t246.5 164.5t300 61t300 -61t246.5 -164.5t164.5 -246.5t61 -300q0 -126 -39 -244t-110.5 -213t-166.5 -166.5t-212.5 -110.5t-243.5 -39z" />
    <glyph glyph-name="uni24B8" unicode="C&#x20dd;" 
d="M998 616h152q-14 -109 -97.5 -176t-209.5 -67q-146 0 -237.5 98.5t-91.5 260.5t91.5 260.5t237.5 98.5q129 0 212.5 -68.5t95.5 -181.5h-149q-7 55 -51.5 90.5t-105.5 35.5q-80 0 -128 -64t-48 -171t48 -170.5t128 -63.5q60 0 103 33.5t50 84.5zM844 93q128 0 243.5 49.5
t197.5 134t130 200t48 243.5t-48 243.5t-130 200t-197.5 134t-243.5 49.5t-243.5 -49.5t-197.5 -134t-130 -200t-48 -243.5t48 -243.5t130 -200t197.5 -134t243.5 -49.5zM844 -52q-157 0 -300 61t-246.5 164.5t-164.5 247t-61 300.5t61 300t164.5 246.5t246.5 164.5t300 61
t300 -61t246.5 -164.5t164.5 -246.5t61 -300q0 -126 -39 -244t-110.5 -213t-166.5 -166.5t-212.5 -110.5t-243.5 -39z" />
    <glyph glyph-name="uni24B9" unicode="D&#x20dd;" 
d="M591 1079h271q160 0 241.5 -89t81.5 -257t-81.5 -257.5t-241.5 -89.5h-271v693zM743 958v-452h98q95 0 140.5 55.5t45.5 170.5t-45.5 170.5t-140.5 55.5h-98zM844 93q128 0 243.5 49.5t197.5 134t130 200t48 243.5t-48 243.5t-130 200t-197.5 134t-243.5 49.5
t-243.5 -49.5t-197.5 -134t-130 -200t-48 -243.5t48 -243.5t130 -200t197.5 -134t243.5 -49.5zM844 -52q-157 0 -300 61t-246.5 164.5t-164.5 247t-61 300.5t61 300t164.5 246.5t246.5 164.5t300 61t300 -61t246.5 -164.5t164.5 -246.5t61 -300q0 -126 -39 -244t-110.5 -213
t-166.5 -166.5t-212.5 -110.5t-243.5 -39z" />
    <glyph glyph-name="uni24BA" unicode="E&#x20dd;" 
d="M1087 506v-120h-472v693h472v-120h-321v-168h302v-110h-302v-175h321zM844 93q128 0 243.5 49.5t197.5 134t130 200t48 243.5t-48 243.5t-130 200t-197.5 134t-243.5 49.5t-243.5 -49.5t-197.5 -134t-130 -200t-48 -243.5t48 -243.5t130 -200t197.5 -134t243.5 -49.5z
M844 -52q-157 0 -300 61t-246.5 164.5t-164.5 247t-61 300.5t61 300t164.5 246.5t246.5 164.5t300 61t300 -61t246.5 -164.5t164.5 -246.5t61 -300q0 -126 -39 -244t-110.5 -213t-166.5 -166.5t-212.5 -110.5t-243.5 -39z" />
    <glyph glyph-name="uni24BB" unicode="F&#x20dd;" 
d="M796 386h-155v693h468v-121h-313v-182h286v-119h-286v-271zM844 93q128 0 243.5 49.5t197.5 134t130 200t48 243.5t-48 243.5t-130 200t-197.5 134t-243.5 49.5t-243.5 -49.5t-197.5 -134t-130 -200t-48 -243.5t48 -243.5t130 -200t197.5 -134t243.5 -49.5zM844 -52
q-157 0 -300 61t-246.5 164.5t-164.5 247t-61 300.5t61 300t164.5 246.5t246.5 164.5t300 61t300 -61t246.5 -164.5t164.5 -246.5t61 -300q0 -126 -39 -244t-110.5 -213t-166.5 -166.5t-212.5 -110.5t-243.5 -39z" />
    <glyph glyph-name="uni24BC" unicode="G&#x20dd;" 
d="M1001 607v47h-148v105h293v-121q0 -118 -79.5 -191.5t-222.5 -73.5q-148 0 -239 99t-91 260t91 260t239 99q124 0 208.5 -64.5t97.5 -170.5h-152q-7 50 -49.5 82t-101.5 32q-81 0 -129.5 -65t-48.5 -173t48.5 -173.5t129.5 -65.5q73 0 113.5 31t40.5 83zM844 93
q128 0 243.5 49.5t197.5 134t130 200t48 243.5t-48 243.5t-130 200t-197.5 134t-243.5 49.5t-243.5 -49.5t-197.5 -134t-130 -200t-48 -243.5t48 -243.5t130 -200t197.5 -134t243.5 -49.5zM844 -52q-157 0 -300 61t-246.5 164.5t-164.5 247t-61 300.5t61 300t164.5 246.5
t246.5 164.5t300 61t300 -61t246.5 -164.5t164.5 -246.5t61 -300q0 -126 -39 -244t-110.5 -213t-166.5 -166.5t-212.5 -110.5t-243.5 -39z" />
    <glyph glyph-name="uni24BD" unicode="H&#x20dd;" 
d="M1142 386h-151v291h-293v-291h-151v693h151v-279h293v279h151v-693zM844 93q128 0 243.5 49.5t197.5 134t130 200t48 243.5t-48 243.5t-130 200t-197.5 134t-243.5 49.5t-243.5 -49.5t-197.5 -134t-130 -200t-48 -243.5t48 -243.5t130 -200t197.5 -134t243.5 -49.5z
M844 -52q-157 0 -300 61t-246.5 164.5t-164.5 247t-61 300.5t61 300t164.5 246.5t246.5 164.5t300 61t300 -61t246.5 -164.5t164.5 -246.5t61 -300q0 -126 -39 -244t-110.5 -213t-166.5 -166.5t-212.5 -110.5t-243.5 -39z" />
    <glyph glyph-name="uni24BE" unicode="I&#x20dd;" 
d="M925 386h-162v693h162v-693zM844 93q128 0 243.5 49.5t197.5 134t130 200t48 243.5t-48 243.5t-130 200t-197.5 134t-243.5 49.5t-243.5 -49.5t-197.5 -134t-130 -200t-48 -243.5t48 -243.5t130 -200t197.5 -134t243.5 -49.5zM844 -52q-157 0 -300 61t-246.5 164.5
t-164.5 247t-61 300.5t61 300t164.5 246.5t246.5 164.5t300 61t300 -61t246.5 -164.5t164.5 -246.5t61 -300q0 -126 -39 -244t-110.5 -213t-166.5 -166.5t-212.5 -110.5t-243.5 -39z" />
    <glyph glyph-name="uni24BF" unicode="J&#x20dd;" 
d="M568 591h150q1 -41 25.5 -64.5t65.5 -23.5q95 0 95 107v465h155v-464q0 -115 -66 -178t-182 -63q-115 0 -179 61.5t-64 159.5zM844 93q128 0 243.5 49.5t197.5 134t130 200t48 243.5t-48 243.5t-130 200t-197.5 134t-243.5 49.5t-243.5 -49.5t-197.5 -134t-130 -200
t-48 -243.5t48 -243.5t130 -200t197.5 -134t243.5 -49.5zM844 -52q-157 0 -300 61t-246.5 164.5t-164.5 247t-61 300.5t61 300t164.5 246.5t246.5 164.5t300 61t300 -61t246.5 -164.5t164.5 -246.5t61 -300q0 -126 -39 -244t-110.5 -213t-166.5 -166.5t-212.5 -110.5
t-243.5 -39z" />
    <glyph glyph-name="uni24C0" unicode="K&#x20dd;" 
d="M1166 1079l-251 -303l260 -390h-182l-193 293l-73 -81v-212h-148v693h148v-309h6l263 309h170zM844 93q128 0 243.5 49.5t197.5 134t130 200t48 243.5t-48 243.5t-130 200t-197.5 134t-243.5 49.5t-243.5 -49.5t-197.5 -134t-130 -200t-48 -243.5t48 -243.5t130 -200
t197.5 -134t243.5 -49.5zM844 -52q-157 0 -300 61t-246.5 164.5t-164.5 247t-61 300.5t61 300t164.5 246.5t246.5 164.5t300 61t300 -61t246.5 -164.5t164.5 -246.5t61 -300q0 -126 -39 -244t-110.5 -213t-166.5 -166.5t-212.5 -110.5t-243.5 -39z" />
    <glyph glyph-name="uni24C1" unicode="L&#x20dd;" 
d="M1117 517v-127h-461v692h157v-565h304zM844 93q128 0 243.5 49.5t197.5 134t130 200t48 243.5t-48 243.5t-130 200t-197.5 134t-243.5 49.5t-243.5 -49.5t-197.5 -134t-130 -200t-48 -243.5t48 -243.5t130 -200t197.5 -134t243.5 -49.5zM844 -52q-157 0 -300 61
t-246.5 164.5t-164.5 247t-61 300.5t61 300t164.5 246.5t246.5 164.5t300 61t300 -61t246.5 -164.5t164.5 -246.5t61 -300q0 -126 -39 -244t-110.5 -213t-166.5 -166.5t-212.5 -110.5t-243.5 -39z" />
    <glyph glyph-name="uni24C2" unicode="M&#x20dd;" 
d="M623 386h-130v693h153l197 -505h4l197 505h151v-693h-129v456h-7l-165 -430h-99l-166 430h-6v-456zM844 93q128 0 243.5 49.5t197.5 134t130 200t48 243.5t-48 243.5t-130 200t-197.5 134t-243.5 49.5t-243.5 -49.5t-197.5 -134t-130 -200t-48 -243.5t48 -243.5t130 -200
t197.5 -134t243.5 -49.5zM844 -52q-157 0 -300 61t-246.5 164.5t-164.5 247t-61 300.5t61 300t164.5 246.5t246.5 164.5t300 61t300 -61t246.5 -164.5t164.5 -246.5t61 -300q0 -126 -39 -244t-110.5 -213t-166.5 -166.5t-212.5 -110.5t-243.5 -39z" />
    <glyph glyph-name="uni24C3" unicode="N&#x20dd;" 
d="M694 386h-142v693h123l312 -450h7v450h142v-693h-123l-313 453h-6v-453zM844 93q128 0 243.5 49.5t197.5 134t130 200t48 243.5t-48 243.5t-130 200t-197.5 134t-243.5 49.5t-243.5 -49.5t-197.5 -134t-130 -200t-48 -243.5t48 -243.5t130 -200t197.5 -134t243.5 -49.5z
M844 -52q-157 0 -300 61t-246.5 164.5t-164.5 247t-61 300.5t61 300t164.5 246.5t246.5 164.5t300 61t300 -61t246.5 -164.5t164.5 -246.5t61 -300q0 -126 -39 -244t-110.5 -213t-166.5 -166.5t-212.5 -110.5t-243.5 -39z" />
    <glyph glyph-name="uni24C4" unicode="O&#x20dd;" 
d="M844 498q76 0 125.5 61.5t49.5 172.5t-49.5 173t-125.5 62t-125.5 -62t-49.5 -173t49.5 -172.5t125.5 -61.5zM844 373q-143 0 -237 96t-94 263t94 263t237 96t237 -96t94 -263t-94 -263t-237 -96zM844 93q128 0 243.5 49.5t197.5 134t130 200t48 243.5t-48 243.5
t-130 200t-197.5 134t-243.5 49.5t-243.5 -49.5t-197.5 -134t-130 -200t-48 -243.5t48 -243.5t130 -200t197.5 -134t243.5 -49.5zM844 -52q-157 0 -300 61t-246.5 164.5t-164.5 247t-61 300.5t61 300t164.5 246.5t246.5 164.5t300 61t300 -61t246.5 -164.5t164.5 -246.5
t61 -300q0 -126 -39 -244t-110.5 -213t-166.5 -166.5t-212.5 -110.5t-243.5 -39z" />
    <glyph glyph-name="uni24C5" unicode="P&#x20dd;" 
d="M910 1079q114 0 180.5 -66t66.5 -170t-67 -168.5t-182 -64.5h-138v-224h-155v693h295zM1002 843q0 57 -31 87.5t-88 30.5h-117v-234h117q57 0 88 30t31 86zM844 93q128 0 243.5 49.5t197.5 134t130 200t48 243.5t-48 243.5t-130 200t-197.5 134t-243.5 49.5t-243.5 -49.5
t-197.5 -134t-130 -200t-48 -243.5t48 -243.5t130 -200t197.5 -134t243.5 -49.5zM844 -52q-157 0 -300 61t-246.5 164.5t-164.5 247t-61 300.5t61 300t164.5 246.5t246.5 164.5t300 61t300 -61t246.5 -164.5t164.5 -246.5t61 -300q0 -126 -39 -244t-110.5 -213
t-166.5 -166.5t-212.5 -110.5t-243.5 -39z" />
    <glyph glyph-name="uni24C6" unicode="Q&#x20dd;" 
d="M1151 320h-151l-48 71q-51 -18 -108 -18q-143 0 -237 96t-94 263t94 263t237 96t237 -96t94 -263q0 -183 -117 -284zM844 498q22 0 42 6l-73 109h120l36 -49q50 61 50 168q0 111 -49.5 173t-125.5 62t-125.5 -62t-49.5 -173t49.5 -172.5t125.5 -61.5zM844 93
q128 0 243.5 49.5t197.5 134t130 200t48 243.5t-48 243.5t-130 200t-197.5 134t-243.5 49.5t-243.5 -49.5t-197.5 -134t-130 -200t-48 -243.5t48 -243.5t130 -200t197.5 -134t243.5 -49.5zM844 -52q-157 0 -300 61t-246.5 164.5t-164.5 247t-61 300.5t61 300t164.5 246.5
t246.5 164.5t300 61t300 -61t246.5 -164.5t164.5 -246.5t61 -300q0 -126 -39 -244t-110.5 -213t-166.5 -166.5t-212.5 -110.5t-243.5 -39z" />
    <glyph glyph-name="uni24C7" unicode="R&#x20dd;" 
d="M879 1079q121 0 189.5 -59t68.5 -160q0 -71 -37.5 -122t-96.5 -72l147 -280h-168l-124 255h-124v-255h-148v693h293zM734 749h122q59 0 91.5 27t32.5 77q0 52 -32.5 81t-88.5 29h-125v-214zM844 93q128 0 243.5 49.5t197.5 134t130 200t48 243.5t-48 243.5t-130 200
t-197.5 134t-243.5 49.5t-243.5 -49.5t-197.5 -134t-130 -200t-48 -243.5t48 -243.5t130 -200t197.5 -134t243.5 -49.5zM844 -52q-157 0 -300 61t-246.5 164.5t-164.5 247t-61 300.5t61 300t164.5 246.5t246.5 164.5t300 61t300 -61t246.5 -164.5t164.5 -246.5t61 -300
q0 -126 -39 -244t-110.5 -213t-166.5 -166.5t-212.5 -110.5t-243.5 -39z" />
    <glyph glyph-name="uni24C8" unicode="S&#x20dd;" 
d="M557 583h150q5 -43 43 -68.5t99 -25.5q60 0 96 24.5t36 66.5q0 32 -26 52t-87 34l-107 22q-187 40 -187 192q0 95 75.5 153.5t198.5 58.5q118 0 193 -56.5t79 -148.5h-146q-4 42 -38.5 66.5t-88.5 24.5t-87 -24.5t-33 -63.5q0 -59 99 -78l110 -24q100 -21 147.5 -68.5
t47.5 -126.5q0 -101 -78 -160t-212 -59q-128 0 -204.5 56t-79.5 153zM844 93q128 0 243.5 49.5t197.5 134t130 200t48 243.5t-48 243.5t-130 200t-197.5 134t-243.5 49.5t-243.5 -49.5t-197.5 -134t-130 -200t-48 -243.5t48 -243.5t130 -200t197.5 -134t243.5 -49.5z
M844 -52q-157 0 -300 61t-246.5 164.5t-164.5 247t-61 300.5t61 300t164.5 246.5t246.5 164.5t300 61t300 -61t246.5 -164.5t164.5 -246.5t61 -300q0 -126 -39 -244t-110.5 -213t-166.5 -166.5t-212.5 -110.5t-243.5 -39z" />
    <glyph glyph-name="uni24C9" unicode="T&#x20dd;" 
d="M923 365h-158v568h-205v125h568v-125h-205v-568zM844 93q128 0 243.5 49.5t197.5 134t130 200t48 243.5t-48 243.5t-130 200t-197.5 134t-243.5 49.5t-243.5 -49.5t-197.5 -134t-130 -200t-48 -243.5t48 -243.5t130 -200t197.5 -134t243.5 -49.5zM844 -52q-157 0 -300 61
t-246.5 164.5t-164.5 247t-61 300.5t61 300t164.5 246.5t246.5 164.5t300 61t300 -61t246.5 -164.5t164.5 -246.5t61 -300q0 -126 -39 -244t-110.5 -213t-166.5 -166.5t-212.5 -110.5t-243.5 -39z" />
    <glyph glyph-name="uni24CA" unicode="U&#x20dd;" 
d="M844 478q65 0 103 37t38 102v441h154v-454q0 -112 -81 -182t-214 -70t-214 70t-81 182v454h154v-441q0 -65 38 -102t103 -37zM844 93q128 0 243.5 49.5t197.5 134t130 200t48 243.5t-48 243.5t-130 200t-197.5 134t-243.5 49.5t-243.5 -49.5t-197.5 -134t-130 -200
t-48 -243.5t48 -243.5t130 -200t197.5 -134t243.5 -49.5zM844 -52q-157 0 -300 61t-246.5 164.5t-164.5 247t-61 300.5t61 300t164.5 246.5t246.5 164.5t300 61t300 -61t246.5 -164.5t164.5 -246.5t61 -300q0 -126 -39 -244t-110.5 -213t-166.5 -166.5t-212.5 -110.5
t-243.5 -39z" />
    <glyph glyph-name="uni24CB" unicode="V&#x20dd;" 
d="M746 363l-237 693h176l156 -540h6l156 540h175l-236 -693h-196zM844 93q128 0 243.5 49.5t197.5 134t130 200t48 243.5t-48 243.5t-130 200t-197.5 134t-243.5 49.5t-243.5 -49.5t-197.5 -134t-130 -200t-48 -243.5t48 -243.5t130 -200t197.5 -134t243.5 -49.5zM844 -52
q-157 0 -300 61t-246.5 164.5t-164.5 247t-61 300.5t61 300t164.5 246.5t246.5 164.5t300 61t300 -61t246.5 -164.5t164.5 -246.5t61 -300q0 -126 -39 -244t-110.5 -213t-166.5 -166.5t-212.5 -110.5t-243.5 -39z" />
    <glyph glyph-name="uni24CC" unicode="W&#x20dd;" 
d="M842 842l-128 -477h-136l-184 693h156l104 -500h7l121 500h124l121 -500h7l104 500h155l-182 -693h-137l-128 477h-4zM844 93q128 0 243.5 49.5t197.5 134t130 200t48 243.5t-48 243.5t-130 200t-197.5 134t-243.5 49.5t-243.5 -49.5t-197.5 -134t-130 -200t-48 -243.5
t48 -243.5t130 -200t197.5 -134t243.5 -49.5zM844 -52q-157 0 -300 61t-246.5 164.5t-164.5 247t-61 300.5t61 300t164.5 246.5t246.5 164.5t300 61t300 -61t246.5 -164.5t164.5 -246.5t61 -300q0 -126 -39 -244t-110.5 -213t-166.5 -166.5t-212.5 -110.5t-243.5 -39z" />
    <glyph glyph-name="uni24CD" unicode="X&#x20dd;" 
d="M1165 1079l-227 -348l225 -345h-174l-146 244h-7l-148 -244h-169l225 348l-223 345h179l144 -247h7l144 247h170zM844 93q128 0 243.5 49.5t197.5 134t130 200t48 243.5t-48 243.5t-130 200t-197.5 134t-243.5 49.5t-243.5 -49.5t-197.5 -134t-130 -200t-48 -243.5
t48 -243.5t130 -200t197.5 -134t243.5 -49.5zM844 -52q-157 0 -300 61t-246.5 164.5t-164.5 247t-61 300.5t61 300t164.5 246.5t246.5 164.5t300 61t300 -61t246.5 -164.5t164.5 -246.5t61 -300q0 -126 -39 -244t-110.5 -213t-166.5 -166.5t-212.5 -110.5t-243.5 -39z" />
    <glyph glyph-name="uni24CE" unicode="Y&#x20dd;" 
d="M924 377h-159v257l-241 436h172l146 -289h6l147 289h169l-240 -434v-259zM844 93q128 0 243.5 49.5t197.5 134t130 200t48 243.5t-48 243.5t-130 200t-197.5 134t-243.5 49.5t-243.5 -49.5t-197.5 -134t-130 -200t-48 -243.5t48 -243.5t130 -200t197.5 -134t243.5 -49.5z
M844 -52q-157 0 -300 61t-246.5 164.5t-164.5 247t-61 300.5t61 300t164.5 246.5t246.5 164.5t300 61t300 -61t246.5 -164.5t164.5 -246.5t61 -300q0 -126 -39 -244t-110.5 -213t-166.5 -166.5t-212.5 -110.5t-243.5 -39z" />
    <glyph glyph-name="uni24CF" unicode="Z&#x20dd;" 
d="M576 386v98l339 465v7h-332v123h521v-99l-339 -464v-7h349v-123h-538zM844 93q128 0 243.5 49.5t197.5 134t130 200t48 243.5t-48 243.5t-130 200t-197.5 134t-243.5 49.5t-243.5 -49.5t-197.5 -134t-130 -200t-48 -243.5t48 -243.5t130 -200t197.5 -134t243.5 -49.5z
M844 -52q-157 0 -300 61t-246.5 164.5t-164.5 247t-61 300.5t61 300t164.5 246.5t246.5 164.5t300 61t300 -61t246.5 -164.5t164.5 -246.5t61 -300q0 -126 -39 -244t-110.5 -213t-166.5 -166.5t-212.5 -110.5t-243.5 -39z" />
    <glyph glyph-name="uni24EA" unicode="&#x23;&#x20dd;" 
d="M844 500q60 0 94.5 60t34.5 172t-34.5 172t-94.5 60t-94.5 -60t-34.5 -172t34.5 -172t94.5 -60zM843 374q-124 0 -200 95.5t-76 262.5q0 168 76 263.5t200 95.5q125 0 201.5 -95.5t76.5 -263.5q0 -167 -76.5 -262.5t-201.5 -95.5zM844 93q128 0 243.5 49.5t197.5 134
t130 200t48 243.5t-48 243.5t-130 200t-197.5 134t-243.5 49.5t-243.5 -49.5t-197.5 -134t-130 -200t-48 -243.5t48 -243.5t130 -200t197.5 -134t243.5 -49.5zM844 -52q-157 0 -300 61t-246.5 164.5t-164.5 247t-61 300.5t61 300t164.5 246.5t246.5 164.5t300 61t300 -61
t246.5 -164.5t164.5 -246.5t61 -300q0 -126 -39 -244t-110.5 -213t-166.5 -166.5t-212.5 -110.5t-243.5 -39z" />
    <glyph glyph-name="uni24FF" unicode="&#x30;&#x20dd;&#x25cf;" 
d="M841 476q-64 0 -98.5 65.5t-34.5 190.5q0 126 34.5 191.5t98.5 65.5t98 -65.5t34 -191.5q0 -125 -34.5 -190.5t-97.5 -65.5zM840 338q141 0 225 105.5t84 288.5t-84 289t-225 106t-224.5 -106t-83.5 -289t83.5 -288.5t224.5 -105.5zM844 -51q-157 0 -299.5 61.5t-246 165
t-165 246t-61.5 299.5t61.5 299.5t165 246t246 165t299.5 61.5t299.5 -61.5t246 -165t165 -246t61.5 -299.5t-61.5 -299.5t-165 -246t-246 -165t-299.5 -61.5z" />
    <glyph glyph-name="uni278A" unicode="&#x31;&#x20dd;&#x25cf;" 
d="M970 352v761h-175l-187 -128v-160l182 125h3v-598h177zM844 -51q-157 0 -299.5 61.5t-246 165t-165 246t-61.5 299.5t61.5 299.5t165 246t246 165t299.5 61.5t299.5 -61.5t246 -165t165 -246t61.5 -299.5t-61.5 -299.5t-165 -246t-246 -165t-299.5 -61.5z" />
    <glyph glyph-name="uni278B" unicode="&#x32;&#x20dd;&#x25cf;" 
d="M727 874v9q0 46 29 77t80 31q46 0 76 -27t30 -68q0 -40 -22.5 -74.5t-67.5 -78.5l-283 -284v-108h560v141h-325v1l180 185q66 66 98 116t32 115q0 94 -76 155.5t-196 61.5q-132 0 -206.5 -71t-74.5 -172v-9h166zM844 -51q-157 0 -299.5 61.5t-246 165t-165 246
t-61.5 299.5t61.5 299.5t165 246t246 165t299.5 61.5t299.5 -61.5t246 -165t165 -246t61.5 -299.5t-61.5 -299.5t-165 -246t-246 -165t-299.5 -61.5z" />
    <glyph glyph-name="uni278C" unicode="&#x33;&#x20dd;&#x25cf;" 
d="M751 678h89q57 0 92 -28.5t36 -74.5q0 -46 -36 -75t-96 -29q-54 1 -90 27t-41 66h-162q3 -98 82 -162t211 -64q133 0 220 62.5t86 167.5q-2 80 -52.5 128t-113.5 55v2q53 10 98 57t44 116q-2 89 -78 145t-200 56q-132 -1 -206 -62.5t-78 -161.5h165q2 39 33.5 65.5
t81.5 26.5q48 0 79 -26t32 -66q0 -42 -31 -68.5t-81 -26.5h-84v-130zM844 -51q-157 0 -299.5 61.5t-246 165t-165 246t-61.5 299.5t61.5 299.5t165 246t246 165t299.5 61.5t299.5 -61.5t246 -165t165 -246t61.5 -299.5t-61.5 -299.5t-165 -246t-246 -165t-299.5 -61.5z" />
    <glyph glyph-name="uni278D" unicode="&#x34;&#x20dd;&#x25cf;" 
d="M792 1113q-217 -343 -295 -489v-135h379v-137h160v137h101v137h-101v487h-244zM657 626v1q80 144 217 357h2v-358h-219zM844 -51q-157 0 -299.5 61.5t-246 165t-165 246t-61.5 299.5t61.5 299.5t165 246t246 165t299.5 61.5t299.5 -61.5t246 -165t165 -246t61.5 -299.5
t-61.5 -299.5t-165 -246t-246 -165t-299.5 -61.5z" />
    <glyph glyph-name="uni278E" unicode="&#x35;&#x20dd;&#x25cf;" 
d="M557 562q4 -97 83 -159t204 -62q138 0 221.5 74.5t83.5 198.5q0 114 -73 180.5t-183 66.5q-57 0 -99.5 -19.5t-60.5 -45.5h-2l15 186h358v133h-498l-33 -449h152q15 28 47 48.5t76 20.5q56 0 94 -35t38 -92q0 -61 -39 -97.5t-92 -36.5q-49 0 -85.5 23t-44.5 65h-162z
M844 -51q-157 0 -299.5 61.5t-246 165t-165 246t-61.5 299.5t61.5 299.5t165 246t246 165t299.5 61.5t299.5 -61.5t246 -165t165 -246t61.5 -299.5t-61.5 -299.5t-165 -246t-246 -165t-299.5 -61.5z" />
    <glyph glyph-name="uni278F" unicode="&#x36;&#x20dd;&#x25cf;" 
d="M1141 608q0 113 -72 177t-176 64q-74 0 -123 -29.5t-72 -74.5l-4 -2v4l-1 3q-1 112 42 177.5t115 65.5q45 0 73 -19t38 -47h164q-6 79 -80 139.5t-193 60.5q-151 0 -237.5 -105t-86.5 -306q0 -159 61 -251q85 -127 255 -127q132 0 214.5 72.5t82.5 197.5zM713 602
q0 56 36.5 91.5t95.5 35.5q54 0 91.5 -34t37.5 -94q0 -63 -36 -96.5t-93 -33.5t-94.5 35t-37.5 96zM844 -51q-157 0 -299.5 61.5t-246 165t-165 246t-61.5 299.5t61.5 299.5t165 246t246 165t299.5 61.5t299.5 -61.5t246 -165t165 -246t61.5 -299.5t-61.5 -299.5t-165 -246
t-246 -165t-299.5 -61.5z" />
    <glyph glyph-name="uni2790" unicode="&#x37;&#x20dd;&#x25cf;" 
d="M574 1105v-142h382v-1l-323 -618h187l315 622v139h-561zM844 -51q-157 0 -299.5 61.5t-246 165t-165 246t-61.5 299.5t61.5 299.5t165 246t246 165t299.5 61.5t299.5 -61.5t246 -165t165 -246t61.5 -299.5t-61.5 -299.5t-165 -246t-246 -165t-299.5 -61.5z" />
    <glyph glyph-name="uni2791" unicode="&#x38;&#x20dd;&#x25cf;" 
d="M841 804q-51 0 -82.5 28t-31.5 72q0 45 31.5 73t82.5 28q50 0 82 -28t32 -73q0 -44 -32 -72t-82 -28zM841 460q-61 0 -100.5 33t-39.5 83t39.5 83t100.5 33t100 -33t39 -83t-39 -83t-100 -33zM841 338q142 0 228 62t86 165q0 71 -44.5 121t-120.5 65v1q64 21 98.5 65
t34.5 105q0 92 -78 148.5t-204 56.5q-127 0 -204.5 -56.5t-77.5 -148.5q0 -61 34 -105t98 -65v-1q-76 -15 -120 -65t-44 -121q0 -103 86 -165t228 -62zM844 -51q-157 0 -299.5 61.5t-246 165t-165 246t-61.5 299.5t61.5 299.5t165 246t246 165t299.5 61.5t299.5 -61.5
t246 -165t165 -246t61.5 -299.5t-61.5 -299.5t-165 -246t-246 -165t-299.5 -61.5z" />
    <glyph glyph-name="uni2792" unicode="&#x39;&#x20dd;&#x25cf;" 
d="M966 862q0 -60 -37.5 -94t-93.5 -34q-55 0 -92.5 34.5t-37.5 95.5q0 60 37 96t93 36q57 0 94 -36t37 -98zM557 531q9 -80 80 -136t190 -56q159 0 241.5 103t82.5 299q0 105 -24.5 182t-69 120.5t-99 64t-120.5 20.5q-132 0 -215.5 -72t-83.5 -194q0 -116 72 -183t182 -67
q70 0 118.5 29t70.5 74h2q4 -108 -35.5 -175.5t-119.5 -67.5q-41 0 -69.5 17.5t-37.5 41.5h-165zM844 -51q-157 0 -299.5 61.5t-246 165t-165 246t-61.5 299.5t61.5 299.5t165 246t246 165t299.5 61.5t299.5 -61.5t246 -165t165 -246t61.5 -299.5t-61.5 -299.5t-165 -246
t-246 -165t-299.5 -61.5z" />
    <glyph glyph-name="uni1F130" unicode="A&#x20de;" 
d="M754 671h180l-85 273h-10zM670 391h-157l240 693h182l240 -693h-157l-54 170h-240zM359 1467h970q108 0 183.5 -75t75.5 -180v-980q0 -105 -75.5 -180t-183.5 -75h-970q-107 0 -183 75t-76 180v980q0 105 76 180t183 75zM1441 1197q0 55 -41 94.5t-99 39.5h-914
q-57 0 -98.5 -39.5t-41.5 -94.5v-950q0 -55 41.5 -94.5t98.5 -39.5h914q57 0 98.5 39.5t41.5 94.5v950z" />
    <glyph glyph-name="uni1F131" unicode="B&#x20de;" 
d="M595 386v693h312q98 0 155.5 -46t57.5 -125q0 -59 -34.5 -99t-91.5 -53v-5q73 -9 117.5 -53.5t44.5 -117.5q0 -90 -68.5 -142t-179.5 -52h-313zM745 971v-179h91q135 0 135 91q0 41 -27 64.5t-76 23.5h-123zM745 694v-198h102q81 0 117.5 24t36.5 73q0 48 -32.5 74.5
t-92.5 26.5h-131zM359 1467h970q108 0 183.5 -75t75.5 -180v-980q0 -105 -75.5 -180t-183.5 -75h-970q-107 0 -183 75t-76 180v980q0 105 76 180t183 75zM1441 1197q0 55 -41 94.5t-99 39.5h-914q-57 0 -98.5 -39.5t-41.5 -94.5v-950q0 -55 41.5 -94.5t98.5 -39.5h914
q57 0 98.5 39.5t41.5 94.5v950z" />
    <glyph glyph-name="uni1F132" unicode="C&#x20de;" 
d="M998 616h152q-14 -109 -97.5 -176t-209.5 -67q-146 0 -237.5 98.5t-91.5 260.5t91.5 260.5t237.5 98.5q129 0 212.5 -68.5t95.5 -181.5h-149q-7 55 -51.5 90.5t-105.5 35.5q-80 0 -128 -64t-48 -171t48 -170.5t128 -63.5q60 0 103 33.5t50 84.5zM359 1467h970
q108 0 183.5 -75t75.5 -180v-980q0 -105 -75.5 -180t-183.5 -75h-970q-107 0 -183 75t-76 180v980q0 105 76 180t183 75zM1441 1197q0 55 -41 94.5t-99 39.5h-914q-57 0 -98.5 -39.5t-41.5 -94.5v-950q0 -55 41.5 -94.5t98.5 -39.5h914q57 0 98.5 39.5t41.5 94.5v950z" />
    <glyph glyph-name="uni1F133" unicode="D&#x20de;" 
d="M572 1079h271q160 0 241.5 -89t81.5 -257t-81.5 -257.5t-241.5 -89.5h-271v693zM724 958v-452h97q96 0 141.5 55.5t45.5 170.5t-45.5 170.5t-141.5 55.5h-97zM359 1467h970q108 0 183.5 -75t75.5 -180v-980q0 -105 -75.5 -180t-183.5 -75h-970q-107 0 -183 75t-76 180
v980q0 105 76 180t183 75zM1441 1197q0 55 -41 94.5t-99 39.5h-914q-57 0 -98.5 -39.5t-41.5 -94.5v-950q0 -55 41.5 -94.5t98.5 -39.5h914q57 0 98.5 39.5t41.5 94.5v950z" />
    <glyph glyph-name="uni1F134" unicode="E&#x20de;" 
d="M1087 506v-120h-472v693h472v-120h-321v-168h302v-110h-302v-175h321zM359 1467h970q108 0 183.5 -75t75.5 -180v-980q0 -105 -75.5 -180t-183.5 -75h-970q-107 0 -183 75t-76 180v980q0 105 76 180t183 75zM1441 1197q0 55 -41 94.5t-99 39.5h-914q-57 0 -98.5 -39.5
t-41.5 -94.5v-950q0 -55 41.5 -94.5t98.5 -39.5h914q57 0 98.5 39.5t41.5 94.5v950z" />
    <glyph glyph-name="uni1F135" unicode="F&#x20de;" 
d="M796 386h-155v693h468v-121h-313v-182h286v-119h-286v-271zM359 1467h970q108 0 183.5 -75t75.5 -180v-980q0 -105 -75.5 -180t-183.5 -75h-970q-107 0 -183 75t-76 180v980q0 105 76 180t183 75zM1441 1197q0 55 -41 94.5t-99 39.5h-914q-57 0 -98.5 -39.5t-41.5 -94.5
v-950q0 -55 41.5 -94.5t98.5 -39.5h914q57 0 98.5 39.5t41.5 94.5v950z" />
    <glyph glyph-name="uni1F136" unicode="G&#x20de;" 
d="M1001 607v47h-148v105h293v-121q0 -118 -79.5 -191.5t-222.5 -73.5q-148 0 -239 99t-91 260t91 260t239 99q124 0 208.5 -64.5t97.5 -170.5h-152q-7 50 -49.5 82t-101.5 32q-81 0 -129.5 -65t-48.5 -173t48.5 -173.5t129.5 -65.5q73 0 113.5 31t40.5 83zM359 1467h970
q108 0 183.5 -75t75.5 -180v-980q0 -105 -75.5 -180t-183.5 -75h-970q-107 0 -183 75t-76 180v980q0 105 76 180t183 75zM1441 1197q0 55 -41 94.5t-99 39.5h-914q-57 0 -98.5 -39.5t-41.5 -94.5v-950q0 -55 41.5 -94.5t98.5 -39.5h914q57 0 98.5 39.5t41.5 94.5v950z" />
    <glyph glyph-name="uni1F137" unicode="H&#x20de;" 
d="M1142 386h-151v291h-293v-291h-151v693h151v-279h293v279h151v-693zM359 1467h970q108 0 183.5 -75t75.5 -180v-980q0 -105 -75.5 -180t-183.5 -75h-970q-107 0 -183 75t-76 180v980q0 105 76 180t183 75zM1441 1197q0 55 -41 94.5t-99 39.5h-914q-57 0 -98.5 -39.5
t-41.5 -94.5v-950q0 -55 41.5 -94.5t98.5 -39.5h914q57 0 98.5 39.5t41.5 94.5v950z" />
    <glyph glyph-name="uni1F138" unicode="I&#x20de;" 
d="M925 386h-162v693h162v-693zM359 1467h970q108 0 183.5 -75t75.5 -180v-980q0 -105 -75.5 -180t-183.5 -75h-970q-107 0 -183 75t-76 180v980q0 105 76 180t183 75zM1441 1197q0 55 -41 94.5t-99 39.5h-914q-57 0 -98.5 -39.5t-41.5 -94.5v-950q0 -55 41.5 -94.5
t98.5 -39.5h914q57 0 98.5 39.5t41.5 94.5v950z" />
    <glyph glyph-name="uni1F139" unicode="J&#x20de;" 
d="M568 591h150q1 -41 25.5 -64.5t65.5 -23.5q95 0 95 107v465h155v-464q0 -115 -66 -178t-182 -63q-115 0 -179 61.5t-64 159.5zM359 1467h970q108 0 183.5 -75t75.5 -180v-980q0 -105 -75.5 -180t-183.5 -75h-970q-107 0 -183 75t-76 180v980q0 105 76 180t183 75z
M1441 1197q0 55 -41 94.5t-99 39.5h-914q-57 0 -98.5 -39.5t-41.5 -94.5v-950q0 -55 41.5 -94.5t98.5 -39.5h914q57 0 98.5 39.5t41.5 94.5v950z" />
    <glyph glyph-name="uni1F13A" unicode="K&#x20de;" 
d="M1166 1079l-251 -303l260 -390h-182l-193 293l-73 -81v-212h-148v693h148v-309h6l263 309h170zM359 1467h970q108 0 183.5 -75t75.5 -180v-980q0 -105 -75.5 -180t-183.5 -75h-970q-107 0 -183 75t-76 180v980q0 105 76 180t183 75zM1441 1197q0 55 -41 94.5t-99 39.5
h-914q-57 0 -98.5 -39.5t-41.5 -94.5v-950q0 -55 41.5 -94.5t98.5 -39.5h914q57 0 98.5 39.5t41.5 94.5v950z" />
    <glyph glyph-name="uni1F13B" unicode="L&#x20de;" 
d="M1125 517v-127h-461v692h157v-565h304zM359 1467h970q108 0 183.5 -75t75.5 -180v-980q0 -105 -75.5 -180t-183.5 -75h-970q-107 0 -183 75t-76 180v980q0 105 76 180t183 75zM1441 1197q0 55 -41 94.5t-99 39.5h-914q-57 0 -98.5 -39.5t-41.5 -94.5v-950
q0 -55 41.5 -94.5t98.5 -39.5h914q57 0 98.5 39.5t41.5 94.5v950z" />
    <glyph glyph-name="uni1F13C" unicode="M&#x20de;" 
d="M623 386h-130v693h153l197 -505h4l197 505h151v-693h-129v461h-7l-165 -435h-99l-166 435h-6v-461zM359 1467h970q108 0 183.5 -75t75.5 -180v-980q0 -105 -75.5 -180t-183.5 -75h-970q-107 0 -183 75t-76 180v980q0 105 76 180t183 75zM1441 1197q0 55 -41 94.5
t-99 39.5h-914q-57 0 -98.5 -39.5t-41.5 -94.5v-950q0 -55 41.5 -94.5t98.5 -39.5h914q57 0 98.5 39.5t41.5 94.5v950z" />
    <glyph glyph-name="uni1F13D" unicode="N&#x20de;" 
d="M694 386h-142v693h123l313 -450h6v450h142v-693h-123l-313 453h-6v-453zM359 1467h970q108 0 183.5 -75t75.5 -180v-980q0 -105 -75.5 -180t-183.5 -75h-970q-107 0 -183 75t-76 180v980q0 105 76 180t183 75zM1441 1197q0 55 -41 94.5t-99 39.5h-914q-57 0 -98.5 -39.5
t-41.5 -94.5v-950q0 -55 41.5 -94.5t98.5 -39.5h914q57 0 98.5 39.5t41.5 94.5v950z" />
    <glyph glyph-name="uni1F13E" unicode="O&#x20de;" 
d="M844 498q76 0 125.5 61.5t49.5 172.5t-49.5 173t-125.5 62t-125.5 -62t-49.5 -173t49.5 -172.5t125.5 -61.5zM844 373q-143 0 -237 96t-94 263t94 263t237 96t237 -96t94 -263t-94 -263t-237 -96zM359 1467h970q108 0 183.5 -75t75.5 -180v-980q0 -105 -75.5 -180
t-183.5 -75h-970q-107 0 -183 75t-76 180v980q0 105 76 180t183 75zM1441 1197q0 55 -41 94.5t-99 39.5h-914q-57 0 -98.5 -39.5t-41.5 -94.5v-950q0 -55 41.5 -94.5t98.5 -39.5h914q57 0 98.5 39.5t41.5 94.5v950z" />
    <glyph glyph-name="uni1F13F" unicode="P&#x20de;" 
d="M910 1079q114 0 180.5 -66t66.5 -170t-67 -168.5t-182 -64.5h-138v-224h-155v693h295zM1002 843q0 57 -31 87.5t-88 30.5h-117v-234h117q57 0 88 30t31 86zM359 1467h970q108 0 183.5 -75t75.5 -180v-980q0 -105 -75.5 -180t-183.5 -75h-970q-107 0 -183 75t-76 180v980
q0 105 76 180t183 75zM1441 1197q0 55 -41 94.5t-99 39.5h-914q-57 0 -98.5 -39.5t-41.5 -94.5v-950q0 -55 41.5 -94.5t98.5 -39.5h914q57 0 98.5 39.5t41.5 94.5v950z" />
    <glyph glyph-name="uni1F140" unicode="Q&#x20de;" 
d="M1151 320h-151l-48 71q-51 -18 -108 -18q-143 0 -237 96t-94 263t94 263t237 96t237 -96t94 -263q0 -183 -117 -284zM844 498q22 0 42 6l-73 109h120l36 -49q50 61 50 168q0 111 -49.5 173t-125.5 62t-125.5 -62t-49.5 -173t49.5 -172.5t125.5 -61.5zM359 1467h970
q108 0 183.5 -75t75.5 -180v-980q0 -105 -75.5 -180t-183.5 -75h-970q-107 0 -183 75t-76 180v980q0 105 76 180t183 75zM1441 1197q0 55 -41 94.5t-99 39.5h-914q-57 0 -98.5 -39.5t-41.5 -94.5v-950q0 -55 41.5 -94.5t98.5 -39.5h914q57 0 98.5 39.5t41.5 94.5v950z" />
    <glyph glyph-name="uni1F141" unicode="R&#x20de;" 
d="M879 1079q121 0 189.5 -59t68.5 -160q0 -71 -37.5 -122t-96.5 -72l147 -280h-168l-124 255h-124v-255h-148v693h293zM734 749h122q59 0 91.5 27t32.5 77q0 52 -32.5 81t-88.5 29h-125v-214zM359 1467h970q108 0 183.5 -75t75.5 -180v-980q0 -105 -75.5 -180t-183.5 -75
h-970q-107 0 -183 75t-76 180v980q0 105 76 180t183 75zM1441 1197q0 55 -41 94.5t-99 39.5h-914q-57 0 -98.5 -39.5t-41.5 -94.5v-950q0 -55 41.5 -94.5t98.5 -39.5h914q57 0 98.5 39.5t41.5 94.5v950z" />
    <glyph glyph-name="uni1F142" unicode="S&#x20de;" 
d="M557 583h150q5 -43 43 -68.5t99 -25.5q60 0 96 24.5t36 66.5q0 32 -26 52t-87 34l-107 22q-187 40 -187 192q0 95 75.5 153.5t198.5 58.5q118 0 193 -56.5t79 -148.5h-146q-4 42 -38.5 66.5t-88.5 24.5t-87 -24.5t-33 -63.5q0 -59 99 -78l110 -24q100 -21 147.5 -68.5
t47.5 -126.5q0 -101 -78 -160t-212 -59q-128 0 -204.5 56t-79.5 153zM359 1467h970q108 0 183.5 -75t75.5 -180v-980q0 -105 -75.5 -180t-183.5 -75h-970q-107 0 -183 75t-76 180v980q0 105 76 180t183 75zM1441 1197q0 55 -41 94.5t-99 39.5h-914q-57 0 -98.5 -39.5
t-41.5 -94.5v-950q0 -55 41.5 -94.5t98.5 -39.5h914q57 0 98.5 39.5t41.5 94.5v950z" />
    <glyph glyph-name="uni1F143" unicode="T&#x20de;" 
d="M923 382h-158v567h-205v125h568v-125h-205v-567zM359 1467h970q108 0 183.5 -75t75.5 -180v-980q0 -105 -75.5 -180t-183.5 -75h-970q-107 0 -183 75t-76 180v980q0 105 76 180t183 75zM1441 1197q0 55 -41 94.5t-99 39.5h-914q-57 0 -98.5 -39.5t-41.5 -94.5v-950
q0 -55 41.5 -94.5t98.5 -39.5h914q57 0 98.5 39.5t41.5 94.5v950z" />
    <glyph glyph-name="uni1F144" unicode="U&#x20de;" 
d="M844 495q65 0 103 36.5t38 102.5v440h154v-454q0 -112 -81 -181.5t-214 -69.5t-214 69.5t-81 181.5v454h154v-440q0 -66 38 -102.5t103 -36.5zM359 1467h970q108 0 183.5 -75t75.5 -180v-980q0 -105 -75.5 -180t-183.5 -75h-970q-107 0 -183 75t-76 180v980q0 105 76 180
t183 75zM1441 1197q0 55 -41 94.5t-99 39.5h-914q-57 0 -98.5 -39.5t-41.5 -94.5v-950q0 -55 41.5 -94.5t98.5 -39.5h914q57 0 98.5 39.5t41.5 94.5v950z" />
    <glyph glyph-name="uni1F145" unicode="V&#x20de;" 
d="M746 380l-237 693h176l156 -541h6l156 541h175l-236 -693h-196zM359 1467h970q108 0 183.5 -75t75.5 -180v-980q0 -105 -75.5 -180t-183.5 -75h-970q-107 0 -183 75t-76 180v980q0 105 76 180t183 75zM1441 1197q0 55 -41 94.5t-99 39.5h-914q-57 0 -98.5 -39.5
t-41.5 -94.5v-950q0 -55 41.5 -94.5t98.5 -39.5h914q57 0 98.5 39.5t41.5 94.5v950z" />
    <glyph glyph-name="uni1F146" unicode="W&#x20de;" 
d="M842 858l-128 -476h-136l-184 692h156l104 -499h7l121 499h124l121 -499h7l104 499h155l-182 -692h-137l-128 476h-4zM359 1467h970q108 0 183.5 -75t75.5 -180v-980q0 -105 -75.5 -180t-183.5 -75h-970q-107 0 -183 75t-76 180v980q0 105 76 180t183 75zM1441 1197
q0 55 -41 94.5t-99 39.5h-914q-57 0 -98.5 -39.5t-41.5 -94.5v-950q0 -55 41.5 -94.5t98.5 -39.5h914q57 0 98.5 39.5t41.5 94.5v950z" />
    <glyph glyph-name="uni1F147" unicode="X&#x20de;" 
d="M1165 1079l-227 -348l225 -345h-174l-146 244h-7l-148 -244h-169l225 348l-223 345h179l144 -247h7l144 247h170zM359 1467h970q108 0 183.5 -75t75.5 -180v-980q0 -105 -75.5 -180t-183.5 -75h-970q-107 0 -183 75t-76 180v980q0 105 76 180t183 75zM1441 1197
q0 55 -41 94.5t-99 39.5h-914q-57 0 -98.5 -39.5t-41.5 -94.5v-950q0 -55 41.5 -94.5t98.5 -39.5h914q57 0 98.5 39.5t41.5 94.5v950z" />
    <glyph glyph-name="uni1F148" unicode="Y&#x20de;" 
d="M924 382h-159v257l-241 435h172l146 -289h6l147 289h169l-240 -434v-258zM359 1467h970q108 0 183.5 -75t75.5 -180v-980q0 -105 -75.5 -180t-183.5 -75h-970q-107 0 -183 75t-76 180v980q0 105 76 180t183 75zM1441 1197q0 55 -41 94.5t-99 39.5h-914q-57 0 -98.5 -39.5
t-41.5 -94.5v-950q0 -55 41.5 -94.5t98.5 -39.5h914q57 0 98.5 39.5t41.5 94.5v950z" />
    <glyph glyph-name="uni1F149" unicode="Z&#x20de;" 
d="M576 386v98l339 465v7h-332v123h521v-99l-339 -464v-7h349v-123h-538zM359 1467h970q108 0 183.5 -75t75.5 -180v-980q0 -105 -75.5 -180t-183.5 -75h-970q-107 0 -183 75t-76 180v980q0 105 76 180t183 75zM1441 1197q0 55 -41 94.5t-99 39.5h-914q-57 0 -98.5 -39.5
t-41.5 -94.5v-950q0 -55 41.5 -94.5t98.5 -39.5h914q57 0 98.5 39.5t41.5 94.5v950z" />
    <glyph glyph-name="uni1F150" unicode="A&#x20dd;&#x25cf;" 
d="M939 683h-190l93 295h4zM658 375l58 183h256l58 -183h179l-263 762h-204l-263 -762h179zM844 -51q-157 0 -299.5 61.5t-246 165t-165 246t-61.5 299.5t61.5 299.5t165 246t246 165t299.5 61.5t299.5 -61.5t246 -165t165 -246t61.5 -299.5t-61.5 -299.5t-165 -246
t-246 -165t-299.5 -61.5z" />
    <glyph glyph-name="uni1F151" unicode="B&#x20dd;&#x25cf;" 
d="M563 353h343q125 0 201 59t76 157q0 76 -45.5 126t-125.5 62v1q61 17 95.5 61t34.5 106q0 88 -63.5 139t-172.5 51h-343v-762zM733 990h131q50 0 79.5 -24.5t29.5 -67.5q0 -96 -144 -96h-96v188zM733 689h139q63 0 98 -28t35 -80q0 -101 -164 -101h-108v209zM844 -51
q-157 0 -299.5 61.5t-246 165t-165 246t-61.5 299.5t61.5 299.5t165 246t246 165t299.5 61.5t299.5 -61.5t246 -165t165 -246t61.5 -299.5t-61.5 -299.5t-165 -246t-246 -165t-299.5 -61.5z" />
    <glyph glyph-name="uni1F152" unicode="C&#x20dd;&#x25cf;" 
d="M1005 604q-8 -49 -53 -82.5t-106 -33.5q-83 0 -133 66t-50 177t50 177.5t133 66.5q62 0 108.5 -36t54.5 -88h173q-13 124 -104.5 199t-233.5 75q-161 0 -261 -108t-100 -286q0 -177 100 -285t261 -108q138 0 229.5 73t106.5 193h-175zM844 -51q-157 0 -299.5 61.5
t-246 165t-165 246t-61.5 299.5t61.5 299.5t165 246t246 165t299.5 61.5t299.5 -61.5t246 -165t165 -246t61.5 -299.5t-61.5 -299.5t-165 -246t-246 -165t-299.5 -61.5z" />
    <glyph glyph-name="uni1F153" unicode="D&#x20dd;&#x25cf;" 
d="M557 1115v-762h299q174 0 265 97.5t91 284.5t-90.5 283.5t-265.5 96.5h-299zM729 978h103q103 0 151.5 -60t48.5 -185t-48.5 -184t-151.5 -59h-103v488zM844 -51q-157 0 -299.5 61.5t-246 165t-165 246t-61.5 299.5t61.5 299.5t165 246t246 165t299.5 61.5t299.5 -61.5
t246 -165t165 -246t61.5 -299.5t-61.5 -299.5t-165 -246t-246 -165t-299.5 -61.5z" />
    <glyph glyph-name="uni1F154" unicode="E&#x20dd;&#x25cf;" 
d="M1110 489h-352v185h330v127h-330v178h352v136h-525v-762h525v136zM844 -51q-157 0 -299.5 61.5t-246 165t-165 246t-61.5 299.5t61.5 299.5t165 246t246 165t299.5 61.5t299.5 -61.5t246 -165t165 -246t61.5 -299.5t-61.5 -299.5t-165 -246t-246 -165t-299.5 -61.5z" />
    <glyph glyph-name="uni1F155" unicode="F&#x20dd;&#x25cf;" 
d="M789 353v294h312v139h-312v190h341v139h-517v-762h176zM844 -51q-157 0 -299.5 61.5t-246 165t-165 246t-61.5 299.5t61.5 299.5t165 246t246 165t299.5 61.5t299.5 -61.5t246 -165t165 -246t61.5 -299.5t-61.5 -299.5t-165 -246t-246 -165t-299.5 -61.5z" />
    <glyph glyph-name="uni1F156" unicode="G&#x20dd;&#x25cf;" 
d="M1007 618q0 -55 -42 -92.5t-117 -37.5q-84 0 -134.5 65.5t-50.5 177.5t50 177t135 65q65 0 108 -27.5t48 -69.5h177q-16 111 -108.5 180t-226.5 69q-162 0 -263 -109t-101 -285t100 -284t263 -108q150 0 240.5 86.5t90.5 215.5v133h-320v-133h151v-23zM844 -51
q-157 0 -299.5 61.5t-246 165t-165 246t-61.5 299.5t61.5 299.5t165 246t246 165t299.5 61.5t299.5 -61.5t246 -165t165 -246t61.5 -299.5t-61.5 -299.5t-165 -246t-246 -165t-299.5 -61.5z" />
    <glyph glyph-name="uni1F157" unicode="H&#x20dd;&#x25cf;" 
d="M1171 353v762h-171v-303h-311v303h-172v-762h172v315h311v-315h171zM844 -51q-157 0 -299.5 61.5t-246 165t-165 246t-61.5 299.5t61.5 299.5t165 246t246 165t299.5 61.5t299.5 -61.5t246 -165t165 -246t61.5 -299.5t-61.5 -299.5t-165 -246t-246 -165t-299.5 -61.5z
" />
    <glyph glyph-name="uni1F158" unicode="I&#x20dd;&#x25cf;" 
d="M935 353v762h-182v-762h182zM844 -51q-157 0 -299.5 61.5t-246 165t-165 246t-61.5 299.5t61.5 299.5t165 246t246 165t299.5 61.5t299.5 -61.5t246 -165t165 -246t61.5 -299.5t-61.5 -299.5t-165 -246t-246 -165t-299.5 -61.5z" />
    <glyph glyph-name="uni1F159" unicode="J&#x20dd;&#x25cf;" 
d="M538 585q0 -113 74 -181t196 -68q130 0 202 70.5t72 196.5v508h-178v-510q0 -110 -99 -110q-42 0 -67 25.5t-26 68.5h-174zM844 -51q-157 0 -299.5 61.5t-246 165t-165 246t-61.5 299.5t61.5 299.5t165 246t246 165t299.5 61.5t299.5 -61.5t246 -165t165 -246
t61.5 -299.5t-61.5 -299.5t-165 -246t-246 -165t-299.5 -61.5z" />
    <glyph glyph-name="uni1F15A" unicode="K&#x20dd;&#x25cf;" 
d="M1197 1115h-196l-284 -330h-2v330h-170v-762h170v234l74 82l208 -316h209l-287 427zM844 -51q-157 0 -299.5 61.5t-246 165t-165 246t-61.5 299.5t61.5 299.5t165 246t246 165t299.5 61.5t299.5 -61.5t246 -165t165 -246t61.5 -299.5t-61.5 -299.5t-165 -246t-246 -165
t-299.5 -61.5z" />
    <glyph glyph-name="uni1F15B" unicode="L&#x20dd;&#x25cf;" 
d="M1138 504h-331v614h-179v-761h510v147zM844 -51q-157 0 -299.5 61.5t-246 165t-165 246t-61.5 299.5t61.5 299.5t165 246t246 165t299.5 61.5t299.5 -61.5t246 -165t165 -246t61.5 -299.5t-61.5 -299.5t-165 -246t-246 -165t-299.5 -61.5z" />
    <glyph glyph-name="uni1F15C" unicode="M&#x20dd;&#x25cf;" 
d="M606 353v505h2l180 -473h111l180 470h2v-502h150v762h-172l-215 -551h-1l-213 551h-173v-762h149zM844 -51q-157 0 -299.5 61.5t-246 165t-165 246t-61.5 299.5t61.5 299.5t165 246t246 165t299.5 61.5t299.5 -61.5t246 -165t165 -246t61.5 -299.5t-61.5 -299.5
t-165 -246t-246 -165t-299.5 -61.5z" />
    <glyph glyph-name="uni1F15D" unicode="N&#x20dd;&#x25cf;" 
d="M685 353v488h2l337 -488h142v762h-163v-488h-2l-338 488h-141v-762h163zM844 -51q-157 0 -299.5 61.5t-246 165t-165 246t-61.5 299.5t61.5 299.5t165 246t246 165t299.5 61.5t299.5 -61.5t246 -165t165 -246t61.5 -299.5t-61.5 -299.5t-165 -246t-246 -165t-299.5 -61.5
z" />
    <glyph glyph-name="uni1F15E" unicode="O&#x20dd;&#x25cf;" 
d="M844 483q-81 0 -133.5 65.5t-52.5 182.5q0 118 52.5 183.5t133.5 65.5t133.5 -65.5t52.5 -183.5q0 -117 -52.5 -182.5t-133.5 -65.5zM844 338q157 0 260 105t103 288q0 184 -103 289t-260 105t-260 -105t-103 -289q0 -183 103 -288t260 -105zM844 -51q-157 0 -299.5 61.5
t-246 165t-165 246t-61.5 299.5t61.5 299.5t165 246t246 165t299.5 61.5t299.5 -61.5t246 -165t165 -246t61.5 -299.5t-61.5 -299.5t-165 -246t-246 -165t-299.5 -61.5z" />
    <glyph glyph-name="uni1F15F" unicode="P&#x20dd;&#x25cf;" 
d="M908 1115h-325v-762h178v244h145q125 0 201 70.5t76 186.5q0 117 -75.5 189t-199.5 72zM1006 854q0 -59 -33 -91.5t-94 -32.5h-123v249h123q61 0 94 -33t33 -92zM844 -51q-157 0 -299.5 61.5t-246 165t-165 246t-61.5 299.5t61.5 299.5t165 246t246 165t299.5 61.5
t299.5 -61.5t246 -165t165 -246t61.5 -299.5t-61.5 -299.5t-165 -246t-246 -165t-299.5 -61.5z" />
    <glyph glyph-name="uni1F160" unicode="Q&#x20dd;&#x25cf;" 
d="M1188 283l-104 142q123 108 123 306q0 184 -103 289t-260 105t-260 -105t-103 -289q0 -183 103 -288t260 -105q62 0 117 18l49 -73h178zM844 483q-81 0 -133.5 65.5t-52.5 182.5q0 118 52.5 183.5t133.5 65.5t133.5 -65.5t52.5 -183.5q0 -107 -49 -172l-38 51h-142
l81 -122q-20 -5 -38 -5zM844 -51q-157 0 -299.5 61.5t-246 165t-165 246t-61.5 299.5t61.5 299.5t165 246t246 165t299.5 61.5t299.5 -61.5t246 -165t165 -246t61.5 -299.5t-61.5 -299.5t-165 -246t-246 -165t-299.5 -61.5z" />
    <glyph glyph-name="uni1F161" unicode="R&#x20dd;&#x25cf;" 
d="M721 755v225h133q61 0 95 -30t34 -84q0 -53 -34 -82t-97 -29h-131zM876 1115h-323v-762h170v277h128l134 -277h195l-161 305q66 25 104 82t38 132q0 114 -75.5 178.5t-209.5 64.5zM844 -51q-157 0 -299.5 61.5t-246 165t-165 246t-61.5 299.5t61.5 299.5t165 246t246 165
t299.5 61.5t299.5 -61.5t246 -165t165 -246t61.5 -299.5t-61.5 -299.5t-165 -246t-246 -165t-299.5 -61.5z" />
    <glyph glyph-name="uni1F162" unicode="S&#x20dd;&#x25cf;" 
d="M528 576q3 -109 87.5 -172.5t225.5 -63.5q147 0 233.5 65.5t86.5 176.5q0 88 -53.5 141.5t-163.5 76.5l-119 24q-105 21 -105 82q0 42 34.5 67t92.5 25q57 0 93.5 -27t41.5 -72h166q-4 104 -86.5 167.5t-213.5 63.5q-135 0 -218.5 -65t-83.5 -170q0 -83 52.5 -137.5
t153.5 -75.5l117 -26q64 -13 91.5 -33.5t27.5 -54.5q0 -44 -37.5 -69.5t-101.5 -25.5t-105 28.5t-45 74.5h-171zM844 -51q-157 0 -299.5 61.5t-246 165t-165 246t-61.5 299.5t61.5 299.5t165 246t246 165t299.5 61.5t299.5 -61.5t246 -165t165 -246t61.5 -299.5
t-61.5 -299.5t-165 -246t-246 -165t-299.5 -61.5z" />
    <glyph glyph-name="uni1F163" unicode="T&#x20dd;&#x25cf;" 
d="M933 332v617h223v145h-624v-145h223v-617h178zM844 -51q-157 0 -299.5 61.5t-246 165t-165 246t-61.5 299.5t61.5 299.5t165 246t246 165t299.5 61.5t299.5 -61.5t246 -165t165 -246t61.5 -299.5t-61.5 -299.5t-165 -246t-246 -165t-299.5 -61.5z" />
    <glyph glyph-name="uni1F164" unicode="U&#x20dd;&#x25cf;" 
d="M844 465q-70 0 -109 39t-39 107v483h-177v-501q0 -124 88.5 -199t236.5 -75q147 0 236 75.5t89 198.5v501h-176v-483q0 -68 -40 -107t-109 -39zM844 -51q-157 0 -299.5 61.5t-246 165t-165 246t-61.5 299.5t61.5 299.5t165 246t246 165t299.5 61.5t299.5 -61.5t246 -165
t165 -246t61.5 -299.5t-61.5 -299.5t-165 -246t-246 -165t-299.5 -61.5z" />
    <glyph glyph-name="uni1F165" unicode="V&#x20dd;&#x25cf;" 
d="M951 331l261 761h-199l-167 -588h-4l-167 588h-199l261 -761h214zM844 -51q-157 0 -299.5 61.5t-246 165t-165 246t-61.5 299.5t61.5 299.5t165 246t246 165t299.5 61.5t299.5 -61.5t246 -165t165 -246t61.5 -299.5t-61.5 -299.5t-165 -246t-246 -165t-299.5 -61.5z" />
    <glyph glyph-name="uni1F166" unicode="W&#x20dd;&#x25cf;" 
d="M842 845h4l137 -513h157l202 762h-180l-109 -544h-5l-132 544h-144l-132 -544h-5l-109 544h-180l203 -762h156zM844 -51q-157 0 -299.5 61.5t-246 165t-165 246t-61.5 299.5t61.5 299.5t165 246t246 165t299.5 61.5t299.5 -61.5t246 -165t165 -246t61.5 -299.5
t-61.5 -299.5t-165 -246t-246 -165t-299.5 -61.5z" />
    <glyph glyph-name="uni1F167" unicode="X&#x20dd;&#x25cf;" 
d="M1201 1115h-195l-153 -268h-5l-157 268h-205l245 -378l-247 -384h195l158 265h4l159 -265h198l-247 379zM844 -51q-157 0 -299.5 61.5t-246 165t-165 246t-61.5 299.5t61.5 299.5t165 246t246 165t299.5 61.5t299.5 -61.5t246 -165t165 -246t61.5 -299.5t-61.5 -299.5
t-165 -246t-246 -165t-299.5 -61.5z" />
    <glyph glyph-name="uni1F168" unicode="Y&#x20dd;&#x25cf;" 
d="M754 345h181v283l267 478h-197l-159 -314h-4l-159 314h-196l267 -478v-283zM844 -51q-157 0 -299.5 61.5t-246 165t-165 246t-61.5 299.5t61.5 299.5t165 246t246 165t299.5 61.5t299.5 -61.5t246 -165t165 -246t61.5 -299.5t-61.5 -299.5t-165 -246t-246 -165
t-299.5 -61.5z" />
    <glyph glyph-name="uni1F169" unicode="Z&#x20dd;&#x25cf;" 
d="M548 353h594v143h-377v2l366 504v113h-575v-143h359v-2l-367 -504v-113zM844 -51q-157 0 -299.5 61.5t-246 165t-165 246t-61.5 299.5t61.5 299.5t165 246t246 165t299.5 61.5t299.5 -61.5t246 -165t165 -246t61.5 -299.5t-61.5 -299.5t-165 -246t-246 -165t-299.5 -61.5
z" />
    <glyph glyph-name="uni1F170" unicode="A&#x20de;&#x25a0;" 
d="M939 667h-190l93 295h4zM658 359l58 183h256l58 -183h179l-263 761h-204l-263 -761h179zM359 1467h970q108 0 183.5 -75t75.5 -180v-980q0 -105 -75.5 -180t-183.5 -75h-970q-107 0 -183 75t-76 180v980q0 105 76 180t183 75z" />
    <glyph glyph-name="uni1F171" unicode="B&#x20de;&#x25a0;" 
d="M563 353h343q123 0 200 58.5t77 157.5q0 79 -47 127.5t-124 60.5v1q60 16 95 59.5t35 107.5q0 89 -63.5 139.5t-172.5 50.5h-343v-762zM733 990h131q51 0 80 -25t29 -67q0 -96 -144 -96h-96v188zM733 689h139q64 0 98.5 -28.5t34.5 -79.5q0 -101 -164 -101h-108v209z
M359 1467h970q108 0 183.5 -75t75.5 -180v-980q0 -105 -75.5 -180t-183.5 -75h-970q-107 0 -183 75t-76 180v980q0 105 76 180t183 75z" />
    <glyph glyph-name="uni1F172" unicode="C&#x20de;&#x25a0;" 
d="M1005 604q-8 -49 -53 -82.5t-106 -33.5q-83 0 -133 66t-50 177t50 177.5t133 66.5q62 0 108.5 -36t54.5 -88h173q-13 124 -104.5 199t-233.5 75q-161 0 -261 -108t-100 -286q0 -177 100 -285t261 -108q138 0 229.5 73t106.5 193h-175zM359 1467h970q108 0 183.5 -75
t75.5 -180v-980q0 -105 -75.5 -180t-183.5 -75h-970q-107 0 -183 75t-76 180v980q0 105 76 180t183 75z" />
    <glyph glyph-name="uni1F173" unicode="D&#x20de;&#x25a0;" 
d="M538 1115v-762h299q177 0 266.5 98.5t89.5 283.5t-89.5 282.5t-266.5 97.5h-299zM711 978h102q103 0 152 -60.5t49 -184.5t-49 -183.5t-152 -59.5h-102v488zM359 1467h970q108 0 183.5 -75t75.5 -180v-980q0 -105 -75.5 -180t-183.5 -75h-970q-107 0 -183 75t-76 180v980
q0 105 76 180t183 75z" />
    <glyph glyph-name="uni1F174" unicode="E&#x20de;&#x25a0;" 
d="M1110 489h-352v185h330v127h-330v178h352v136h-525v-762h525v136zM359 1467h970q108 0 183.5 -75t75.5 -180v-980q0 -105 -75.5 -180t-183.5 -75h-970q-107 0 -183 75t-76 180v980q0 105 76 180t183 75z" />
    <glyph glyph-name="uni1F175" unicode="F&#x20de;&#x25a0;" 
d="M789 353v294h312v139h-312v190h341v139h-517v-762h176zM359 1467h970q108 0 183.5 -75t75.5 -180v-980q0 -105 -75.5 -180t-183.5 -75h-970q-107 0 -183 75t-76 180v980q0 105 76 180t183 75z" />
    <glyph glyph-name="uni1F176" unicode="G&#x20de;&#x25a0;" 
d="M1007 618q0 -55 -42 -92.5t-117 -37.5q-84 0 -134.5 65.5t-50.5 177.5t50 177t135 65q65 0 108 -27.5t48 -69.5h177q-16 111 -108.5 180t-226.5 69q-162 0 -263 -109t-101 -285t100 -284t263 -108q150 0 240.5 86.5t90.5 215.5v133h-320v-133h151v-23zM359 1467h970
q108 0 183.5 -75t75.5 -180v-980q0 -105 -75.5 -180t-183.5 -75h-970q-107 0 -183 75t-76 180v980q0 105 76 180t183 75z" />
    <glyph glyph-name="uni1F177" unicode="H&#x20de;&#x25a0;" 
d="M1171 353v762h-171v-303h-311v303h-172v-762h172v315h311v-315h171zM359 1467h970q108 0 183.5 -75t75.5 -180v-980q0 -105 -75.5 -180t-183.5 -75h-970q-107 0 -183 75t-76 180v980q0 105 76 180t183 75z" />
    <glyph glyph-name="uni1F178" unicode="I&#x20de;&#x25a0;" 
d="M935 353v762h-182v-762h182zM359 1467h970q108 0 183.5 -75t75.5 -180v-980q0 -105 -75.5 -180t-183.5 -75h-970q-107 0 -183 75t-76 180v980q0 105 76 180t183 75z" />
    <glyph glyph-name="uni1F179" unicode="J&#x20de;&#x25a0;" 
d="M538 585q0 -110 72 -179.5t198 -69.5q129 0 201.5 69.5t72.5 197.5v508h-178v-510q0 -110 -99 -110q-42 0 -67 25.5t-26 68.5h-174zM359 1467h970q108 0 183.5 -75t75.5 -180v-980q0 -105 -75.5 -180t-183.5 -75h-970q-107 0 -183 75t-76 180v980q0 105 76 180t183 75z
" />
    <glyph glyph-name="uni1F17A" unicode="K&#x20de;&#x25a0;" 
d="M1197 1115h-196l-284 -330h-2v330h-170v-762h170v234l74 82l208 -316h209l-287 427zM359 1467h970q108 0 183.5 -75t75.5 -180v-980q0 -105 -75.5 -180t-183.5 -75h-970q-107 0 -183 75t-76 180v980q0 105 76 180t183 75z" />
    <glyph glyph-name="uni1F17B" unicode="L&#x20de;&#x25a0;" 
d="M1146 504h-331v614h-179v-761h510v147zM359 1467h970q108 0 183.5 -75t75.5 -180v-980q0 -105 -75.5 -180t-183.5 -75h-970q-107 0 -183 75t-76 180v980q0 105 76 180t183 75z" />
    <glyph glyph-name="uni1F17C" unicode="M&#x20de;&#x25a0;" 
d="M606 353v505h2l180 -473h111l180 470h2v-502h150v762h-172l-215 -551h-1l-213 551h-173v-762h149zM359 1467h970q108 0 183.5 -75t75.5 -180v-980q0 -105 -75.5 -180t-183.5 -75h-970q-107 0 -183 75t-76 180v980q0 105 76 180t183 75z" />
    <glyph glyph-name="uni1F17D" unicode="N&#x20de;&#x25a0;" 
d="M685 353v488h2l337 -488h142v762h-163v-488h-2l-338 488h-141v-762h163zM359 1467h970q108 0 183.5 -75t75.5 -180v-980q0 -105 -75.5 -180t-183.5 -75h-970q-107 0 -183 75t-76 180v980q0 105 76 180t183 75z" />
    <glyph glyph-name="uni1F17E" unicode="O&#x20de;&#x25a0;" 
d="M844 483q-81 0 -133.5 65.5t-52.5 182.5q0 118 52.5 183.5t133.5 65.5t133.5 -65.5t52.5 -183.5q0 -117 -52.5 -182.5t-133.5 -65.5zM844 338q157 0 260 105t103 288q0 184 -103 289t-260 105t-260 -105t-103 -289q0 -183 103 -288t260 -105zM359 1467h970
q108 0 183.5 -75t75.5 -180v-980q0 -105 -75.5 -180t-183.5 -75h-970q-107 0 -183 75t-76 180v980q0 105 76 180t183 75z" />
    <glyph glyph-name="uni1F17F" unicode="P&#x20de;&#x25a0;" 
d="M908 1115h-325v-762h178v244h145q127 0 202 71.5t75 185.5q0 115 -74.5 188t-200.5 73zM1006 854q0 -59 -33 -91.5t-94 -32.5h-123v249h123q60 0 93.5 -32.5t33.5 -92.5zM359 1467h970q108 0 183.5 -75t75.5 -180v-980q0 -105 -75.5 -180t-183.5 -75h-970q-107 0 -183 75
t-76 180v980q0 105 76 180t183 75z" />
    <glyph glyph-name="uni1F180" unicode="Q&#x20de;&#x25a0;" 
d="M1188 283l-104 142q123 108 123 306q0 184 -103 289t-260 105t-260 -105t-103 -289q0 -183 103 -288t260 -105q62 0 117 18l49 -73h178zM844 483q-81 0 -133.5 65.5t-52.5 182.5q0 118 52.5 183.5t133.5 65.5t133.5 -65.5t52.5 -183.5q0 -107 -49 -172l-38 51h-142
l81 -122q-20 -5 -38 -5zM359 1467h970q108 0 183.5 -75t75.5 -180v-980q0 -105 -75.5 -180t-183.5 -75h-970q-107 0 -183 75t-76 180v980q0 105 76 180t183 75z" />
    <glyph glyph-name="uni1F181" unicode="R&#x20de;&#x25a0;" 
d="M721 755v225h133q60 0 94.5 -29.5t34.5 -84.5q0 -54 -34.5 -82.5t-96.5 -28.5h-131zM876 1115h-323v-762h170v277h128l134 -277h195l-161 305q63 23 102.5 79.5t39.5 134.5q0 113 -75.5 178t-209.5 65zM359 1467h970q108 0 183.5 -75t75.5 -180v-980q0 -105 -75.5 -180
t-183.5 -75h-970q-107 0 -183 75t-76 180v980q0 105 76 180t183 75z" />
    <glyph glyph-name="uni1F182" unicode="S&#x20de;&#x25a0;" 
d="M528 576q3 -109 87.5 -172.5t225.5 -63.5q147 0 233.5 65.5t86.5 176.5q0 88 -53.5 141.5t-163.5 76.5l-119 24q-105 21 -105 82q0 42 34.5 67t92.5 25q57 0 93.5 -27t41.5 -72h166q-4 104 -86.5 167.5t-213.5 63.5q-135 0 -218.5 -65t-83.5 -170q0 -83 52.5 -137.5
t153.5 -75.5l117 -26q64 -13 91.5 -33.5t27.5 -54.5q0 -44 -37.5 -69.5t-101.5 -25.5t-105 28.5t-45 74.5h-171zM359 1467h970q108 0 183.5 -75t75.5 -180v-980q0 -105 -75.5 -180t-183.5 -75h-970q-107 0 -183 75t-76 180v980q0 105 76 180t183 75z" />
    <glyph glyph-name="uni1F183" unicode="T&#x20de;&#x25a0;" 
d="M933 349v616h223v145h-624v-145h223v-616h178zM359 1467h970q108 0 183.5 -75t75.5 -180v-980q0 -105 -75.5 -180t-183.5 -75h-970q-107 0 -183 75t-76 180v980q0 105 76 180t183 75z" />
    <glyph glyph-name="uni1F184" unicode="U&#x20de;&#x25a0;" 
d="M844 482q-70 0 -109 38.5t-39 106.5v483h-177v-501q0 -124 88.5 -199t236.5 -75q147 0 236 75.5t89 198.5v501h-176v-483q0 -68 -40 -106.5t-109 -38.5zM359 1467h970q108 0 183.5 -75t75.5 -180v-980q0 -105 -75.5 -180t-183.5 -75h-970q-107 0 -183 75t-76 180v980
q0 105 76 180t183 75z" />
    <glyph glyph-name="uni1F185" unicode="V&#x20de;&#x25a0;" 
d="M951 347l261 761h-199l-167 -588h-4l-167 588h-199l261 -761h214zM359 1467h970q108 0 183.5 -75t75.5 -180v-980q0 -105 -75.5 -180t-183.5 -75h-970q-107 0 -183 75t-76 180v980q0 105 76 180t183 75z" />
    <glyph glyph-name="uni1F186" unicode="W&#x20de;&#x25a0;" 
d="M842 861h4l137 -512h157l202 761h-180l-109 -543h-5l-132 543h-144l-132 -543h-5l-109 543h-180l203 -761h156zM359 1467h970q108 0 183.5 -75t75.5 -180v-980q0 -105 -75.5 -180t-183.5 -75h-970q-107 0 -183 75t-76 180v980q0 105 76 180t183 75z" />
    <glyph glyph-name="uni1F187" unicode="X&#x20de;&#x25a0;" 
d="M1201 1115h-195l-153 -268h-5l-157 268h-205l245 -378l-247 -384h195l158 265h4l159 -265h198l-247 379zM359 1467h970q108 0 183.5 -75t75.5 -180v-980q0 -105 -75.5 -180t-183.5 -75h-970q-107 0 -183 75t-76 180v980q0 105 76 180t183 75z" />
    <glyph glyph-name="uni1F188" unicode="Y&#x20de;&#x25a0;" 
d="M754 349h181v283l267 478h-197l-159 -314h-4l-159 314h-196l267 -478v-283zM359 1467h970q108 0 183.5 -75t75.5 -180v-980q0 -105 -75.5 -180t-183.5 -75h-970q-107 0 -183 75t-76 180v980q0 105 76 180t183 75z" />
    <glyph glyph-name="uni1F189" unicode="Z&#x20de;&#x25a0;" 
d="M548 353h594v143h-377v2l366 504v113h-575v-143h359v-2l-367 -504v-113zM359 1467h970q108 0 183.5 -75t75.5 -180v-980q0 -105 -75.5 -180t-183.5 -75h-970q-107 0 -183 75t-76 180v980q0 105 76 180t183 75z" />
    <glyph glyph-name="plus.uc.whitecircle" unicode="&#x2b;&#x20dd;" 
d="M910 669v-215h-132v215h-209v124h209v208h132v-208h209v-124h-209zM844 93q128 0 243.5 49.5t197.5 134t130 200t48 243.5t-48 243.5t-130 200t-197.5 134t-243.5 49.5t-243.5 -49.5t-197.5 -134t-130 -200t-48 -243.5t48 -243.5t130 -200t197.5 -134t243.5 -49.5z
M844 -52q-157 0 -300 61t-246.5 164.5t-164.5 247t-61 300.5t61 300t164.5 246.5t246.5 164.5t300 61t300 -61t246.5 -164.5t164.5 -246.5t61 -300q0 -126 -39 -244t-110.5 -213t-166.5 -166.5t-212.5 -110.5t-243.5 -39z" />
    <glyph glyph-name="minus.uc.whitecircle" unicode="&#x2212;&#x20dd;" 
d="M1103 664h-518v128h518v-128zM844 93q128 0 243.5 49.5t197.5 134t130 200t48 243.5t-48 243.5t-130 200t-197.5 134t-243.5 49.5t-243.5 -49.5t-197.5 -134t-130 -200t-48 -243.5t48 -243.5t130 -200t197.5 -134t243.5 -49.5zM844 -52q-157 0 -300 61t-246.5 164.5
t-164.5 247t-61 300.5t61 300t164.5 246.5t246.5 164.5t300 61t300 -61t246.5 -164.5t164.5 -246.5t61 -300q0 -126 -39 -244t-110.5 -213t-166.5 -166.5t-212.5 -110.5t-243.5 -39z" />
    <glyph glyph-name="multiply.uc.whitecircle" unicode="&#xd7;&#x20dd;" 
d="M844 818l161 156l94 -91l-161 -155l161 -156l-94 -90l-161 156l-162 -156l-93 90l162 156l-162 156l93 90zM844 93q128 0 243.5 49.5t197.5 134t130 200t48 243.5t-48 243.5t-130 200t-197.5 134t-243.5 49.5t-243.5 -49.5t-197.5 -134t-130 -200t-48 -243.5t48 -243.5
t130 -200t197.5 -134t243.5 -49.5zM844 -52q-157 0 -300 61t-246.5 164.5t-164.5 247t-61 300.5t61 300t164.5 246.5t246.5 164.5t300 61t300 -61t246.5 -164.5t164.5 -246.5t61 -300q0 -126 -39 -244t-110.5 -213t-166.5 -166.5t-212.5 -110.5t-243.5 -39z" />
    <glyph glyph-name="divide.uc.whitecircle" unicode="&#xf7;&#x20dd;" 
d="M1103 674h-518v106h518v-106zM758 939q0 35 24.5 57.5t60.5 22.5q38 0 63 -22.5t25 -57.5q0 -34 -25 -56t-63 -22q-36 0 -60.5 22t-24.5 56zM758 519q0 35 24.5 57.5t61.5 22.5q38 0 62.5 -22.5t24.5 -57.5q0 -34 -24.5 -56t-62.5 -22q-37 0 -61.5 22t-24.5 56zM844 93
q128 0 243.5 49.5t197.5 134t130 200t48 243.5t-48 243.5t-130 200t-197.5 134t-243.5 49.5t-243.5 -49.5t-197.5 -134t-130 -200t-48 -243.5t48 -243.5t130 -200t197.5 -134t243.5 -49.5zM844 -52q-157 0 -300 61t-246.5 164.5t-164.5 247t-61 300.5t61 300t164.5 246.5
t246.5 164.5t300 61t300 -61t246.5 -164.5t164.5 -246.5t61 -300q0 -126 -39 -244t-110.5 -213t-166.5 -166.5t-212.5 -110.5t-243.5 -39z" />
    <glyph glyph-name="equal.uc.whitecircle" unicode="&#x3d;&#x20dd;" 
d="M1096 550h-504v115h504v-115zM1096 790h-504v115h504v-115zM844 93q128 0 243.5 49.5t197.5 134t130 200t48 243.5t-48 243.5t-130 200t-197.5 134t-243.5 49.5t-243.5 -49.5t-197.5 -134t-130 -200t-48 -243.5t48 -243.5t130 -200t197.5 -134t243.5 -49.5zM844 -52
q-157 0 -300 61t-246.5 164.5t-164.5 247t-61 300.5t61 300t164.5 246.5t246.5 164.5t300 61t300 -61t246.5 -164.5t164.5 -246.5t61 -300q0 -126 -39 -244t-110.5 -213t-166.5 -166.5t-212.5 -110.5t-243.5 -39z" />
    <glyph glyph-name="greater.uc.whitecircle" unicode="&#x3e;&#x20dd;" 
d="M1118 769v-93l-497 -248v143l318 151v6l-318 154v147zM844 93q128 0 243.5 49.5t197.5 134t130 200t48 243.5t-48 243.5t-130 200t-197.5 134t-243.5 49.5t-243.5 -49.5t-197.5 -134t-130 -200t-48 -243.5t48 -243.5t130 -200t197.5 -134t243.5 -49.5zM844 -52
q-157 0 -300 61t-246.5 164.5t-164.5 247t-61 300.5t61 300t164.5 246.5t246.5 164.5t300 61t300 -61t246.5 -164.5t164.5 -246.5t61 -300q0 -126 -39 -244t-110.5 -213t-166.5 -166.5t-212.5 -110.5t-243.5 -39z" />
    <glyph glyph-name="less.uc.whitecircle" unicode="&#x3c;&#x20dd;" 
d="M571 676v93l496 260v-147l-319 -154v-6l319 -151v-143zM844 93q128 0 243.5 49.5t197.5 134t130 200t48 243.5t-48 243.5t-130 200t-197.5 134t-243.5 49.5t-243.5 -49.5t-197.5 -134t-130 -200t-48 -243.5t48 -243.5t130 -200t197.5 -134t243.5 -49.5zM844 -52
q-157 0 -300 61t-246.5 164.5t-164.5 247t-61 300.5t61 300t164.5 246.5t246.5 164.5t300 61t300 -61t246.5 -164.5t164.5 -246.5t61 -300q0 -126 -39 -244t-110.5 -213t-166.5 -166.5t-212.5 -110.5t-243.5 -39z" />
    <glyph glyph-name="numbersign.whitecircle" unicode="&#x30;&#x20dd;" 
d="M1133 794h-107l-26 -124h104l-22 -105h-104l-38 -183h-113l39 183h-118l-38 -183h-113l39 183h-102l21 105h102l27 124h-100l21 104h101l36 177h112l-36 -177h116l37 177h112l-36 -177h107zM790 800l-31 -144h135l30 144h-134zM844 93q128 0 243.5 49.5t197.5 134
t130 200t48 243.5t-48 243.5t-130 200t-197.5 134t-243.5 49.5t-243.5 -49.5t-197.5 -134t-130 -200t-48 -243.5t48 -243.5t130 -200t197.5 -134t243.5 -49.5zM844 -52q-157 0 -300 61t-246.5 164.5t-164.5 247t-61 300.5t61 300t164.5 246.5t246.5 164.5t300 61t300 -61
t246.5 -164.5t164.5 -246.5t61 -300q0 -126 -39 -244t-110.5 -213t-166.5 -166.5t-212.5 -110.5t-243.5 -39z" />
    <glyph glyph-name="uni25BC.whitecircle" unicode="&#x25bc;&#x20dd;" 
d="M1163 946l-319 -552l-318 552h637zM844 93q128 0 243.5 49.5t197.5 134t130 200t48 243.5t-48 243.5t-130 200t-197.5 134t-243.5 49.5t-243.5 -49.5t-197.5 -134t-130 -200t-48 -243.5t48 -243.5t130 -200t197.5 -134t243.5 -49.5zM844 -52q-157 0 -300 61t-246.5 164.5
t-164.5 247t-61 300.5t61 300t164.5 246.5t246.5 164.5t300 61t300 -61t246.5 -164.5t164.5 -246.5t61 -300q0 -126 -39 -244t-110.5 -213t-166.5 -166.5t-212.5 -110.5t-243.5 -39z" />
    <glyph glyph-name="uni25B2.whitecircle" unicode="&#x25b2;&#x20dd;" 
d="M1163 510h-637l318 552zM844 93q128 0 243.5 49.5t197.5 134t130 200t48 243.5t-48 243.5t-130 200t-197.5 134t-243.5 49.5t-243.5 -49.5t-197.5 -134t-130 -200t-48 -243.5t48 -243.5t130 -200t197.5 -134t243.5 -49.5zM844 -52q-157 0 -300 61t-246.5 164.5
t-164.5 247t-61 300.5t61 300t164.5 246.5t246.5 164.5t300 61t300 -61t246.5 -164.5t164.5 -246.5t61 -300q0 -126 -39 -244t-110.5 -213t-166.5 -166.5t-212.5 -110.5t-243.5 -39z" />
    <glyph glyph-name="uni25C0.whitecircle" unicode="&#x25c0;&#x20dd;" 
d="M1061 410l-552 319l552 318v-637zM844 93q128 0 243.5 49.5t197.5 134t130 200t48 243.5t-48 243.5t-130 200t-197.5 134t-243.5 49.5t-243.5 -49.5t-197.5 -134t-130 -200t-48 -243.5t48 -243.5t130 -200t197.5 -134t243.5 -49.5zM844 -52q-157 0 -300 61t-246.5 164.5
t-164.5 247t-61 300.5t61 300t164.5 246.5t246.5 164.5t300 61t300 -61t246.5 -164.5t164.5 -246.5t61 -300q0 -126 -39 -244t-110.5 -213t-166.5 -166.5t-212.5 -110.5t-243.5 -39z" />
    <glyph glyph-name="uni25B6.whitecircle" unicode="&#x25b6;&#x20dd;" 
d="M627 410v637l552 -318zM844 93q128 0 243.5 49.5t197.5 134t130 200t48 243.5t-48 243.5t-130 200t-197.5 134t-243.5 49.5t-243.5 -49.5t-197.5 -134t-130 -200t-48 -243.5t48 -243.5t130 -200t197.5 -134t243.5 -49.5zM844 -52q-157 0 -300 61t-246.5 164.5t-164.5 247
t-61 300.5t61 300t164.5 246.5t246.5 164.5t300 61t300 -61t246.5 -164.5t164.5 -246.5t61 -300q0 -126 -39 -244t-110.5 -213t-166.5 -166.5t-212.5 -110.5t-243.5 -39z" />
    <glyph glyph-name="question.whitecircle" unicode="&#x3f;&#x20dd;" 
d="M734 456q0 37 27 59.5t71 22.5q45 0 72 -22.5t27 -59.5q0 -36 -27 -58t-72 -22q-43 0 -70.5 22.5t-27.5 57.5zM759 606l-1 16v16q-4 92 93 158q45 31 63.5 51t18.5 51q0 39 -26.5 59.5t-65.5 20.5q-45 0 -70.5 -26.5t-25.5 -67.5h-139q-2 105 68 156.5t176 51.5
q102 0 169 -49.5t67 -138.5q0 -57 -26.5 -93t-76.5 -70q-41 -29 -55 -40.5t-24 -29t-10 -43.5v-22h-135zM844 93q128 0 243.5 49.5t197.5 134t130 200t48 243.5t-48 243.5t-130 200t-197.5 134t-243.5 49.5t-243.5 -49.5t-197.5 -134t-130 -200t-48 -243.5t48 -243.5
t130 -200t197.5 -134t243.5 -49.5zM844 -52q-157 0 -300 61t-246.5 164.5t-164.5 247t-61 300.5t61 300t164.5 246.5t246.5 164.5t300 61t300 -61t246.5 -164.5t164.5 -246.5t61 -300q0 -126 -39 -244t-110.5 -213t-166.5 -166.5t-212.5 -110.5t-243.5 -39z" />
    <glyph glyph-name="exclam.whitecircle" unicode="&#x21;&#x20dd;" 
d="M747 456q0 37 27 60t71 23q45 0 71.5 -22.5t26.5 -60.5q0 -36 -26.5 -58t-71.5 -22q-44 0 -71 22.5t-27 57.5zM762 1079h167l-18 -455h-131zM844 93q128 0 243.5 49.5t197.5 134t130 200t48 243.5t-48 243.5t-130 200t-197.5 134t-243.5 49.5t-243.5 -49.5t-197.5 -134
t-130 -200t-48 -243.5t48 -243.5t130 -200t197.5 -134t243.5 -49.5zM844 -52q-157 0 -300 61t-246.5 164.5t-164.5 247t-61 300.5t61 300t164.5 246.5t246.5 164.5t300 61t300 -61t246.5 -164.5t164.5 -246.5t61 -300q0 -126 -39 -244t-110.5 -213t-166.5 -166.5
t-212.5 -110.5t-243.5 -39z" />
    <glyph glyph-name="uni2717.whitecircle" unicode="&#x2717;&#x20dd;" 
d="M848 819l247 246l95 -94l-246 -247l246 -247l-95 -96l-247 246l-248 -247l-95 96l246 248l-247 248l95 95zM844 93q128 0 243.5 49.5t197.5 134t130 200t48 243.5t-48 243.5t-130 200t-197.5 134t-243.5 49.5t-243.5 -49.5t-197.5 -134t-130 -200t-48 -243.5t48 -243.5
t130 -200t197.5 -134t243.5 -49.5zM844 -52q-157 0 -300 61t-246.5 164.5t-164.5 247t-61 300.5t61 300t164.5 246.5t246.5 164.5t300 61t300 -61t246.5 -164.5t164.5 -246.5t61 -300q0 -126 -39 -244t-110.5 -213t-166.5 -166.5t-212.5 -110.5t-243.5 -39z" />
    <glyph glyph-name="uni2713.whitecircle" unicode="&#x2713;&#x20dd;" 
d="M1269 936l-545 -540l-296 292l101 100l195 -194l445 444zM844 93q128 0 243.5 49.5t197.5 134t130 200t48 243.5t-48 243.5t-130 200t-197.5 134t-243.5 49.5t-243.5 -49.5t-197.5 -134t-130 -200t-48 -243.5t48 -243.5t130 -200t197.5 -134t243.5 -49.5zM844 -52
q-157 0 -300 61t-246.5 164.5t-164.5 247t-61 300.5t61 300t164.5 246.5t246.5 164.5t300 61t300 -61t246.5 -164.5t164.5 -246.5t61 -300q0 -126 -39 -244t-110.5 -213t-166.5 -166.5t-212.5 -110.5t-243.5 -39z" />
    <glyph glyph-name="zero.whitesquare" unicode="&#x30;&#x20de;" 
d="M844 500q60 0 94.5 60t34.5 172t-34.5 172t-94.5 60t-94.5 -60t-34.5 -172t34.5 -172t94.5 -60zM843 374q-124 0 -200 95.5t-76 262.5q0 168 76 263.5t200 95.5q125 0 201.5 -95.5t76.5 -263.5q0 -167 -76.5 -262.5t-201.5 -95.5zM359 1467h970q108 0 183.5 -75
t75.5 -180v-980q0 -105 -75.5 -180t-183.5 -75h-970q-107 0 -183 75t-76 180v980q0 105 76 180t183 75zM1441 1197q0 55 -41 94.5t-99 39.5h-914q-57 0 -98.5 -39.5t-41.5 -94.5v-950q0 -55 41.5 -94.5t98.5 -39.5h914q57 0 98.5 39.5t41.5 94.5v950z" />
    <glyph glyph-name="one.whitesquare" unicode="&#x31;&#x20de;" 
d="M964 386h-155v552h-7l-164 -112v136l171 117h155v-693zM359 1467h970q108 0 183.5 -75t75.5 -180v-980q0 -105 -75.5 -180t-183.5 -75h-970q-107 0 -183 75t-76 180v980q0 105 76 180t183 75zM1441 1197q0 55 -41 94.5t-99 39.5h-914q-57 0 -98.5 -39.5t-41.5 -94.5v-950
q0 -55 41.5 -94.5t98.5 -39.5h914q57 0 98.5 39.5t41.5 94.5v950z" />
    <glyph glyph-name="two.whitesquare" unicode="&#x32;&#x20de;" 
d="M738 867h-146v5q0 92 67 155.5t186 63.5q111 0 180 -55.5t69 -141.5q0 -60 -31 -106.5t-97 -111.5l-155 -162v-6h296v-122h-508v93l262 265q26 27 40.5 44t27 42.5t12.5 50.5q0 39 -28.5 64.5t-71.5 25.5q-48 0 -75.5 -28.5t-27.5 -70.5v-5zM359 1467h970
q108 0 183.5 -75t75.5 -180v-980q0 -105 -75.5 -180t-183.5 -75h-970q-107 0 -183 75t-76 180v980q0 105 76 180t183 75zM1441 1197q0 55 -41 94.5t-99 39.5h-914q-57 0 -98.5 -39.5t-41.5 -94.5v-950q0 -55 41.5 -94.5t98.5 -39.5h914q57 0 98.5 39.5t41.5 94.5v950z" />
    <glyph glyph-name="three.whitesquare" unicode="&#x33;&#x20de;" 
d="M766 684v115h74q46 0 76 25.5t30 65.5q-1 39 -30.5 63t-75.5 24q-47 0 -77 -24.5t-32 -59.5h-144q3 88 70.5 142.5t185.5 55.5q114 0 183 -50.5t71 -130.5q1 -63 -42 -106t-92 -51v-7q59 -6 106.5 -49t48.5 -117q1 -94 -77.5 -150t-200.5 -56q-120 0 -191.5 56.5
t-73.5 142.5h142q3 -37 37 -60.5t86 -24.5q56 0 90.5 28t34.5 71q-1 43 -34 70t-88 27h-77zM359 1467h970q108 0 183.5 -75t75.5 -180v-980q0 -105 -75.5 -180t-183.5 -75h-970q-107 0 -183 75t-76 180v980q0 105 76 180t183 75zM1441 1197q0 55 -41 94.5t-99 39.5h-914
q-57 0 -98.5 -39.5t-41.5 -94.5v-950q0 -55 41.5 -94.5t98.5 -39.5h914q57 0 98.5 39.5t41.5 94.5v950z" />
    <glyph glyph-name="four.whitesquare" unicode="&#x34;&#x20de;" 
d="M817 1079h218v-448h93v-119h-93v-126h-139v126h-350v120l66 115l64 105.5l72.5 116.5zM686 631h210v341h-6q-113 -171 -204 -338v-3zM359 1467h970q108 0 183.5 -75t75.5 -180v-980q0 -105 -75.5 -180t-183.5 -75h-970q-107 0 -183 75t-76 180v980q0 105 76 180t183 75z
M1441 1197q0 55 -41 94.5t-99 39.5h-914q-57 0 -98.5 -39.5t-41.5 -94.5v-950q0 -55 41.5 -94.5t98.5 -39.5h914q57 0 98.5 39.5t41.5 94.5v950z" />
    <glyph glyph-name="five.whitesquare" unicode="&#x35;&#x20de;" 
d="M588 572h144q8 -39 42 -59.5t79 -20.5q50 0 86.5 34.5t36.5 91.5q0 53 -36 85.5t-88 32.5q-41 0 -70.5 -18.5t-41.5 -42.5h-137l30 406h451v-117h-329l-16 -179h8q15 23 54.5 42t93.5 19q99 0 165 -60.5t66 -163.5q0 -111 -76 -179t-201 -68q-113 0 -185 55.5t-76 141.5z
M359 1467h970q108 0 183.5 -75t75.5 -180v-980q0 -105 -75.5 -180t-183.5 -75h-970q-107 0 -183 75t-76 180v980q0 105 76 180t183 75zM1441 1197q0 55 -41 94.5t-99 39.5h-914q-57 0 -98.5 -39.5t-41.5 -94.5v-950q0 -55 41.5 -94.5t98.5 -39.5h914q57 0 98.5 39.5
t41.5 94.5v950z" />
    <glyph glyph-name="six.whitesquare" unicode="&#x36;&#x20de;" 
d="M1111 915h-146q-8 25 -34.5 43t-68.5 18q-68 0 -107 -63.5t-36 -171.5h7q18 41 62.5 68.5t110.5 27.5q94 0 160 -58.5t66 -161.5q0 -113 -74.5 -178.5t-195.5 -65.5q-158 0 -232 116q-54 86 -54 229q0 184 78.5 278t215.5 94q108 0 175 -52.5t73 -122.5zM733 612
q0 -56 34.5 -89.5t87.5 -33.5q54 0 88 32t34 90q0 56 -35.5 87.5t-86.5 31.5q-53 0 -87.5 -33t-34.5 -85zM359 1467h970q108 0 183.5 -75t75.5 -180v-980q0 -105 -75.5 -180t-183.5 -75h-970q-107 0 -183 75t-76 180v980q0 105 76 180t183 75zM1441 1197q0 55 -41 94.5
t-99 39.5h-914q-57 0 -98.5 -39.5t-41.5 -94.5v-950q0 -55 41.5 -94.5t98.5 -39.5h914q57 0 98.5 39.5t41.5 94.5v950z" />
    <glyph glyph-name="seven.whitesquare" unicode="&#x37;&#x20de;" 
d="M596 1079h509v-124l-288 -569h-164l295 564v7h-352v122zM359 1467h970q108 0 183.5 -75t75.5 -180v-980q0 -105 -75.5 -180t-183.5 -75h-970q-107 0 -183 75t-76 180v980q0 105 76 180t183 75zM1441 1197q0 55 -41 94.5t-99 39.5h-914q-57 0 -98.5 -39.5t-41.5 -94.5
v-950q0 -55 41.5 -94.5t98.5 -39.5h914q57 0 98.5 39.5t41.5 94.5v950z" />
    <glyph glyph-name="eight.whitesquare" unicode="&#x38;&#x20de;" 
d="M844 480q56 0 92.5 30.5t36.5 77.5q0 48 -36 78.5t-93 30.5t-93.5 -31t-36.5 -78t36.5 -77.5t93.5 -30.5zM844 796q47 0 77.5 27t30.5 68t-30.5 67t-77.5 26t-77.5 -26t-30.5 -67t30.5 -68t77.5 -27zM842 373q-128 0 -206 56t-78 149q0 65 42 111.5t111 58.5v7
q-59 18 -91.5 57.5t-32.5 94.5q0 82 71.5 133t185.5 51t185.5 -51t71.5 -133q0 -55 -33 -95.5t-91 -56.5v-7q69 -12 111 -58.5t42 -111.5q0 -92 -79.5 -148.5t-208.5 -56.5zM359 1467h970q108 0 183.5 -75t75.5 -180v-980q0 -105 -75.5 -180t-183.5 -75h-970q-107 0 -183 75
t-76 180v980q0 105 76 180t183 75zM1441 1197q0 55 -41 94.5t-99 39.5h-914q-57 0 -98.5 -39.5t-41.5 -94.5v-950q0 -55 41.5 -94.5t98.5 -39.5h914q57 0 98.5 39.5t41.5 94.5v950z" />
    <glyph glyph-name="nine.whitesquare" unicode="&#x39;&#x20de;" 
d="M563 852q0 109 76.5 174t195.5 65q127 0 205.5 -82.5t78.5 -265.5q0 -181 -74.5 -275t-220.5 -94q-107 0 -172 50t-71 120h146q6 -23 33 -39t66 -16q77 0 114 65.5t31 167.5h-6q-18 -42 -62 -69.5t-108 -27.5q-100 0 -166 61t-66 166zM954 852q0 57 -34 90.5t-88 33.5
q-52 0 -86 -33t-34 -89q0 -57 34.5 -89t87.5 -32q51 0 85.5 31.5t34.5 87.5zM359 1467h970q108 0 183.5 -75t75.5 -180v-980q0 -105 -75.5 -180t-183.5 -75h-970q-107 0 -183 75t-76 180v980q0 105 76 180t183 75zM1441 1197q0 55 -41 94.5t-99 39.5h-914q-57 0 -98.5 -39.5
t-41.5 -94.5v-950q0 -55 41.5 -94.5t98.5 -39.5h914q57 0 98.5 39.5t41.5 94.5v950z" />
    <glyph glyph-name="plus.uc.whitesquare" unicode="&#x2b;&#x20de;" 
d="M910 669v-215h-132v215h-209v124h209v208h132v-208h209v-124h-209zM359 1467h970q108 0 183.5 -75t75.5 -180v-980q0 -105 -75.5 -180t-183.5 -75h-970q-107 0 -183 75t-76 180v980q0 105 76 180t183 75zM1441 1197q0 55 -41 94.5t-99 39.5h-914q-57 0 -98.5 -39.5
t-41.5 -94.5v-950q0 -55 41.5 -94.5t98.5 -39.5h914q57 0 98.5 39.5t41.5 94.5v950z" />
    <glyph glyph-name="minus.uc.whitesquare" unicode="&#x2212;&#x20de;" 
d="M1103 664h-518v128h518v-128zM359 1467h970q108 0 183.5 -75t75.5 -180v-980q0 -105 -75.5 -180t-183.5 -75h-970q-107 0 -183 75t-76 180v980q0 105 76 180t183 75zM1441 1197q0 55 -41 94.5t-99 39.5h-914q-57 0 -98.5 -39.5t-41.5 -94.5v-950q0 -55 41.5 -94.5
t98.5 -39.5h914q57 0 98.5 39.5t41.5 94.5v950z" />
    <glyph glyph-name="multiply.uc.whitesquare" unicode="&#xd7;&#x20de;" 
d="M844 818l162 156l93 -90l-162 -156l162 -156l-93 -90l-162 156l-162 -156l-93 90l161 156l-161 156l93 90zM359 1467h970q108 0 183.5 -75t75.5 -180v-980q0 -105 -75.5 -180t-183.5 -75h-970q-107 0 -183 75t-76 180v980q0 105 76 180t183 75zM1441 1197q0 55 -41 94.5
t-99 39.5h-914q-57 0 -98.5 -39.5t-41.5 -94.5v-950q0 -55 41.5 -94.5t98.5 -39.5h914q57 0 98.5 39.5t41.5 94.5v950z" />
    <glyph glyph-name="divide.uc.whitesquare" unicode="&#xf7;&#x20de;" 
d="M1103 674h-518v106h518v-106zM758 939q0 35 24.5 57.5t60.5 22.5q38 0 63 -22.5t25 -57.5q0 -34 -25 -56t-63 -22q-36 0 -60.5 22t-24.5 56zM758 519q0 35 24.5 57.5t61.5 22.5q38 0 62.5 -22.5t24.5 -57.5q0 -34 -24.5 -56t-62.5 -22q-37 0 -61.5 22t-24.5 56zM359 1467
h970q108 0 183.5 -75t75.5 -180v-980q0 -105 -75.5 -180t-183.5 -75h-970q-107 0 -183 75t-76 180v980q0 105 76 180t183 75zM1441 1197q0 55 -41 94.5t-99 39.5h-914q-57 0 -98.5 -39.5t-41.5 -94.5v-950q0 -55 41.5 -94.5t98.5 -39.5h914q57 0 98.5 39.5t41.5 94.5v950z
" />
    <glyph glyph-name="equal.uc.whitesquare" unicode="&#x3d;&#x20de;" 
d="M1096 550h-504v115h504v-115zM1096 790h-504v115h504v-115zM359 1467h970q108 0 183.5 -75t75.5 -180v-980q0 -105 -75.5 -180t-183.5 -75h-970q-107 0 -183 75t-76 180v980q0 105 76 180t183 75zM1441 1197q0 55 -41 94.5t-99 39.5h-914q-57 0 -98.5 -39.5t-41.5 -94.5
v-950q0 -55 41.5 -94.5t98.5 -39.5h914q57 0 98.5 39.5t41.5 94.5v950z" />
    <glyph glyph-name="greater.uc.whitesquare" unicode="&#x3e;&#x20de;" 
d="M1118 769v-93l-497 -248v143l318 151v6l-318 154v147zM359 1467h970q108 0 183.5 -75t75.5 -180v-980q0 -105 -75.5 -180t-183.5 -75h-970q-107 0 -183 75t-76 180v980q0 105 76 180t183 75zM1441 1197q0 55 -41 94.5t-99 39.5h-914q-57 0 -98.5 -39.5t-41.5 -94.5v-950
q0 -55 41.5 -94.5t98.5 -39.5h914q57 0 98.5 39.5t41.5 94.5v950z" />
    <glyph glyph-name="less.uc.whitesquare" unicode="&#x3c;&#x20de;" 
d="M571 676v93l496 260v-147l-319 -154v-6l319 -151v-143zM359 1467h970q108 0 183.5 -75t75.5 -180v-980q0 -105 -75.5 -180t-183.5 -75h-970q-107 0 -183 75t-76 180v980q0 105 76 180t183 75zM1441 1197q0 55 -41 94.5t-99 39.5h-914q-57 0 -98.5 -39.5t-41.5 -94.5v-950
q0 -55 41.5 -94.5t98.5 -39.5h914q57 0 98.5 39.5t41.5 94.5v950z" />
    <glyph glyph-name="numbersign.whitesquare" unicode="&#x23;&#x20de;" 
d="M1133 794h-107l-26 -124h104l-22 -105h-104l-38 -183h-113l39 183h-118l-38 -183h-113l39 183h-102l21 105h102l27 124h-100l21 104h101l36 177h112l-36 -177h116l37 177h112l-36 -177h107zM790 800l-31 -144h135l30 144h-134zM359 1467h970q108 0 183.5 -75t75.5 -180
v-980q0 -105 -75.5 -180t-183.5 -75h-970q-107 0 -183 75t-76 180v980q0 105 76 180t183 75zM1441 1197q0 55 -41 94.5t-99 39.5h-914q-57 0 -98.5 -39.5t-41.5 -94.5v-950q0 -55 41.5 -94.5t98.5 -39.5h914q57 0 98.5 39.5t41.5 94.5v950z" />
    <glyph glyph-name="uni25BC.whitesquare" unicode="&#x25bc;&#x20de;" 
d="M1164 946l-319 -552l-319 552h638zM359 1467h970q108 0 183.5 -75t75.5 -180v-980q0 -105 -75.5 -180t-183.5 -75h-970q-107 0 -183 75t-76 180v980q0 105 76 180t183 75zM1441 1197q0 55 -41 94.5t-99 39.5h-914q-57 0 -98.5 -39.5t-41.5 -94.5v-950q0 -55 41.5 -94.5
t98.5 -39.5h914q57 0 98.5 39.5t41.5 94.5v950z" />
    <glyph glyph-name="uni25B2.whitesquare" unicode="&#x25b2;&#x20de;" 
d="M1163 510h-637l318 552zM359 1467h970q108 0 183.5 -75t75.5 -180v-980q0 -105 -75.5 -180t-183.5 -75h-970q-107 0 -183 75t-76 180v980q0 105 76 180t183 75zM1441 1197q0 55 -41 94.5t-99 39.5h-914q-57 0 -98.5 -39.5t-41.5 -94.5v-950q0 -55 41.5 -94.5t98.5 -39.5
h914q57 0 98.5 39.5t41.5 94.5v950z" />
    <glyph glyph-name="uni25C0.whitesquare" unicode="&#x25c0;&#x20de;" 
d="M1061 410l-552 319l552 318v-637zM359 1467h970q108 0 183.5 -75t75.5 -180v-980q0 -105 -75.5 -180t-183.5 -75h-970q-107 0 -183 75t-76 180v980q0 105 76 180t183 75zM1441 1197q0 55 -41 94.5t-99 39.5h-914q-57 0 -98.5 -39.5t-41.5 -94.5v-950q0 -55 41.5 -94.5
t98.5 -39.5h914q57 0 98.5 39.5t41.5 94.5v950z" />
    <glyph glyph-name="uni25B6.whitesquare" unicode="&#x25b6;&#x20de;" 
d="M627 410v637l552 -318zM359 1467h970q108 0 183.5 -75t75.5 -180v-980q0 -105 -75.5 -180t-183.5 -75h-970q-107 0 -183 75t-76 180v980q0 105 76 180t183 75zM1441 1197q0 55 -41 94.5t-99 39.5h-914q-57 0 -98.5 -39.5t-41.5 -94.5v-950q0 -55 41.5 -94.5t98.5 -39.5
h914q57 0 98.5 39.5t41.5 94.5v950z" />
    <glyph glyph-name="question.whitesquare" unicode="&#x3f;&#x20de;" 
d="M734 456q0 37 27 59.5t71 22.5q45 0 72 -22.5t27 -59.5q0 -36 -27 -58t-72 -22q-43 0 -70.5 22.5t-27.5 57.5zM606 884q-2 105 68 156.5t176 51.5q102 0 169 -49.5t67 -138.5q0 -57 -26.5 -93t-76.5 -70q-41 -29 -55 -40.5t-24 -29t-10 -43.5v-22h-135l-1 16v16
q-4 92 93 158q45 31 63.5 51t18.5 51q0 39 -26.5 59.5t-65.5 20.5q-45 0 -70.5 -26.5t-25.5 -67.5h-139zM359 1467h970q108 0 183.5 -75t75.5 -180v-980q0 -105 -75.5 -180t-183.5 -75h-970q-107 0 -183 75t-76 180v980q0 105 76 180t183 75zM1441 1197q0 55 -41 94.5
t-99 39.5h-914q-57 0 -98.5 -39.5t-41.5 -94.5v-950q0 -55 41.5 -94.5t98.5 -39.5h914q57 0 98.5 39.5t41.5 94.5v950z" />
    <glyph glyph-name="exclam.whitesquare" unicode="&#x21;&#x20de;" 
d="M747 456q0 37 27 60t71 23q45 0 71.5 -22.5t26.5 -60.5q0 -36 -26.5 -58t-71.5 -22q-44 0 -71 22.5t-27 57.5zM762 1079h167l-18 -455h-131zM359 1467h970q108 0 183.5 -75t75.5 -180v-980q0 -105 -75.5 -180t-183.5 -75h-970q-107 0 -183 75t-76 180v980q0 105 76 180
t183 75zM1441 1197q0 55 -41 94.5t-99 39.5h-914q-57 0 -98.5 -39.5t-41.5 -94.5v-950q0 -55 41.5 -94.5t98.5 -39.5h914q57 0 98.5 39.5t41.5 94.5v950z" />
    <glyph glyph-name="uni2717.whitesquare" unicode="&#x2717;&#x20de;" 
d="M848 819l247 246l95 -94l-246 -247l246 -247l-95 -96l-247 246l-248 -247l-95 96l246 248l-247 248l95 95zM359 1467h970q108 0 183.5 -75t75.5 -180v-980q0 -105 -75.5 -180t-183.5 -75h-970q-107 0 -183 75t-76 180v980q0 105 76 180t183 75zM1441 1197q0 55 -41 94.5
t-99 39.5h-914q-57 0 -98.5 -39.5t-41.5 -94.5v-950q0 -55 41.5 -94.5t98.5 -39.5h914q57 0 98.5 39.5t41.5 94.5v950z" />
    <glyph glyph-name="uni2713.whitesquare" unicode="&#x2713;&#x20de;" 
d="M1269 936l-545 -540l-296 292l101 100l195 -194l445 444zM359 1467h970q108 0 183.5 -75t75.5 -180v-980q0 -105 -75.5 -180t-183.5 -75h-970q-107 0 -183 75t-76 180v980q0 105 76 180t183 75zM1441 1197q0 55 -41 94.5t-99 39.5h-914q-57 0 -98.5 -39.5t-41.5 -94.5
v-950q0 -55 41.5 -94.5t98.5 -39.5h914q57 0 98.5 39.5t41.5 94.5v950z" />
    <glyph glyph-name="plus.uc.blackcircle" unicode="&#x2b;&#x20dd;&#x25cf;" 
d="M920 660h228v143h-228v227h-152v-227h-228v-143h228v-233h152v233zM844 -51q-157 0 -299.5 61.5t-246 165t-165 246t-61.5 299.5t61.5 299.5t165 246t246 165t299.5 61.5t299.5 -61.5t246 -165t165 -246t61.5 -299.5t-61.5 -299.5t-165 -246t-246 -165t-299.5 -61.5z" />
    <glyph glyph-name="minus.uc.blackcircle" unicode="&#x2212;&#x20dd;&#x25cf;" 
d="M1130 654v148h-572v-148h572zM844 -51q-157 0 -299.5 61.5t-246 165t-165 246t-61.5 299.5t61.5 299.5t165 246t246 165t299.5 61.5t299.5 -61.5t246 -165t165 -246t61.5 -299.5t-61.5 -299.5t-165 -246t-246 -165t-299.5 -61.5z" />
    <glyph glyph-name="multiply.uc.blackcircle" unicode="&#xd7;&#x20dd;&#x25cf;" 
d="M844 832l-176 170l-107 -104l176 -170l-176 -169l107 -104l176 169l176 -169l107 104l-176 169l176 170l-107 104zM844 -51q-157 0 -299.5 61.5t-246 165t-165 246t-61.5 299.5t61.5 299.5t165 246t246 165t299.5 61.5t299.5 -61.5t246 -165t165 -246t61.5 -299.5
t-61.5 -299.5t-165 -246t-246 -165t-299.5 -61.5z" />
    <glyph glyph-name="divide.uc.blackcircle" unicode="&#xf7;&#x20dd;&#x25cf;" 
d="M746 957q0 -38 28 -63.5t69 -25.5q42 0 71 25.5t29 63.5q0 40 -29 66t-71 26q-41 0 -69 -26t-28 -66zM1130 665v124h-572v-124h572zM746 502q0 -39 28 -64t70 -25t70.5 25t28.5 64t-28.5 65t-70.5 26t-70 -26t-28 -65zM844 -51q-157 0 -299.5 61.5t-246 165t-165 246
t-61.5 299.5t61.5 299.5t165 246t246 165t299.5 61.5t299.5 -61.5t246 -165t165 -246t61.5 -299.5t-61.5 -299.5t-165 -246t-246 -165t-299.5 -61.5z" />
    <glyph glyph-name="equal.uc.blackcircle" unicode="&#x3d;&#x20dd;&#x25cf;" 
d="M1121 792v133h-554v-133h554zM1121 530v133h-554v-133h554zM844 -51q-157 0 -299.5 61.5t-246 165t-165 246t-61.5 299.5t61.5 299.5t165 246t246 165t299.5 61.5t299.5 -61.5t246 -165t165 -246t61.5 -299.5t-61.5 -299.5t-165 -246t-246 -165t-299.5 -61.5z" />
    <glyph glyph-name="greater.uc.blackcircle" unicode="&#x3e;&#x20dd;&#x25cf;" 
d="M1139 774l-547 288v-165l346 -172l1 -2l-347 -166v-162l547 274v105zM844 -51q-157 0 -299.5 61.5t-246 165t-165 246t-61.5 299.5t61.5 299.5t165 246t246 165t299.5 61.5t299.5 -61.5t246 -165t165 -246t61.5 -299.5t-61.5 -299.5t-165 -246t-246 -165t-299.5 -61.5z
" />
    <glyph glyph-name="less.uc.blackcircle" unicode="&#x3c;&#x20dd;&#x25cf;" 
d="M543 669l546 -274v162l-345 166v2l345 172v165l-546 -288v-105zM844 -51q-157 0 -299.5 61.5t-246 165t-165 246t-61.5 299.5t61.5 299.5t165 246t246 165t299.5 61.5t299.5 -61.5t246 -165t165 -246t61.5 -299.5t-61.5 -299.5t-165 -246t-246 -165t-299.5 -61.5z" />
    <glyph glyph-name="numbersign.blackcircle" unicode="&#x23;&#x20dd;&#x25cf;" 
d="M785 805h143l-32 -152h-142zM1161 796l25 122h-117l39 191h-132l-38 -191h-118l40 191h-132l-38 -191h-111l-24 -122h109l-27 -125h-111l-25 -124h110l-41 -198h131l43 198h117l-42 -198h132l41 198h114l25 124h-112q0 2 12 62.5t13 62.5h117zM844 -51
q-157 0 -299.5 61.5t-246 165t-165 246t-61.5 299.5t61.5 299.5t165 246t246 165t299.5 61.5t299.5 -61.5t246 -165t165 -246t61.5 -299.5t-61.5 -299.5t-165 -246t-246 -165t-299.5 -61.5z" />
    <glyph glyph-name="uni25BC.blackcircle" unicode="&#x25bc;&#x20dd;&#x25cf;" 
d="M1191 980h-693l346 -600zM844 -51q-157 0 -299.5 61.5t-246 165t-165 246t-61.5 299.5t61.5 299.5t165 246t246 165t299.5 61.5t299.5 -61.5t246 -165t165 -246t61.5 -299.5t-61.5 -299.5t-165 -246t-246 -165t-299.5 -61.5z" />
    <glyph glyph-name="uni25B2.blackcircle" unicode="&#x25b2;&#x20dd;&#x25cf;" 
d="M1191 491l-347 600l-346 -600h693zM844 -51q-157 0 -299.5 61.5t-246 165t-165 246t-61.5 299.5t61.5 299.5t165 246t246 165t299.5 61.5t299.5 -61.5t246 -165t165 -246t61.5 -299.5t-61.5 -299.5t-165 -246t-246 -165t-299.5 -61.5z" />
    <glyph glyph-name="uni25C0.blackcircle" unicode="&#x25c0;&#x20dd;&#x25cf;" 
d="M1085 390v692l-601 -346zM844 -51q-157 0 -299.5 61.5t-246 165t-165 246t-61.5 299.5t61.5 299.5t165 246t246 165t299.5 61.5t299.5 -61.5t246 -165t165 -246t61.5 -299.5t-61.5 -299.5t-165 -246t-246 -165t-299.5 -61.5z" />
    <glyph glyph-name="uni25B6.blackcircle" unicode="&#x25b6;&#x20dd;&#x25cf;" 
d="M602 390l602 346l-602 346v-692zM844 -51q-157 0 -299.5 61.5t-246 165t-165 246t-61.5 299.5t61.5 299.5t165 246t246 165t299.5 61.5t299.5 -61.5t246 -165t165 -246t61.5 -299.5t-61.5 -299.5t-165 -246t-246 -165t-299.5 -61.5z" />
    <glyph glyph-name="question.blackcircle" unicode="&#x3f;&#x20dd;&#x25cf;" 
d="M716 429q0 -41 30.5 -66.5t80.5 -25.5q51 0 81.5 25.5t30.5 66.5q0 43 -30.5 68.5t-81.5 25.5q-50 0 -80.5 -25.5t-30.5 -68.5zM743 591h156v27q0 39 16.5 59t72.5 58q61 42 90 80.5t29 104.5q0 98 -74.5 153t-186.5 55q-116 0 -193 -57t-77 -174v-4l161 1q0 45 26.5 74
t73.5 29q42 0 69.5 -21t27.5 -63q0 -15 -4.5 -27.5t-15.5 -25t-20 -20t-28 -21.5t-29 -22q-100 -72 -95 -167q0 -2 0.5 -20t0.5 -19zM844 -51q-157 0 -299.5 61.5t-246 165t-165 246t-61.5 299.5t61.5 299.5t165 246t246 165t299.5 61.5t299.5 -61.5t246 -165t165 -246
t61.5 -299.5t-61.5 -299.5t-165 -246t-246 -165t-299.5 -61.5z" />
    <glyph glyph-name="exclam.blackcircle" unicode="&#x21;&#x20dd;&#x25cf;" 
d="M749 1114l19 -504h153l20 504h-192zM734 430q0 -41 30.5 -66.5t80.5 -25.5t80.5 25.5t30.5 66.5q0 42 -30.5 67.5t-80.5 25.5t-80.5 -25.5t-30.5 -67.5zM844 -51q-157 0 -299.5 61.5t-246 165t-165 246t-61.5 299.5t61.5 299.5t165 246t246 165t299.5 61.5t299.5 -61.5
t246 -165t165 -246t61.5 -299.5t-61.5 -299.5t-165 -246t-246 -165t-299.5 -61.5z" />
    <glyph glyph-name="uni2717.blackcircle" unicode="&#x2717;&#x20dd;&#x25cf;" 
d="M847 829l-271 272l-105 -104l270 -272l-270 -270l106 -106l270 270l270 -270l105 106l-270 270l270 269l-105 105zM844 -51q-157 0 -299.5 61.5t-246 165t-165 246t-61.5 299.5t61.5 299.5t165 246t246 165t299.5 61.5t299.5 -61.5t246 -165t165 -246t61.5 -299.5
t-61.5 -299.5t-165 -246t-246 -165t-299.5 -61.5z" />
    <glyph glyph-name="uni2713.blackcircle" unicode="&#x2713;&#x20dd;&#x25cf;" horiz-adv-x="1702" 
d="M711 371l597 593l-110 112l-487 -486l-213 212l-112 -110zM844 -51q-157 0 -299.5 61.5t-246 165t-165 246t-61.5 299.5t61.5 299.5t165 246t246 165t299.5 61.5t299.5 -61.5t246 -165t165 -246t61.5 -299.5t-61.5 -299.5t-165 -246t-246 -165t-299.5 -61.5z" />
    <glyph glyph-name="zero.blacksquare" unicode="&#x30;&#x20de;&#x25a0;" 
d="M841 476q-64 0 -98.5 65.5t-34.5 190.5q0 126 34.5 191.5t98.5 65.5t98 -65.5t34 -191.5q0 -125 -34.5 -190.5t-97.5 -65.5zM840 338q141 0 225 105.5t84 288.5t-84 289t-225 106t-224.5 -106t-83.5 -289t83.5 -288.5t224.5 -105.5zM359 1467h970q108 0 183.5 -75
t75.5 -180v-980q0 -105 -75.5 -180t-183.5 -75h-970q-107 0 -183 75t-76 180v980q0 105 76 180t183 75z" />
    <glyph glyph-name="one.blacksquare" unicode="&#x31;&#x20de;&#x25a0;" 
d="M978 352v761h-174l-188 -128v-160l183 125h2v-598h177zM359 1467h970q108 0 183.5 -75t75.5 -180v-980q0 -105 -75.5 -180t-183.5 -75h-970q-107 0 -183 75t-76 180v980q0 105 76 180t183 75z" />
    <glyph glyph-name="two.blacksquare" unicode="&#x32;&#x20de;&#x25a0;" 
d="M727 874v9q0 46 29 77t80 31q46 0 76 -27t30 -68q0 -40 -22.5 -74.5t-67.5 -78.5l-283 -284v-108h560v141h-325v1l180 185q66 66 98 116t32 115q0 94 -76 155.5t-196 61.5q-132 0 -206.5 -71t-74.5 -172v-9h166zM359 1467h970q108 0 183.5 -75t75.5 -180v-980
q0 -105 -75.5 -180t-183.5 -75h-970q-107 0 -183 75t-76 180v980q0 105 76 180t183 75z" />
    <glyph glyph-name="three.blacksquare" unicode="&#x33;&#x20de;&#x25a0;" 
d="M751 678h89q57 0 92 -28.5t36 -74.5q0 -46 -36 -75t-96 -29q-54 1 -90 27t-41 66h-162q3 -98 82 -162t211 -64q133 0 220 62.5t86 167.5q-2 80 -52.5 128t-113.5 55v2q53 10 98 57t44 116q-2 89 -78 145t-200 56q-132 -1 -206 -62.5t-78 -161.5h165q2 39 33.5 65.5
t81.5 26.5q48 0 79 -26t32 -66q0 -42 -31 -68.5t-81 -26.5h-84v-130zM359 1467h970q108 0 183.5 -75t75.5 -180v-980q0 -105 -75.5 -180t-183.5 -75h-970q-107 0 -183 75t-76 180v980q0 105 76 180t183 75z" />
    <glyph glyph-name="four.blacksquare" unicode="&#x34;&#x20de;&#x25a0;" 
d="M808 1113q-218 -347 -295 -489v-135h379v-137h161v137h101v137h-101v487h-245zM673 626v1q74 134 218 357h1v-358h-219zM359 1467h970q108 0 183.5 -75t75.5 -180v-980q0 -105 -75.5 -180t-183.5 -75h-970q-107 0 -183 75t-76 180v980q0 105 76 180t183 75z" />
    <glyph glyph-name="five.blacksquare" unicode="&#x35;&#x20de;&#x25a0;" 
d="M557 562q4 -97 83 -159t204 -62q138 0 221.5 74.5t83.5 198.5q0 114 -73 180.5t-183 66.5q-57 0 -99.5 -19.5t-60.5 -45.5h-2q12 159 15 186h358v133h-498l-33 -449h152q15 28 47 48.5t76 20.5q56 0 94 -35t38 -92q0 -61 -39 -97.5t-92 -36.5q-49 0 -85.5 23t-44.5 65
h-162zM359 1467h970q108 0 183.5 -75t75.5 -180v-980q0 -105 -75.5 -180t-183.5 -75h-970q-107 0 -183 75t-76 180v980q0 105 76 180t183 75z" />
    <glyph glyph-name="six.blacksquare" unicode="&#x36;&#x20de;&#x25a0;" 
d="M1149 608q0 113 -72 177t-176 64q-74 0 -123 -29.5t-72 -74.5l-3 -2q-1 2 -1 7q-1 112 41.5 177.5t114.5 65.5q45 0 73 -19t38 -47h164q-6 79 -80 139.5t-193 60.5q-151 0 -237.5 -105t-86.5 -306q0 -159 61 -251q85 -127 255 -127q132 0 214.5 72.5t82.5 197.5zM721 602
q0 56 36.5 91.5t95.5 35.5q54 0 92 -34t38 -94q0 -63 -36.5 -96.5t-93.5 -33.5t-94.5 35t-37.5 96zM359 1467h970q108 0 183.5 -75t75.5 -180v-980q0 -105 -75.5 -180t-183.5 -75h-970q-107 0 -183 75t-76 180v980q0 105 76 180t183 75z" />
    <glyph glyph-name="seven.blacksquare" unicode="&#x37;&#x20de;&#x25a0;" 
d="M566 1113v-142h382v-1l-324 -618h188l314 622v139h-560zM359 1467h970q108 0 183.5 -75t75.5 -180v-980q0 -105 -75.5 -180t-183.5 -75h-970q-107 0 -183 75t-76 180v980q0 105 76 180t183 75z" />
    <glyph glyph-name="eight.blacksquare" unicode="&#x38;&#x20de;&#x25a0;" 
d="M841 804q-51 0 -82.5 28t-31.5 72q0 45 31.5 73t82.5 28q50 0 82 -28t32 -73q0 -44 -32 -72t-82 -28zM841 460q-61 0 -100.5 33t-39.5 83t39.5 83t100.5 33t100 -33t39 -83t-39 -83t-100 -33zM841 338q142 0 228 62t86 165q0 71 -44.5 121t-120.5 65v1q64 21 98.5 65
t34.5 105q0 92 -78 148.5t-204 56.5q-127 0 -204.5 -56.5t-77.5 -148.5q0 -61 34 -105t98 -65v-1q-76 -15 -120 -65t-44 -121q0 -103 86 -165t228 -62zM359 1467h970q108 0 183.5 -75t75.5 -180v-980q0 -105 -75.5 -180t-183.5 -75h-970q-107 0 -183 75t-76 180v980
q0 105 76 180t183 75z" />
    <glyph glyph-name="nine.blacksquare" unicode="&#x39;&#x20de;&#x25a0;" 
d="M530 862q0 -116 72.5 -183t182.5 -67q70 0 118.5 29t70.5 74h2q4 -108 -35.5 -175.5t-120.5 -67.5q-40 0 -68.5 17.5t-37.5 41.5h-165q8 -80 79.5 -136t190.5 -56q159 0 241.5 103t82.5 299q0 105 -25 182t-69 120.5t-98.5 64t-120.5 20.5q-132 0 -216 -72t-84 -194z
M957 862q0 -60 -37.5 -94t-92.5 -34t-92.5 34.5t-37.5 95.5q0 60 37 96t92 36q58 0 94.5 -36t36.5 -98zM359 1467h970q108 0 183.5 -75t75.5 -180v-980q0 -105 -75.5 -180t-183.5 -75h-970q-107 0 -183 75t-76 180v980q0 105 76 180t183 75z" />
    <glyph glyph-name="plus.uc.blacksquare" unicode="&#x2b;&#x20de;&#x25a0;" 
d="M920 660h228v143h-228v227h-152v-227h-228v-143h228v-233h152v233zM359 1467h970q108 0 183.5 -75t75.5 -180v-980q0 -105 -75.5 -180t-183.5 -75h-970q-107 0 -183 75t-76 180v980q0 105 76 180t183 75z" />
    <glyph glyph-name="minus.uc.blacksquare" unicode="&#x2212;&#x20de;&#x25a0;" 
d="M1130 654v148h-572v-148h572zM359 1467h970q108 0 183.5 -75t75.5 -180v-980q0 -105 -75.5 -180t-183.5 -75h-970q-107 0 -183 75t-76 180v980q0 105 76 180t183 75z" />
    <glyph glyph-name="multiply.uc.blacksquare" unicode="&#xd7;&#x20de;&#x25a0;" 
d="M844 832l-176 170l-107 -104l176 -170l-176 -169l107 -104l176 169l176 -169l107 104l-176 169l176 170l-107 104zM359 1467h970q108 0 183.5 -75t75.5 -180v-980q0 -105 -75.5 -180t-183.5 -75h-970q-107 0 -183 75t-76 180v980q0 105 76 180t183 75z" />
    <glyph glyph-name="divide.uc.blacksquare" unicode="&#xf7;&#x20de;&#x25a0;" 
d="M746 957q0 -38 28 -63.5t69 -25.5q42 0 71 25.5t29 63.5q0 40 -29 66t-71 26q-41 0 -69 -26t-28 -66zM1130 665v124h-572v-124h572zM746 502q0 -39 28 -64t70 -25t70.5 25t28.5 64t-28.5 65t-70.5 26t-70 -26t-28 -65zM359 1467h970q108 0 183.5 -75t75.5 -180v-980
q0 -105 -75.5 -180t-183.5 -75h-970q-107 0 -183 75t-76 180v980q0 105 76 180t183 75z" />
    <glyph glyph-name="equal.uc.blacksquare" unicode="&#x3d;&#x20de;&#x25a0;" 
d="M1121 792v133h-554v-133h554zM1121 530v133h-554v-133h554zM359 1467h970q108 0 183.5 -75t75.5 -180v-980q0 -105 -75.5 -180t-183.5 -75h-970q-107 0 -183 75t-76 180v980q0 105 76 180t183 75z" />
    <glyph glyph-name="greater.uc.blacksquare" unicode="&#x3e;&#x20de;&#x25a0;" 
d="M1139 774l-547 288v-165l346 -172l1 -2l-347 -166v-162l547 274v105zM359 1467h970q108 0 183.5 -75t75.5 -180v-980q0 -105 -75.5 -180t-183.5 -75h-970q-107 0 -183 75t-76 180v980q0 105 76 180t183 75z" />
    <glyph glyph-name="less.uc.blacksquare" unicode="&#x3c;&#x20de;&#x25a0;" 
d="M543 669l546 -274v162l-345 166v2l345 172v165l-546 -288v-105zM359 1467h970q108 0 183.5 -75t75.5 -180v-980q0 -105 -75.5 -180t-183.5 -75h-970q-107 0 -183 75t-76 180v980q0 105 76 180t183 75z" />
    <glyph glyph-name="numbersign.blacksquare" unicode="&#x23;&#x20de;&#x25a0;" 
d="M785 805h143l-32 -152h-142zM1161 796l25 122h-117l39 191h-132l-38 -191h-118l40 191h-132l-38 -191h-111l-24 -122h109l-27 -125h-111l-25 -124h110l-41 -198h131l43 198h117l-42 -198h132l41 198h114l25 124h-112q0 2 12 62.5t13 62.5h117zM359 1467h970
q108 0 183.5 -75t75.5 -180v-980q0 -105 -75.5 -180t-183.5 -75h-970q-107 0 -183 75t-76 180v980q0 105 76 180t183 75z" />
    <glyph glyph-name="uni25BC.blacksquare" unicode="&#x25bc;&#x20de;&#x25a0;" 
d="M1191 976h-693l346 -601zM359 1467h970q108 0 183.5 -75t75.5 -180v-980q0 -105 -75.5 -180t-183.5 -75h-970q-107 0 -183 75t-76 180v980q0 105 76 180t183 75z" />
    <glyph glyph-name="uni25B2.blacksquare" unicode="&#x25b2;&#x20de;&#x25a0;" 
d="M1191 491l-347 600l-346 -600h693zM359 1467h970q108 0 183.5 -75t75.5 -180v-980q0 -105 -75.5 -180t-183.5 -75h-970q-107 0 -183 75t-76 180v980q0 105 76 180t183 75z" />
    <glyph glyph-name="uni25C0.blacksquare" unicode="&#x25c0;&#x20de;&#x25a0;" 
d="M1085 390v692l-601 -346zM359 1467h970q108 0 183.5 -75t75.5 -180v-980q0 -105 -75.5 -180t-183.5 -75h-970q-107 0 -183 75t-76 180v980q0 105 76 180t183 75z" />
    <glyph glyph-name="uni25B6.blacksquare" unicode="&#x25b6;&#x20de;&#x25a0;" 
d="M602 390l602 346l-602 346v-692zM359 1467h970q108 0 183.5 -75t75.5 -180v-980q0 -105 -75.5 -180t-183.5 -75h-970q-107 0 -183 75t-76 180v980q0 105 76 180t183 75z" />
    <glyph glyph-name="question.blacksquare" unicode="&#x3f;&#x20de;&#x25a0;" 
d="M716 429q0 -41 30.5 -66.5t80.5 -25.5q51 0 81.5 25.5t30.5 66.5q0 43 -30.5 68.5t-81.5 25.5q-50 0 -80.5 -25.5t-30.5 -68.5zM846 1128q-116 0 -193 -57t-77 -174v-4l161 1q0 45 26.5 74t73.5 29q42 0 69.5 -21t27.5 -63q0 -15 -4.5 -27.5t-15.5 -25t-20 -20t-28 -21.5
t-29 -22q-100 -72 -95 -167q0 -2 0.5 -20t0.5 -19h156v27q0 39 16.5 59t72.5 58q61 42 90 80.5t29 104.5q0 98 -74.5 153t-186.5 55zM359 1467h970q108 0 183.5 -75t75.5 -180v-980q0 -105 -75.5 -180t-183.5 -75h-970q-107 0 -183 75t-76 180v980q0 105 76 180t183 75z" />
    <glyph glyph-name="exclam.blacksquare" unicode="&#x21;&#x20de;&#x25a0;" 
d="M749 1114l19 -504h153l20 504h-192zM734 430q0 -41 30.5 -66.5t80.5 -25.5t80.5 25.5t30.5 66.5q0 42 -30.5 67.5t-80.5 25.5t-80.5 -25.5t-30.5 -67.5zM359 1467h970q108 0 183.5 -75t75.5 -180v-980q0 -105 -75.5 -180t-183.5 -75h-970q-107 0 -183 75t-76 180v980
q0 105 76 180t183 75z" />
    <glyph glyph-name="uni2717.blacksquare" unicode="&#x2717;&#x20de;&#x25a0;" 
d="M471 997l270 -272l-270 -270l106 -106l270 270l270 -270l105 106l-270 270l270 269l-105 105l-270 -270l-271 272zM359 1467h970q108 0 183.5 -75t75.5 -180v-980q0 -105 -75.5 -180t-183.5 -75h-970q-107 0 -183 75t-76 180v980q0 105 76 180t183 75z" />
    <glyph glyph-name="uni2713.blacksquare" unicode="&#x2713;&#x20de;&#x25a0;" 
d="M711 371l597 593l-110 112l-487 -486l-213 212l-112 -110zM359 1467h970q108 0 183.5 -75t75.5 -180v-980q0 -105 -75.5 -180t-183.5 -75h-970q-107 0 -183 75t-76 180v980q0 105 76 180t183 75z" />
    <glyph glyph-name=".notdef" horiz-adv-x="2048" 
d="M100 -494v256h1848v-256h-1848zM100 -56v256h1848v-256h-1848zM100 381v256h1848v-256h-1848zM100 819v256h1848v-256h-1848zM100 1256v256h1848v-256h-1848zM100 1694v256h1848v-256h-1848z" />
    <glyph glyph-name=".null" horiz-adv-x="0" 
 />
    <glyph glyph-name="nonmarkingreturn" horiz-adv-x="0" 
 />
    <glyph glyph-name="space" unicode=" " horiz-adv-x="415" 
 />
    <glyph glyph-name="exclam" unicode="!" horiz-adv-x="583" 
d="M180 1443h223l-16 -965h-191zM291 -15q-55 0 -93 37t-38 92t38 92t93 37q56 0 94 -37t38 -92t-38 -92t-94 -37z" />
    <glyph glyph-name="quotedbl" unicode="&#x22;" horiz-adv-x="851" 
d="M318 915h-193v528h193v-528zM725 915h-192v528h192v-528z" />
    <glyph glyph-name="numbersign" unicode="#" horiz-adv-x="1257" 
d="M625 0l80 395h-303l-80 -395h-170l79 395h-231l33 169h233l66 331h-241l34 168h241l79 380h170l-76 -380h302l78 380h171l-77 -380h244l-32 -168h-247l-68 -331h254l-32 -169h-255l-80 -395h-172zM429 556h314l71 346h-315z" />
    <glyph glyph-name="dollar" unicode="$" horiz-adv-x="1270" 
d="M707 -137h-137v132q-214 14 -341 123.5t-128 282.5h212q8 -92 76 -152t181 -73v473l-89 23q-168 42 -257.5 140.5t-89.5 243.5q0 171 116 278.5t320 126.5v139h137v-139q195 -16 313.5 -125.5t123.5 -275.5h-209q-3 85 -66 145.5t-162 73.5v-447l93 -21
q187 -47 278 -143.5t91 -251.5q0 -182 -121 -292t-341 -128v-133zM957 396q0 89 -60.5 144.5t-189.5 82.5v-450q119 7 184.5 65.5t65.5 157.5zM348 1071q0 -81 57 -134t165 -76v418q-96 -5 -159 -63.5t-63 -144.5z" />
    <glyph glyph-name="percent" unicode="%" horiz-adv-x="1560" 
d="M673 1100q0 -166 -85 -265t-227 -99q-143 0 -228 99t-85 265t85 265t228 99q142 0 227 -99t85 -265zM361 877q59 0 94 60t35 164q0 103 -35 163t-94 60q-60 0 -95 -60t-35 -163q0 -104 35 -164t95 -60zM352 0h-198l558 763l497 680h197l-543 -744zM1512 347
q0 -166 -84.5 -265t-227.5 -99t-227.5 99t-84.5 265q0 167 84.5 266t227.5 99t227.5 -99t84.5 -266zM1200 125q60 0 94.5 59.5t34.5 163.5t-34.5 163.5t-94.5 59.5t-94.5 -59.5t-34.5 -163.5t34.5 -163.5t94.5 -59.5z" />
    <glyph glyph-name="ampersand" unicode="&#x26;" horiz-adv-x="1394" 
d="M1149 0l-125 136q-88 -77 -207.5 -119t-248.5 -42q-220 0 -355.5 112.5t-135.5 294.5q0 125 68 221.5t209 172.5l23.5 12.5l23.5 12t12 5.5q-98 103 -138.5 179t-40.5 155q0 140 108.5 232.5t271.5 92.5q166 0 272 -91t106 -234q0 -110 -71.5 -198t-231.5 -173l328 -353
q62 115 62 343v55h194v-61q0 -301 -120 -480l259 -273h-263zM477 659q-100 -62 -144 -123t-44 -138q0 -112 83 -181t217 -69q90 0 175 33t137 88l-379 414q-18 -9 -45 -24zM579 882q118 61 168 117.5t50 129.5q0 78 -50.5 127t-131.5 49q-79 0 -130.5 -50t-51.5 -127
q0 -56 33 -111t113 -135z" />
    <glyph glyph-name="quotesingle" unicode="'" horiz-adv-x="443" 
d="M318 915h-193v528h193v-528z" />
    <glyph glyph-name="parenleft" unicode="(" horiz-adv-x="704" 
d="M187 567q0 263 71 478t218 398h190q-109 -127 -183 -378t-74 -497t74.5 -497.5t182.5 -378.5h-190q-289 359 -289 875z" />
    <glyph glyph-name="parenright" unicode=")" horiz-adv-x="704" 
d="M517 567q0 -157 -23.5 -293t-67 -242.5t-90.5 -185t-108 -154.5h-190q41 47 83 127t82.5 190.5t66 258t25.5 300.5t-25.5 300.5t-66 258t-83 190t-82.5 126.5h190q61 -75 108 -153.5t90.5 -185t67 -243t23.5 -294.5z" />
    <glyph glyph-name="asterisk" unicode="*" horiz-adv-x="990" 
d="M795 868l-239 156l15 -285h-149l16 285l-241 -157l-72 135l252 123l-251 124l72 132l239 -153l-14 282h149l-15 -282l238 154l74 -133l-254 -125l254 -123z" />
    <glyph glyph-name="plus" unicode="+" horiz-adv-x="1270" 
d="M734 475v-451h-198v451h-420v195h420v442h198v-442h420v-195h-420z" />
    <glyph glyph-name="comma" unicode="," horiz-adv-x="538" 
d="M260 -297h-172l90 528h218z" />
    <glyph glyph-name="hyphen" unicode="&#x2011;" horiz-adv-x="888" 
d="M772 488h-656v195h656v-195z" />
    <glyph glyph-name="hyphen" unicode="-" horiz-adv-x="888" 
d="M772 488h-656v195h656v-195z" />
    <glyph glyph-name="period" unicode="." horiz-adv-x="538" 
d="M269 -11q-55 0 -93 38t-38 93t38 93t93 38t93 -38t38 -93t-38 -93t-93 -38z" />
    <glyph glyph-name="slash" unicode="/" horiz-adv-x="704" 
d="M192 -308h-192l512 1751h192z" />
    <glyph glyph-name="zero" unicode="0" horiz-adv-x="1275" 
d="M638 -27q-258 0 -404.5 201.5t-146.5 548.5q0 344 147 545.5t404 201.5t403 -200.5t146 -545.5q0 -347 -145.5 -549t-403.5 -202zM638 161q154 0 238.5 149.5t84.5 412.5q0 260 -85.5 409.5t-237.5 149.5t-238 -150t-86 -409q0 -263 85 -412.5t239 -149.5z" />
    <glyph glyph-name="one" unicode="1" horiz-adv-x="935" 
d="M477 0v1221h-5l-377 -268v220l380 270h221v-1443h-219z" />
    <glyph glyph-name="two" unicode="2" horiz-adv-x="1186" 
d="M100 1020q0 195 140.5 322.5t355.5 127.5q206 0 343 -116t137 -288q0 -121 -67 -229.5t-234 -279.5l-361 -363v-5h685v-189h-987v152l521 531q132 138 177 212.5t45 159.5q0 96 -77 163t-189 67q-118 0 -197.5 -75.5t-79.5 -188.5v-3h-212v2z" />
    <glyph glyph-name="three" unicode="3" horiz-adv-x="1240" 
d="M426 653v176h174q116 0 189.5 66t73.5 168q0 103 -68.5 163t-194.5 60q-117 0 -190 -62.5t-83 -169.5h-211q13 190 146.5 303t347.5 113q206 0 339 -105.5t133 -271.5q0 -134 -81 -225.5t-216 -115.5v-4q164 -11 260.5 -105t96.5 -245q0 -187 -151 -306t-379 -119
q-231 0 -372.5 115.5t-152.5 304.5h215q11 -105 93.5 -169t216.5 -64q132 0 217 67.5t85 173.5q0 117 -82.5 184.5t-225.5 67.5h-180z" />
    <glyph glyph-name="four" unicode="4" horiz-adv-x="1271" 
d="M798 0v285h-722v196q174 328 613 962h324v-970h198v-188h-198v-285h-215zM285 475v-5h515v800h-4q-358 -517 -511 -795z" />
    <glyph glyph-name="five" unicode="5" horiz-adv-x="1228" 
d="M629 -27q-216 0 -359 119.5t-153 308.5h214q12 -107 95.5 -174t204.5 -67q136 0 222 86t86 222t-85.5 223.5t-220.5 87.5q-94 0 -170.5 -40.5t-118.5 -111.5h-205l76 816h859v-189h-679l-40 -443h5q48 69 132.5 107.5t189.5 38.5q208 0 342 -136.5t134 -346.5
q0 -222 -147.5 -361.5t-381.5 -139.5z" />
    <glyph glyph-name="six" unicode="6" horiz-adv-x="1259" 
d="M655 -28q-160 0 -283.5 79t-194.5 225q-89 173 -89 426q0 362 153 565.5t424 203.5q191 0 327.5 -105t169.5 -278h-224q-26 89 -101 142t-174 53q-171 0 -265 -148.5t-95 -420.5h4q48 106 155 170t241 64q206 0 342.5 -136t136.5 -341q0 -217 -149 -358t-378 -141z
M653 161q128 0 217 88t89 215q0 131 -85.5 216t-218.5 85q-132 0 -219.5 -84.5t-87.5 -212.5q0 -129 88 -218t217 -89z" />
    <glyph glyph-name="seven" unicode="7" horiz-adv-x="1139" 
d="M192 0l641 1249v5h-761v189h982v-194l-627 -1249h-235z" />
    <glyph glyph-name="eight" unicode="8" horiz-adv-x="1266" 
d="M633 -27q-241 0 -393.5 117t-152.5 300q0 137 88.5 239t232.5 132v5q-120 33 -191.5 120.5t-71.5 203.5q0 164 138 272t350 108q213 0 350 -107.5t137 -273.5q0 -114 -71 -201t-191 -122v-5q144 -30 232.5 -132t88.5 -239q0 -184 -153 -300.5t-393 -116.5zM633 153
q138 0 226 71.5t88 181.5q0 112 -88 183.5t-226 71.5t-226.5 -72t-88.5 -183q0 -110 88.5 -181.5t226.5 -71.5zM633 841q116 0 191 63.5t75 161.5q0 99 -74.5 162.5t-191.5 63.5t-191.5 -63.5t-74.5 -162.5t74.5 -162t191.5 -63z" />
    <glyph glyph-name="nine" unicode="9" horiz-adv-x="1260" 
d="M596 -27q-192 0 -329.5 105.5t-169.5 277.5h225q26 -89 101.5 -143t175.5 -54q169 0 263 150t94 422h-2h-1h-1q-44 -107 -151 -171.5t-245 -64.5q-206 0 -342.5 136t-136.5 341q0 217 149 358t378 141q160 0 284.5 -78.5t194.5 -224.5q89 -173 89 -426
q0 -362 -152.5 -565.5t-423.5 -203.5zM604 678q133 0 221 84.5t88 212.5t-88.5 216.5t-217.5 88.5t-218 -87.5t-89 -213.5q0 -130 86.5 -215.5t217.5 -85.5z" />
    <glyph glyph-name="colon" unicode=":" horiz-adv-x="538" 
d="M269 -11q-55 0 -93 38t-38 93t38 93t93 38t93 -38t38 -93t-38 -93t-93 -38zM269 718q-55 0 -93 38t-38 93t38 93t93 38t93 -38t38 -93t-38 -93t-93 -38z" />
    <glyph glyph-name="semicolon" unicode=";" horiz-adv-x="538" 
d="M269 718q-55 0 -93 38t-38 93t38 93t93 38t93 -38t38 -93t-38 -93t-93 -38zM258 -297h-172l89 528h219z" />
    <glyph glyph-name="less" unicode="&#x3c;" horiz-adv-x="1270" 
d="M1088 953l-689 -371v-9l689 -353v-224l-906 490v172l906 519v-224z" />
    <glyph glyph-name="equal" unicode="=" horiz-adv-x="1270" 
d="M1136 272h-1002v189h1002v-189zM1136 685h-1002v189h1002v-189z" />
    <glyph glyph-name="greater" unicode="&#x3e;" horiz-adv-x="1270" 
d="M182 954v224l906 -519v-172l-906 -490v224l689 353v9z" />
    <glyph glyph-name="question" unicode="?" horiz-adv-x="1035" 
d="M55 1056q7 177 125.5 288t328.5 111q196 0 319 -104.5t123 -266.5q0 -217 -210 -343q-96 -57 -131 -105.5t-35 -126.5v-61h-207l-1 80q-4 104 42.5 177t150.5 136q92 55 128 106t36 128q0 86 -62 141t-164 55q-103 0 -166 -58t-70 -157h-207zM473 -15q-55 0 -93 37
t-38 92t38 92t93 37q56 0 94 -37t38 -92t-38 -92t-94 -37z" />
    <glyph glyph-name="at" unicode="@" horiz-adv-x="1798" 
d="M890 863q-92 0 -144.5 -69.5t-52.5 -193.5q0 -122 52.5 -192.5t143.5 -70.5q95 0 151 71t56 192t-55.5 192t-150.5 71zM925 1440q232 0 414.5 -91.5t285.5 -260t103 -386.5q0 -241 -102.5 -384.5t-279.5 -143.5q-89 0 -153.5 45.5t-76.5 118.5h-10q-31 -76 -96 -116.5
t-153 -40.5q-156 0 -252 117t-96 307q0 182 96 296.5t248 114.5q80 0 146 -38.5t94 -102.5h11v121h169v-568q0 -51 27 -81t80 -30q85 0 138.5 101t53.5 279q0 272 -182 438.5t-476 166.5q-192 0 -344 -89t-237 -249.5t-85 -363.5q0 -216 91 -373.5t248 -236.5t361 -79
q210 0 313 43v-138q-134 -44 -320 -44q-185 0 -341 56.5t-269 161.5t-176 263t-63 353q0 246 105.5 436t295 294t432.5 104z" />
    <glyph glyph-name="A" unicode="A" horiz-adv-x="1336" 
d="M1073 0l-132 390h-550l-132 -390h-233l521 1443h242l521 -1443h-237zM663 1203l-215 -633h436l-215 633h-6z" />
    <glyph glyph-name="B" unicode="B" horiz-adv-x="1264" 
d="M712 0h-579v1443h576q192 0 308 -98.5t116 -261.5q0 -115 -74.5 -205.5t-182.5 -108.5v-8q148 -17 238 -113.5t90 -239.5q0 -191 -131 -299.5t-361 -108.5zM357 1260v-431h251q145 0 223 58t78 165q0 100 -66 154t-188 54h-298zM357 183h309q151 0 230 61t79 178
q0 236 -322 236h-296v-475z" />
    <glyph glyph-name="C" unicode="C" horiz-adv-x="1424" 
d="M742 -24q-304 0 -482.5 201t-178.5 545q0 342 179 543.5t482 201.5q246 0 415 -138.5t197 -363.5h-222q-30 139 -136.5 222.5t-253.5 83.5q-197 0 -314.5 -149.5t-117.5 -399.5q0 -253 117 -401.5t316 -148.5q150 0 252.5 73t136.5 204h223q-41 -224 -202.5 -348.5
t-410.5 -124.5z" />
    <glyph glyph-name="D" unicode="D" horiz-adv-x="1405" 
d="M133 1443h509q322 0 502.5 -189t180.5 -530q0 -342 -180 -533t-503 -191h-509v1443zM357 1250v-1056h264q230 0 352.5 136t122.5 392q0 255 -123 391.5t-352 136.5h-264z" />
    <glyph glyph-name="E" unicode="E" horiz-adv-x="1146" 
d="M1049 194v-194h-916v1443h916v-193h-692v-422h655v-186h-655v-448h692z" />
    <glyph glyph-name="F" unicode="F" horiz-adv-x="1096" 
d="M357 0h-224v1443h901v-193h-677v-457h620v-189h-620v-604z" />
    <glyph glyph-name="G" unicode="G" horiz-adv-x="1462" 
d="M1376 600q0 -293 -164.5 -458.5t-457.5 -165.5q-310 0 -491.5 202.5t-181.5 549.5q0 341 180.5 540t489.5 199q241 0 408.5 -131t205.5 -347h-230q-40 134 -141 208t-242 74q-207 0 -324.5 -143.5t-117.5 -397.5q0 -259 120 -408.5t326 -149.5q175 0 286 102.5t113 266.5
v25h-373v181h594v-147z" />
    <glyph glyph-name="H" unicode="H" horiz-adv-x="1454" 
d="M1322 0h-224v639h-741v-639h-224v1443h224v-610h741v610h224v-1443z" />
    <glyph glyph-name="I" unicode="I" horiz-adv-x="490" 
d="M357 0h-224v1443h224v-1443z" />
    <glyph glyph-name="J" unicode="J" horiz-adv-x="1060" 
d="M38 370h220q2 -90 61.5 -146t153.5 -56q110 0 168.5 64.5t58.5 188.5v1022h224v-1023q0 -214 -119 -333t-330 -119q-195 0 -316 111t-121 291z" />
    <glyph glyph-name="K" unicode="K" horiz-adv-x="1293" 
d="M357 0h-224v1443h224v-687h9l603 687h266l-572 -639l620 -804h-278l-500 650l-148 -169v-481z" />
    <glyph glyph-name="L" unicode="L" horiz-adv-x="1088" 
d="M1029 194v-194h-896v1443h224v-1249h672z" />
    <glyph glyph-name="M" unicode="M" horiz-adv-x="1726" 
d="M1593 0h-205v1062h-7l-435 -1051h-166l-436 1051h-7v-1062h-204v1443h259l467 -1139h8l466 1139h260v-1443z" />
    <glyph glyph-name="N" unicode="N" horiz-adv-x="1443" 
d="M351 0h-218v1443h203l748 -1064h8v1064h218v-1443h-202l-748 1063h-9v-1063z" />
    <glyph glyph-name="O" unicode="O" horiz-adv-x="1513" 
d="M757 1467q311 0 493.5 -201t182.5 -545t-182 -544.5t-494 -200.5t-494 200.5t-182 544.5t182 545t494 201zM757 1270q-206 0 -326.5 -148t-120.5 -401q0 -252 120.5 -400t326.5 -148q205 0 325.5 148t120.5 400q0 253 -120.5 401t-325.5 148z" />
    <glyph glyph-name="P" unicode="P" horiz-adv-x="1212" 
d="M133 1443h541q210 0 342.5 -132t132.5 -342q0 -211 -134.5 -343.5t-347.5 -132.5h-310v-493h-224v1443zM357 1254v-573h257q146 0 226 75t80 212q0 136 -79.5 211t-225.5 75h-258z" />
    <glyph glyph-name="Q" unicode="Q" horiz-adv-x="1513" 
d="M757 -24q-312 0 -494 200t-182 545q0 344 182 545t494 201q311 0 493.5 -201.5t182.5 -544.5q0 -201 -65 -357t-186 -250l188 -267h-234l-123 172q-114 -43 -256 -43zM757 172q70 0 135 20l-172 243h227l102 -138q154 143 154 424q0 253 -120.5 401.5t-325.5 148.5
t-326 -148.5t-121 -401.5q0 -252 121 -400.5t326 -148.5z" />
    <glyph glyph-name="R" unicode="R" horiz-adv-x="1257" 
d="M357 1255v-519h314q130 0 201 68t71 192q0 121 -74 190t-204 69h-308zM357 555v-555h-224v1443h559q222 0 352 -119.5t130 -321.5q0 -147 -74.5 -257.5t-205.5 -154.5l323 -590h-258l-294 555h-308z" />
    <glyph glyph-name="S" unicode="S" horiz-adv-x="1244" 
d="M69 402h221q12 -107 107 -172t238 -65q136 0 224.5 63t88.5 160q0 84 -63 137.5t-203 87.5l-187 45q-199 48 -293.5 143t-94.5 246q0 186 146.5 303t378.5 117q228 0 372 -116.5t149 -303.5h-218q-10 107 -92.5 169t-213.5 62q-130 0 -211.5 -60t-81.5 -156
q0 -76 61 -124.5t201 -83.5l159 -39q222 -52 320.5 -146.5t98.5 -253.5q0 -202 -150 -320.5t-407 -118.5q-241 0 -390.5 115.5t-159.5 310.5z" />
    <glyph glyph-name="T" unicode="T" horiz-adv-x="1205" 
d="M715 0h-224v1250h-442v193h1107v-193h-441v-1250z" />
    <glyph glyph-name="U" unicode="U" horiz-adv-x="1434" 
d="M357 1443v-917q0 -158 95.5 -254.5t264.5 -96.5t265 96.5t96 254.5v917h223v-936q0 -237 -158 -384t-426 -147t-426 147t-158 384v936h224z" />
    <glyph glyph-name="V" unicode="V" horiz-adv-x="1327" 
d="M786 0h-245l-515 1443h243l393 -1191h6l394 1191h239z" />
    <glyph glyph-name="W" unicode="W" horiz-adv-x="1923" 
d="M956 1088l-311 -1088h-212l-389 1443h233l267 -1130h8l305 1130h208l306 -1130h8l267 1130h233l-390 -1443h-211l-312 1088h-10z" />
    <glyph glyph-name="X" unicode="X" horiz-adv-x="1337" 
d="M44 0l479 723v7l-474 713h267l356 -558h8l360 558h253l-489 -721v-6l480 -716h-262l-359 550h-7l-364 -550h-248z" />
    <glyph glyph-name="Y" unicode="Y" horiz-adv-x="1293" 
d="M758 0h-224v591l-508 852h250l368 -637h7l368 637h248l-509 -852v-591z" />
    <glyph glyph-name="Z" unicode="Z" horiz-adv-x="1273" 
d="M95 0v153l790 1089v8h-766v193h1041v-153l-787 -1089v-7h806v-194h-1084z" />
    <glyph glyph-name="bracketleft" unicode="[" horiz-adv-x="704" 
d="M205 1443h477v-164h-269v-1423h269v-164h-477v1751z" />
    <glyph glyph-name="backslash" unicode="\" horiz-adv-x="704" 
d="M510 -308l-510 1751h194l510 -1751h-194z" />
    <glyph glyph-name="bracketright" unicode="]" horiz-adv-x="704" 
d="M499 1443v-1751h-477v164h269v1423h-269v164h477z" />
    <glyph glyph-name="asciicircum" unicode="^" horiz-adv-x="926" 
d="M454 1256l-206 -442h-197l305 622h215l303 -622h-199l-204 442h-17z" />
    <glyph glyph-name="underscore" unicode="_" horiz-adv-x="838" 
d="M890 -267h-941v160h941v-160z" />
    <glyph glyph-name="grave" unicode="`" horiz-adv-x="1007" 
d="M721 1286h-181l-250 303h217z" />
    <glyph glyph-name="a" unicode="a" horiz-adv-x="1061" 
d="M475 153q114 0 191.5 69.5t77.5 171.5v83l-259 -16q-97 -7 -149.5 -47.5t-52.5 -108.5q0 -69 52.5 -110.5t139.5 -41.5zM415 -18q-155 0 -252.5 88t-97.5 229q0 138 102 219.5t289 91.5l288 17v81q0 88 -56 137.5t-155 49.5q-92 0 -149.5 -41t-72.5 -113h-204
q9 146 126 238t308 92t304.5 -94t113.5 -252v-725h-207v173h-5q-45 -87 -136.5 -139t-195.5 -52z" />
    <glyph glyph-name="b" unicode="b" horiz-adv-x="1167" 
d="M667 -18q-114 0 -201 52t-137 145h-4v-179h-210v1443h216v-570h5q48 92 134.5 144t197.5 52q199 0 318.5 -147t119.5 -396q0 -250 -119 -397t-320 -147zM609 887q-124 0 -201.5 -99.5t-77.5 -261.5q0 -163 77.5 -262t201.5 -99q127 0 201 97t74 264q0 166 -74 263.5
t-201 97.5z" />
    <glyph glyph-name="c" unicode="c" horiz-adv-x="1058" 
d="M1010 690h-206q-17 89 -81.5 145t-165.5 56q-126 0 -201.5 -98.5t-75.5 -266.5q0 -171 75.5 -268t203.5 -97q99 0 162.5 51.5t82.5 143.5h208q-17 -169 -141.5 -272.5t-313.5 -103.5q-227 0 -362 146.5t-135 399.5q0 250 135 397.5t360 147.5q196 0 318 -109.5
t137 -271.5z" />
    <glyph glyph-name="d" unicode="d" horiz-adv-x="1165" 
d="M502 -18q-200 0 -321 148t-121 396t120.5 395.5t319.5 147.5q111 0 198 -51.5t132 -140.5h4v566h217v-1443h-210v179h-4q-47 -92 -134.5 -144.5t-200.5 -52.5zM559 887q-128 0 -203 -97.5t-75 -263.5q0 -167 75 -264t203 -97q125 0 201 98.5t76 262.5q0 163 -76 262
t-201 99z" />
    <glyph glyph-name="e" unicode="e" horiz-adv-x="1081" 
d="M547 897q-112 0 -186 -76.5t-82 -197.5h526q-4 122 -75 198t-183 76zM804 309h205q-23 -145 -148 -237t-305 -92q-231 0 -363.5 145.5t-132.5 395.5q0 248 132.5 399t354.5 151q218 0 346 -142.5t128 -382.5v-74h-743v-13q0 -138 77 -221t206 -83q91 0 156 42t87 112z
" />
    <glyph glyph-name="f" unicode="f" horiz-adv-x="660" 
d="M170 0v881h-145v169h145v103q0 154 75 227t235 73q65 0 121 -10v-160q-31 6 -79 6q-138 0 -138 -140v-99h213v-169h-210v-881h-217z" />
    <glyph glyph-name="g" unicode="g" horiz-adv-x="1157" 
d="M555 175q127 0 203.5 96t76.5 258t-76.5 260t-203.5 98q-125 0 -199.5 -97t-74.5 -261t74.5 -259t199.5 -95zM557 -396q-184 0 -311.5 88t-147.5 226h217q23 -66 90.5 -106t159.5 -40q125 0 197 65.5t72 174.5v173h-4q-45 -87 -133.5 -138t-199.5 -51q-199 0 -318 144.5
t-119 389.5q0 248 119.5 393.5t322.5 145.5q111 0 199 -52.5t136 -144.5h4v180h210v-1033q0 -188 -134.5 -301.5t-359.5 -113.5z" />
    <glyph glyph-name="h" unicode="h" horiz-adv-x="1137" 
d="M115 0v1443h214v-567h5q44 93 129 143.5t204 50.5q172 0 270.5 -106t98.5 -286v-678h-217v636q0 118 -58.5 183t-171.5 65q-119 0 -188.5 -75.5t-69.5 -200.5v-608h-216z" />
    <glyph glyph-name="i" unicode="i" horiz-adv-x="444" 
d="M114 0v1052h216v-1052h-216zM222 1206q-52 0 -88.5 36t-36.5 87q0 52 36.5 88t88.5 36q53 0 89.5 -36t36.5 -88q0 -51 -37 -87t-89 -36z" />
    <glyph glyph-name="j" unicode="j" horiz-adv-x="444" 
d="M330 1052v-1102q0 -161 -84.5 -238.5t-259.5 -77.5q-44 0 -50 2v170q2 0 15.5 -0.5t15.5 -0.5q80 0 113.5 33t33.5 113v1101h216zM222 1206q-52 0 -88.5 36t-36.5 87q0 52 36.5 88t88.5 36q53 0 89.5 -36t36.5 -88q0 -51 -37 -87t-89 -36z" />
    <glyph glyph-name="k" unicode="k" horiz-adv-x="1033" 
d="M333 601l425 451h254l-436 -453l453 -599h-251l-357 467l-90 -89v-378h-216v1443h216v-842h2z" />
    <glyph glyph-name="l" unicode="l" horiz-adv-x="446" 
d="M115 0v1443h216v-1443h-216z" />
    <glyph glyph-name="m" unicode="m" horiz-adv-x="1689" 
d="M107 0v1052h206v-177h5q36 89 115 142t184 53q109 0 185.5 -54t108.5 -152h5q41 96 128.5 151t199.5 55q156 0 250 -95t94 -252v-723h-217v671q0 102 -52.5 158t-148.5 56t-156.5 -64t-60.5 -164v-657h-212v687q0 91 -54 144.5t-145 53.5q-96 0 -157.5 -66.5
t-61.5 -168.5v-650h-216z" />
    <glyph glyph-name="n" unicode="n" horiz-adv-x="1115" 
d="M107 0v1052h206v-176h5q44 92 128 143t203 51q173 0 269 -103.5t96 -285.5v-681h-217v639q0 120 -56.5 182.5t-167.5 62.5q-114 0 -182 -74t-68 -197v-613h-216z" />
    <glyph glyph-name="o" unicode="o" horiz-adv-x="1118" 
d="M559 -20q-227 0 -363 146.5t-136 399.5q0 252 136 398.5t363 146.5t363 -146.5t136 -398.5q0 -253 -136 -399.5t-363 -146.5zM559 158q129 0 204 97t75 271q0 173 -75.5 270t-203.5 97t-203.5 -97t-75.5 -270q0 -174 75.5 -271t203.5 -97z" />
    <glyph glyph-name="p" unicode="p" horiz-adv-x="1157" 
d="M655 1069q201 0 322 -147t121 -396t-120 -396.5t-319 -147.5q-112 0 -198.5 51t-132.5 140h-5v-521h-216v1400h209v-181h4q47 92 135 145t200 53zM598 165q128 0 203 97.5t75 263.5q0 165 -75 263t-203 98q-124 0 -200 -99t-76 -262q0 -164 75.5 -262.5t200.5 -98.5z" />
    <glyph glyph-name="q" unicode="q" horiz-adv-x="1157" 
d="M502 1069q112 0 199.5 -53t134.5 -145h5v181h210v-1400h-217v525h-4q-46 -90 -134 -142.5t-199 -52.5q-198 0 -317.5 148t-119.5 396q0 249 120 396t322 147zM555 165q125 0 202.5 99t77.5 262t-77.5 262t-202.5 99q-127 0 -200.5 -97t-73.5 -264t73.5 -264t200.5 -97z
" />
    <glyph glyph-name="r" unicode="r" horiz-adv-x="672" 
d="M107 0v1052h206v-179h5q26 92 93 144t160 52q31 0 74 -8v-201q-29 12 -97 12q-104 0 -164.5 -65t-60.5 -177v-630h-216z" />
    <glyph glyph-name="s" unicode="s" horiz-adv-x="990" 
d="M88 754q0 141 114 229t298 88q175 0 287.5 -88.5t117.5 -229.5h-203q-8 72 -63 113t-145 41q-88 0 -141.5 -39t-53.5 -101q0 -96 161 -136l177 -41q159 -38 225.5 -103.5t66.5 -182.5q0 -144 -121.5 -234t-315.5 -90q-185 0 -301.5 88t-129.5 234h214q13 -76 71 -116.5
t156 -40.5q97 0 153.5 37.5t56.5 101.5q0 51 -34 81t-116 51l-188 46q-286 69 -286 292z" />
    <glyph glyph-name="t" unicode="t" horiz-adv-x="657" 
d="M170 1301h217v-249h200v-171h-200v-580q0 -68 31 -100t97 -32q48 0 71 5v-171q-40 -10 -120 -10q-159 0 -227.5 65.5t-68.5 218.5v604h-153v171h153v249z" />
    <glyph glyph-name="u" unicode="u" horiz-adv-x="1115" 
d="M1009 1052v-1052h-207v178h-5q-91 -197 -326 -197q-172 0 -270.5 104.5t-98.5 285.5v681h216v-639q0 -121 57 -183.5t168 -62.5q116 0 183 74t67 198v613h216z" />
    <glyph glyph-name="v" unicode="v" horiz-adv-x="1022" 
d="M1005 1052l-377 -1052h-232l-379 1052h230l264 -841h4l264 841h226z" />
    <glyph glyph-name="w" unicode="w" horiz-adv-x="1520" 
d="M1495 1052l-288 -1052h-225l-221 788h-5l-219 -788h-223l-289 1052h216l192 -828h4l219 828h208l220 -828h5l192 828h214z" />
    <glyph glyph-name="x" unicode="x" horiz-adv-x="1004" 
d="M501 387h-5l-233 -387h-234l347 525l-342 527h242l230 -381h4l227 381h238l-345 -520l341 -532h-238z" />
    <glyph glyph-name="y" unicode="y" horiz-adv-x="1037" 
d="M211 -392q-61 0 -88 5v175q16 -4 70 -4q76 0 119 34.5t68 115.5q0 1 10 33l9 32l-380 1053h234l267 -856h3l267 856h228l-395 -1107q-67 -191 -157 -264t-255 -73z" />
    <glyph glyph-name="z" unicode="z" horiz-adv-x="986" 
d="M85 0v139l561 737v4h-557v172h805v-148l-547 -728v-4h553v-172h-815z" />
    <glyph glyph-name="braceleft" unicode="{" horiz-adv-x="704" 
d="M217 554q234 -24 234 -239v-242q0 -115 44 -165t146 -50h41v-166h-62q-193 0 -283.5 86.5t-90.5 269.5v199q0 116 -49.5 162.5t-174.5 47.5v221q124 1 174 47.5t50 162.5v201q0 182 90.5 268t283.5 86h62v-167h-41q-102 0 -146 -49.5t-44 -164.5v-242q0 -215 -234 -239
v-27z" />
    <glyph glyph-name="bar" unicode="|" horiz-adv-x="704" 
d="M448 -308h-192v1751h192v-1751z" />
    <glyph glyph-name="braceright" unicode="}" horiz-adv-x="704" 
d="M487 554v27q-234 24 -234 239v242q0 115 -44 164.5t-146 49.5h-41v167h62q193 0 283.5 -86t90.5 -268v-201q0 -116 50 -162.5t174 -47.5v-221q-125 -1 -174.5 -47t-49.5 -161v-194q0 -187 -90.5 -275t-283.5 -88h-62v166h41q101 0 145.5 50t44.5 164v241q0 218 234 241z
" />
    <glyph glyph-name="asciitilde" unicode="~" horiz-adv-x="1270" 
d="M590 632q-52 52 -85.5 73t-67.5 21q-123 0 -132 -179h-185q-3 173 80 273t231 100q124 0 252 -127q49 -51 83 -72t67 -21q124 0 133 179h184q4 -173 -79 -273t-231 -100q-66 0 -125 30t-125 96z" />
    <glyph glyph-name="nonbreakingspace" unicode="&#xa0;" horiz-adv-x="415" 
 />
    <glyph glyph-name="exclamdown" unicode="&#xa1;" horiz-adv-x="583" 
d="M180 -335l16 965h191l16 -965h-223zM291 866q-55 0 -93 37.5t-38 91.5q0 55 38 92.5t93 37.5q56 0 94 -37.5t38 -92.5q0 -54 -38 -91.5t-94 -37.5z" />
    <glyph glyph-name="cent" unicode="&#xa2;" horiz-adv-x="1270" 
d="M1156 539q-16 -153 -128 -257.5t-281 -124.5v-174h-198v177q-199 33 -317 183t-118 374q0 221 118 370t317 181v177h198v-174q168 -21 283.5 -130.5t125.5 -257.5h-209q-19 97 -98 154.5t-194 57.5q-142 0 -231.5 -105t-89.5 -273q0 -170 90 -277t231 -107q253 0 292 206
h209z" />
    <glyph glyph-name="sterling" unicode="&#xa3;" horiz-adv-x="1270" 
d="M425 188h760v-188h-1084v181q133 26 219.5 122.5t86.5 218.5q0 54 -17 124h-288v167h231q-61 160 -61 256q0 193 140.5 301t391.5 108q90 0 175 -14.5t136 -37.5v-187q-43 22 -126 37.5t-165 15.5q-153 0 -239 -62.5t-86 -173.5q0 -91 55 -243h450v-167h-396
q14 -65 14 -113q0 -113 -56 -201t-141 -139v-5z" />
    <glyph glyph-name="currency" unicode="&#xa4;" horiz-adv-x="1270" 
d="M383 653q0 -103 74.5 -178t178.5 -75t178.5 74.5t74.5 178.5t-74.5 179t-178.5 75t-178.5 -75t-74.5 -179zM1145 1036l-161 -162q64 -102 64 -221q0 -120 -65 -221l162 -162l-128 -127l-162 162q-98 -64 -219 -64q-119 0 -220 65l-163 -163l-127 127l162 163
q-64 102 -64 220q0 119 64 221l-162 162l127 127l163 -162q100 65 220 65q119 0 220 -64l161 161z" />
    <glyph glyph-name="yen" unicode="&#xa5;" horiz-adv-x="1270" 
d="M1022 248h-274v-248h-224v248h-275v147h275v155h-275v147h213l-447 746h249l368 -635h7l367 635h249l-445 -746h212v-147h-274v-155h274v-147z" />
    <glyph glyph-name="brokenbar" unicode="&#xa6;" horiz-adv-x="704" 
d="M448 743h-192v700h192v-700zM448 -308h-192v700h192v-700z" />
    <glyph glyph-name="section" unicode="&#xa7;" horiz-adv-x="990" 
d="M435 418l92 -25q80 3 135 53t55 121q0 58 -41.5 98.5t-118.5 59.5l-92 24q-79 -3 -135 -54t-56 -120q0 -56 42.5 -97.5t118.5 -59.5zM498 -267q-177 0 -293.5 86.5t-125.5 224.5h204q9 -64 70.5 -103.5t151.5 -39.5q93 0 151 40.5t58 106.5q0 52 -42.5 87t-137.5 61
l-153 46q-163 46 -237.5 116t-74.5 176q0 95 58.5 164.5t162.5 99.5v17q-215 89 -215 273q0 144 114.5 232.5t300.5 88.5q173 0 283.5 -81.5t125.5 -220.5h-201q-9 61 -66.5 98t-144.5 37q-92 0 -148.5 -40.5t-56.5 -106.5q0 -52 41.5 -87t135.5 -62l152 -45
q161 -47 235.5 -115.5t74.5 -170.5q0 -101 -68 -179t-178 -102v-17q243 -67 243 -260q0 -143 -117 -233.5t-303 -90.5z" />
    <glyph glyph-name="dieresis" unicode="&#xa8;" horiz-adv-x="1006" 
d="M311 1293q-50 0 -84.5 34t-34.5 83t34.5 83t84.5 34q49 0 83.5 -34t34.5 -83t-34.5 -83t-83.5 -34zM696 1293q-50 0 -84.5 34t-34.5 83t34.5 83t84.5 34q49 0 83.5 -34t34.5 -83t-34.5 -83t-83.5 -34z" />
    <glyph glyph-name="copyright" unicode="&#xa9;" horiz-adv-x="1703" 
d="M851 -158q-218 0 -399.5 104t-286.5 286t-105 403t105 403t286.5 285.5t399.5 103.5q220 0 401.5 -103.5t286 -285.5t104.5 -403t-104.5 -403t-286.5 -286t-401 -104zM851 -9q133 0 252 49.5t204.5 135t135.5 205t50 254.5t-50 255t-135.5 204.5t-204.5 134t-252 49.5
q-177 0 -324 -83.5t-232.5 -231.5t-85.5 -328t85.5 -328t232.5 -232t324 -84zM1225 765h-156q-16 65 -68.5 105.5t-132.5 40.5q-104 0 -165.5 -73.5t-61.5 -201.5q0 -129 61.5 -203.5t165.5 -74.5q79 0 132 36.5t69 104.5h156q-17 -125 -111.5 -201.5t-244.5 -76.5
q-180 0 -285.5 111.5t-105.5 303.5q0 189 105.5 300.5t283.5 111.5q150 0 245.5 -79.5t112.5 -203.5z" />
    <glyph glyph-name="ordfeminine" unicode="&#xaa;" horiz-adv-x="754" 
d="M340 839q74 0 122.5 41t48.5 104v54l-162 -10q-132 -9 -132 -97q0 -42 33.5 -67t89.5 -25zM285 706q-108 0 -176.5 60.5t-68.5 157.5t73 152.5t211 63.5l187 11v51q0 55 -36 85t-101 30q-54 0 -90.5 -25.5t-44.5 -68.5h-163q4 102 89 166.5t216 64.5q138 0 221 -65.5
t83 -174.5v-500h-171v115h-3q-29 -57 -91 -90t-135 -33z" />
    <glyph glyph-name="guillemotleft" unicode="&#xab;" horiz-adv-x="1321" 
d="M355 572v-13l349 -412h-229l-348 414v8l349 415h228zM845 572v-13l349 -412h-229l-348 414v8l349 415h228z" />
    <glyph glyph-name="logicalnot" unicode="&#xac;" horiz-adv-x="1270" 
d="M1126 673v-569h-186v385h-796v184h982z" />
    <glyph glyph-name="registered" unicode="&#xae;" horiz-adv-x="1166" 
d="M583 582q-206 0 -348 140t-142 342q0 203 142 343t348 140q136 0 248.5 -63.5t177.5 -174.5t65 -245q0 -202 -142.5 -342t-348.5 -140zM583 692q156 0 263 108t107 264q0 158 -106.5 265t-263.5 107q-156 0 -263 -107.5t-107 -264.5q0 -156 107.5 -264t262.5 -108z
M501 845h-105v455h228q72 0 117.5 -39.5t45.5 -101.5q0 -53 -27.5 -89.5t-75.5 -45.5l127 -179h-130l-106 164h-74v-164zM501 1213v-125h101q35 0 54 17t19 48q0 60 -70 60h-104z" />
    <glyph glyph-name="macron" unicode="&#xaf;" horiz-adv-x="1000" 
d="M799 1466v-128h-598v128h598z" />
    <glyph glyph-name="degree" unicode="&#xb0;" horiz-adv-x="740" 
d="M369 863q-124 0 -210 86t-86 211t86 211t210 86q125 0 211 -86.5t86 -210.5t-86 -210.5t-211 -86.5zM370 1007q63 0 108 45t45 108q0 64 -44.5 108.5t-108.5 44.5q-61 0 -107 -45t-46 -108q0 -62 45.5 -107.5t107.5 -45.5z" />
    <glyph glyph-name="plusminus" unicode="&#xb1;" horiz-adv-x="1270" 
d="M1140 99h-1010v173h1010v-173zM727 658v-272h-184v272h-413v165h413v272h184v-272h413v-165h-413z" />
    <glyph glyph-name="two.sups" unicode="&#xb2;" horiz-adv-x="635" 
d="M40 1591q0 104 75.5 168t198.5 64q118 0 191.5 -56.5t73.5 -148.5q0 -54 -28.5 -102t-99.5 -112l-158 -144v-3h294v-143h-536v124l273 247q42 41 58 67t16 53q0 35 -25.5 57t-66.5 22t-68 -26.5t-27 -66.5v-4h-171v4z" />
    <glyph glyph-name="three.sups" unicode="&#xb3;" horiz-adv-x="662" 
d="M239 1404v126h85q42 0 67 22t25 57t-25 55.5t-69 20.5q-43 0 -70 -23.5t-29 -62.5h-168q1 101 75.5 162.5t197.5 61.5q118 0 190 -51.5t72 -136.5q0 -61 -39 -104.5t-105 -55.5v-4q79 -7 124 -51.5t45 -113.5q0 -95 -79.5 -152.5t-211.5 -57.5q-124 0 -201 62t-81 165
h177q3 -38 31.5 -59.5t74.5 -21.5q45 0 73 22.5t28 57.5q0 38 -27.5 60t-75.5 22h-84z" />
    <glyph glyph-name="acute" unicode="&#xb4;" horiz-adv-x="1007" 
d="M466 1286h-181l214 303h217z" />
    <glyph glyph-name="mugreek" unicode="&#x3bc;" horiz-adv-x="1215" 
d="M107 -348v1400h215v-634q0 -122 56.5 -185.5t166.5 -63.5q120 0 187 72.5t67 197.5v613h215v-762q0 -68 20.5 -96.5t66.5 -28.5q34 0 56 9l1 -168q-40 -14 -107 -14q-96 0 -152.5 36t-81.5 115q-5 18 -8 34h-3q-44 -92 -114 -144t-158 -52q-69 0 -125.5 30.5t-82.5 80.5
h-3v-440h-216z" />
    <glyph glyph-name="mugreek" unicode="&#xb5;" horiz-adv-x="1215" 
d="M107 -348v1400h215v-634q0 -122 56.5 -185.5t166.5 -63.5q120 0 187 72.5t67 197.5v613h215v-762q0 -68 20.5 -96.5t66.5 -28.5q34 0 56 9l1 -168q-40 -14 -107 -14q-96 0 -152.5 36t-81.5 115q-5 18 -8 34h-3q-44 -92 -114 -144t-158 -52q-69 0 -125.5 30.5t-82.5 80.5
h-3v-440h-216z" />
    <glyph glyph-name="paragraph" unicode="&#xb6;" horiz-adv-x="1299" 
d="M824 -233h-216v765h-20q-210 0 -351 128.5t-141 320.5q0 200 140.5 331t352.5 131h235v-1676zM979 -233v1676h216v-1676h-216z" />
    <glyph glyph-name="periodcentered" unicode="&#xb7;" horiz-adv-x="560" 
d="M280 480q-56 0 -94.5 38.5t-38.5 95.5q0 56 38.5 94.5t94.5 38.5t94.5 -38.5t38.5 -94.5q0 -57 -38.5 -95.5t-94.5 -38.5z" />
    <glyph glyph-name="cedilla" unicode="&#xb8;" horiz-adv-x="1007" 
d="M352 -227v79l65 157h134v-9l-54 -123q94 -1 149.5 -43.5t55.5 -117.5q0 -85 -66 -132t-173 -49q-96 -2 -147 14v109q53 -12 120 -12q121 0 121 66q0 33 -32.5 47t-105.5 14h-67z" />
    <glyph glyph-name="one.sups" unicode="&#xb9;" horiz-adv-x="516" 
d="M243 1114v533h-3l-176 -119v159l176 118h183v-691h-180z" />
    <glyph glyph-name="ordmasculine" unicode="&#xba;" horiz-adv-x="791" 
d="M395 703q-163 0 -258.5 100.5t-95.5 275.5q0 173 95.5 274t258.5 101t259 -100.5t96 -274.5q0 -175 -95.5 -275.5t-259.5 -100.5zM395 842q83 0 129 62.5t46 174.5q0 111 -46.5 173.5t-128.5 62.5t-128 -62.5t-46 -173.5q0 -112 46.5 -174.5t127.5 -62.5z" />
    <glyph glyph-name="guillemotright" unicode="&#xbb;" horiz-adv-x="1321" 
d="M476 572l-349 412h228l349 -415v-8l-347 -414h-230l349 412v13zM966 572l-349 412h228l349 -415v-8l-347 -414h-230l349 412v13z" />
    <glyph glyph-name="onequarter" unicode="&#xbc;" horiz-adv-x="1521" 
d="M253 753v533h-3l-176 -119v159l176 118h183v-691h-180zM300 0h-198l558 763l497 680h197l-543 -744zM1225 0v108h-341v156q81 156 259 427h259v-438h85v-145h-85v-108h-177zM1041 249v-3h189v320h-3q-125 -199 -186 -317z" />
    <glyph glyph-name="onehalf" unicode="&#xbd;" horiz-adv-x="1520" 
d="M253 753v533h-3l-176 -119v159l176 118h183v-691h-180zM300 0h-198l558 763l497 680h197l-543 -744zM939 477q0 104 75.5 168t198.5 64q118 0 191.5 -56.5t73.5 -148.5q0 -54 -28.5 -102t-99.5 -112l-158 -144v-3h294v-143h-536v124l273 247q42 41 58 67t16 53
q0 35 -25.5 57t-66.5 22t-68 -26.5t-27 -66.5v-4h-171v4z" />
    <glyph glyph-name="threequarters" unicode="&#xbe;" horiz-adv-x="1623" 
d="M239 1043v126h85q42 0 67 22t25 57t-25 55.5t-69 20.5q-43 0 -70 -23.5t-29 -62.5h-168q1 101 75.5 162.5t197.5 61.5q118 0 190 -51.5t72 -136.5q0 -61 -39 -104.5t-105 -55.5v-4q79 -7 124 -51.5t45 -113.5q0 -95 -79.5 -152.5t-211.5 -57.5q-124 0 -201 62t-81 165
h177q3 -38 31.5 -59.5t74.5 -21.5q45 0 73 22.5t28 57.5q0 38 -27.5 60t-75.5 22h-84zM408 0h-198l558 763l497 680h197l-543 -744zM1328 0v108h-341v156q81 156 259 427h259v-438h85v-145h-85v-108h-177zM1144 249v-3h189v320h-3q-125 -199 -186 -317z" />
    <glyph glyph-name="questiondown" unicode="&#xbf;" horiz-adv-x="1035" 
d="M980 49q-7 -177 -125.5 -288t-327.5 -111q-198 0 -321 104.5t-123 267.5q0 216 211 342q96 57 130.5 105.5t34.5 125.5v61h207l1 -80q4 -104 -41.5 -177t-150.5 -136q-91 -55 -127.5 -106t-36.5 -126q0 -87 62 -142.5t164 -55.5q103 0 165.5 58t69.5 158h208zM551 866
q-55 0 -93.5 37.5t-38.5 91.5q0 55 38 92.5t94 37.5t94 -37.5t38 -92.5q0 -54 -38.5 -91.5t-93.5 -37.5z" />
    <glyph glyph-name="Agrave" unicode="&#xc0;" horiz-adv-x="1336" 
d="M1073 0l-132 390h-550l-132 -390h-233l521 1443h242l521 -1443h-237zM663 1203l-215 -633h436l-215 633h-6zM568 1561l-263 295h222l222 -295h-181z" />
    <glyph glyph-name="Aacute" unicode="&#xc1;" horiz-adv-x="1336" 
d="M1073 0l-132 390h-550l-132 -390h-233l521 1443h242l521 -1443h-237zM663 1203l-215 -633h436l-215 633h-6zM767 1559h-181l222 295h222z" />
    <glyph glyph-name="Acircumflex" unicode="&#xc2;" horiz-adv-x="1336" 
d="M1073 0l-132 390h-550l-132 -390h-233l521 1443h242l521 -1443h-237zM663 1203l-215 -633h436l-215 633h-6zM585 1844h166l278 -305h-186l-172 192h-6l-172 -192h-186z" />
    <glyph glyph-name="Atilde" unicode="&#xc3;" horiz-adv-x="1336" 
d="M1073 0l-132 390h-550l-132 -390h-233l521 1443h242l521 -1443h-237zM663 1203l-215 -633h436l-215 633h-6zM803 1574q-37 0 -70.5 15t-58 36.5t-46 43t-44 36.5t-43.5 15q-35 0 -54 -35.5t-17 -98.5h-133q0 123 55.5 192t145.5 69q39 0 74 -15t59 -36.5t45.5 -43
t42.5 -36.5t41 -15q33 0 51 35t18 102h133q0 -121 -56 -192.5t-143 -71.5z" />
    <glyph glyph-name="Adieresis" unicode="&#xc4;" horiz-adv-x="1336" 
d="M1073 0l-132 390h-550l-132 -390h-233l521 1443h242l521 -1443h-237zM663 1203l-215 -633h436l-215 633h-6zM476 1592q-50 0 -84.5 34t-34.5 83t34.5 83t84.5 34q49 0 83.5 -34t34.5 -83t-34.5 -83t-83.5 -34zM861 1592q-50 0 -84.5 34t-34.5 83t34.5 83t84.5 34
q49 0 83.5 -34t34.5 -83t-34.5 -83t-83.5 -34z" />
    <glyph glyph-name="Aring" unicode="&#xc5;" horiz-adv-x="1336" 
d="M1073 0l-132 390h-550l-132 -390h-233l521 1443h242l521 -1443h-237zM663 1203l-215 -633h436l-215 633h-6zM668 1517q-81 0 -138.5 57t-57.5 138q0 80 57.5 137.5t138.5 57.5t138.5 -57.5t57.5 -137.5q0 -81 -57.5 -138t-138.5 -57zM668 1613q41 0 70 29t29 70
q0 40 -29 69t-70 29t-70 -29t-29 -69q0 -41 29 -70t70 -29z" />
    <glyph glyph-name="AE" unicode="&#xc6;" horiz-adv-x="1997" 
d="M812 1263l-298 -656h449v656h-151zM963 0v428h-527l-196 -428h-227l661 1443h1189v-193h-685v-430h648v-186h-648v-441h685v-193h-900z" />
    <glyph glyph-name="Ccedilla" unicode="&#xc7;" horiz-adv-x="1424" 
d="M1132 449h223q-38 -207 -179.5 -329.5t-360.5 -140.5l-45 -102q94 -1 149.5 -43.5t55.5 -117.5q0 -85 -66 -132t-173 -49q-96 -2 -147 14v109q53 -12 120 -12q121 0 121 66q0 33 -32.5 47t-105.5 14h-67v79l52 127q-276 22 -436 220t-160 523q0 342 179 543.5t482 201.5
q246 0 415 -138.5t197 -363.5h-222q-30 139 -136.5 222.5t-253.5 83.5q-197 0 -314.5 -149.5t-117.5 -399.5q0 -253 117 -401.5t316 -148.5q150 0 252.5 73t136.5 204z" />
    <glyph glyph-name="Egrave" unicode="&#xc8;" horiz-adv-x="1146" 
d="M1049 194v-194h-916v1443h916v-193h-692v-422h655v-186h-655v-448h692zM491 1561l-263 295h222l222 -295h-181z" />
    <glyph glyph-name="Eacute" unicode="&#xc9;" horiz-adv-x="1146" 
d="M1049 194v-194h-916v1443h916v-193h-692v-422h655v-186h-655v-448h692zM690 1559h-181l222 295h222z" />
    <glyph glyph-name="Ecircumflex" unicode="&#xca;" horiz-adv-x="1146" 
d="M1049 194v-194h-916v1443h916v-193h-692v-422h655v-186h-655v-448h692zM508 1844h166l278 -305h-186l-172 192h-6l-172 -192h-186z" />
    <glyph glyph-name="Edieresis" unicode="&#xcb;" horiz-adv-x="1146" 
d="M1049 194v-194h-916v1443h916v-193h-692v-422h655v-186h-655v-448h692zM399 1592q-50 0 -84.5 34t-34.5 83t34.5 83t84.5 34q49 0 83.5 -34t34.5 -83t-34.5 -83t-83.5 -34zM784 1592q-50 0 -84.5 34t-34.5 83t34.5 83t84.5 34q49 0 83.5 -34t34.5 -83t-34.5 -83
t-83.5 -34z" />
    <glyph glyph-name="Igrave" unicode="&#xcc;" horiz-adv-x="490" 
d="M357 0h-224v1443h224v-1443zM145 1561l-263 295h222l222 -295h-181z" />
    <glyph glyph-name="Iacute" unicode="&#xcd;" horiz-adv-x="490" 
d="M357 0h-224v1443h224v-1443zM344 1559h-181l222 295h222z" />
    <glyph glyph-name="Icircumflex" unicode="&#xce;" horiz-adv-x="490" 
d="M357 0h-224v1443h224v-1443zM162 1844h166l278 -305h-186l-172 192h-6l-172 -192h-186z" />
    <glyph glyph-name="Idieresis" unicode="&#xcf;" horiz-adv-x="490" 
d="M357 0h-224v1443h224v-1443zM53 1592q-50 0 -84.5 34t-34.5 83t34.5 83t84.5 34q49 0 83.5 -34t34.5 -83t-34.5 -83t-83.5 -34zM438 1592q-50 0 -84.5 34t-34.5 83t34.5 83t84.5 34q49 0 83.5 -34t34.5 -83t-34.5 -83t-83.5 -34z" />
    <glyph glyph-name="Eth" unicode="&#xd0;" horiz-adv-x="1428" 
d="M372 194h264q230 0 352.5 136t122.5 392q0 255 -123 391.5t-352 136.5h-264v-418h269v-184h-269v-454zM148 1443h509q322 0 502.5 -189t180.5 -530q0 -342 -180 -533t-503 -191h-509v648h-118v184h118v611z" />
    <glyph glyph-name="Ntilde" unicode="&#xd1;" horiz-adv-x="1443" 
d="M351 0h-218v1443h203l748 -1064h8v1064h218v-1443h-202l-748 1063h-9v-1063zM857 1574q-37 0 -70.5 15t-58 36.5t-46 43t-44 36.5t-43.5 15q-35 0 -54 -35.5t-17 -98.5h-133q0 123 55.5 192t145.5 69q39 0 74 -15t59 -36.5t45.5 -43t42.5 -36.5t41 -15q33 0 51 35t18 102
h133q0 -121 -56 -192.5t-143 -71.5z" />
    <glyph glyph-name="Ograve" unicode="&#xd2;" horiz-adv-x="1513" 
d="M757 1467q311 0 493.5 -201t182.5 -545t-182 -544.5t-494 -200.5t-494 200.5t-182 544.5t182 545t494 201zM757 1270q-206 0 -326.5 -148t-120.5 -401q0 -252 120.5 -400t326.5 -148q205 0 325.5 148t120.5 400q0 253 -120.5 401t-325.5 148zM657 1561l-263 295h222
l222 -295h-181z" />
    <glyph glyph-name="Oacute" unicode="&#xd3;" horiz-adv-x="1513" 
d="M757 1467q311 0 493.5 -201t182.5 -545t-182 -544.5t-494 -200.5t-494 200.5t-182 544.5t182 545t494 201zM757 1270q-206 0 -326.5 -148t-120.5 -401q0 -252 120.5 -400t326.5 -148q205 0 325.5 148t120.5 400q0 253 -120.5 401t-325.5 148zM856 1559h-181l222 295h222z
" />
    <glyph glyph-name="Ocircumflex" unicode="&#xd4;" horiz-adv-x="1513" 
d="M757 1467q311 0 493.5 -201t182.5 -545t-182 -544.5t-494 -200.5t-494 200.5t-182 544.5t182 545t494 201zM757 1270q-206 0 -326.5 -148t-120.5 -401q0 -252 120.5 -400t326.5 -148q205 0 325.5 148t120.5 400q0 253 -120.5 401t-325.5 148zM674 1844h166l278 -305h-186
l-172 192h-6l-172 -192h-186z" />
    <glyph glyph-name="Otilde" unicode="&#xd5;" horiz-adv-x="1513" 
d="M757 1467q311 0 493.5 -201t182.5 -545t-182 -544.5t-494 -200.5t-494 200.5t-182 544.5t182 545t494 201zM757 1270q-206 0 -326.5 -148t-120.5 -401q0 -252 120.5 -400t326.5 -148q205 0 325.5 148t120.5 400q0 253 -120.5 401t-325.5 148zM892 1574q-37 0 -70.5 15
t-58 36.5t-46 43t-44 36.5t-43.5 15q-35 0 -54 -35.5t-17 -98.5h-133q0 123 55.5 192t145.5 69q39 0 74 -15t59 -36.5t45.5 -43t42.5 -36.5t41 -15q33 0 51 35t18 102h133q0 -121 -56 -192.5t-143 -71.5z" />
    <glyph glyph-name="Odieresis" unicode="&#xd6;" horiz-adv-x="1513" 
d="M757 1467q311 0 493.5 -201t182.5 -545t-182 -544.5t-494 -200.5t-494 200.5t-182 544.5t182 545t494 201zM757 1270q-206 0 -326.5 -148t-120.5 -401q0 -252 120.5 -400t326.5 -148q205 0 325.5 148t120.5 400q0 253 -120.5 401t-325.5 148zM565 1592q-50 0 -84.5 34
t-34.5 83t34.5 83t84.5 34q49 0 83.5 -34t34.5 -83t-34.5 -83t-83.5 -34zM950 1592q-50 0 -84.5 34t-34.5 83t34.5 83t84.5 34q49 0 83.5 -34t34.5 -83t-34.5 -83t-83.5 -34z" />
    <glyph glyph-name="multiply" unicode="&#xd7;" horiz-adv-x="1270" 
d="M636 451l-307 -306l-130 130l306 306l-306 307l130 130l307 -306l306 306l129 -130l-305 -307l305 -306l-129 -130z" />
    <glyph glyph-name="Oslash" unicode="&#xd8;" horiz-adv-x="1513" 
d="M1114 1078l-605 -830q104 -75 248 -75q205 0 325.5 148t120.5 400q0 216 -89 357zM420 335l614 838q-112 97 -277 97q-206 0 -326.5 -148t-120.5 -401q0 -240 110 -386zM1370 1429l-119 -163q182 -201 182 -545t-182 -544.5t-494 -200.5q-215 0 -374 99l-94 -129l-101 73
l98 134q-205 202 -205 568q0 344 182 545t494 201q238 0 404 -120l108 147z" />
    <glyph glyph-name="Ugrave" unicode="&#xd9;" horiz-adv-x="1434" 
d="M357 1443v-917q0 -158 95.5 -254.5t264.5 -96.5t265 96.5t96 254.5v917h223v-936q0 -237 -158 -384t-426 -147t-426 147t-158 384v936h224zM617 1561l-263 295h222l222 -295h-181z" />
    <glyph glyph-name="Uacute" unicode="&#xda;" horiz-adv-x="1434" 
d="M357 1443v-917q0 -158 95.5 -254.5t264.5 -96.5t265 96.5t96 254.5v917h223v-936q0 -237 -158 -384t-426 -147t-426 147t-158 384v936h224zM816 1559h-181l222 295h222z" />
    <glyph glyph-name="Ucircumflex" unicode="&#xdb;" horiz-adv-x="1434" 
d="M357 1443v-917q0 -158 95.5 -254.5t264.5 -96.5t265 96.5t96 254.5v917h223v-936q0 -237 -158 -384t-426 -147t-426 147t-158 384v936h224zM634 1844h166l278 -305h-186l-172 192h-6l-172 -192h-186z" />
    <glyph glyph-name="Udieresis" unicode="&#xdc;" horiz-adv-x="1434" 
d="M357 1443v-917q0 -158 95.5 -254.5t264.5 -96.5t265 96.5t96 254.5v917h223v-936q0 -237 -158 -384t-426 -147t-426 147t-158 384v936h224zM525 1592q-50 0 -84.5 34t-34.5 83t34.5 83t84.5 34q49 0 83.5 -34t34.5 -83t-34.5 -83t-83.5 -34zM910 1592q-50 0 -84.5 34
t-34.5 83t34.5 83t84.5 34q49 0 83.5 -34t34.5 -83t-34.5 -83t-83.5 -34z" />
    <glyph glyph-name="Yacute" unicode="&#xdd;" horiz-adv-x="1293" 
d="M758 0h-224v591l-508 852h250l368 -637h7l368 637h248l-509 -852v-591zM745 1559h-181l222 295h222z" />
    <glyph glyph-name="Thorn" unicode="&#xde;" horiz-adv-x="1267" 
d="M157 1443h224v-255h350q121 0 220 -50t160 -149t61 -231t-62 -231.5t-163 -150t-223 -50.5h-343v-326h-224v1443zM381 999v-485h287q125 0 200 62.5t75 181.5q0 118 -75 179.5t-200 61.5h-287z" />
    <glyph glyph-name="germandbls" unicode="&#xdf;" horiz-adv-x="1246" 
d="M377 0h-215v1067q0 176 119 280.5t320 104.5q191 0 312 -102t121 -262q0 -121 -59 -211t-158 -120v-7q151 -19 237.5 -117t86.5 -247q0 -182 -122.5 -291t-329.5 -109q-98 0 -154 14v180q51 -15 126 -15q121 0 192.5 63t71.5 169q0 112 -80 177t-222 65h-64v192h50
q100 0 157.5 62.5t57.5 170.5q0 92 -61 149.5t-159 57.5q-108 0 -167.5 -62t-59.5 -175v-1034z" />
    <glyph glyph-name="agrave" unicode="&#xe0;" horiz-adv-x="1061" 
d="M475 153q114 0 191.5 69.5t77.5 171.5v83l-259 -16q-97 -7 -149.5 -47.5t-52.5 -108.5q0 -69 52.5 -110.5t139.5 -41.5zM415 -18q-155 0 -252.5 88t-97.5 229q0 138 102 219.5t289 91.5l288 17v81q0 88 -56 137.5t-155 49.5q-92 0 -149.5 -41t-72.5 -113h-204
q9 146 126 238t308 92t304.5 -94t113.5 -252v-725h-207v173h-5q-45 -87 -136.5 -139t-195.5 -52zM614 1202h-181l-250 303h217z" />
    <glyph glyph-name="aacute" unicode="&#xe1;" horiz-adv-x="1061" 
d="M475 153q114 0 191.5 69.5t77.5 171.5v83l-259 -16q-97 -7 -149.5 -47.5t-52.5 -108.5q0 -69 52.5 -110.5t139.5 -41.5zM415 -18q-155 0 -252.5 88t-97.5 229q0 138 102 219.5t289 91.5l288 17v81q0 88 -56 137.5t-155 49.5q-92 0 -149.5 -41t-72.5 -113h-204
q9 146 126 238t308 92t304.5 -94t113.5 -252v-725h-207v173h-5q-45 -87 -136.5 -139t-195.5 -52zM621 1202h-181l214 303h217z" />
    <glyph glyph-name="acircumflex" unicode="&#xe2;" horiz-adv-x="1061" 
d="M475 153q114 0 191.5 69.5t77.5 171.5v83l-259 -16q-97 -7 -149.5 -47.5t-52.5 -108.5q0 -69 52.5 -110.5t139.5 -41.5zM415 -18q-155 0 -252.5 88t-97.5 229q0 138 102 219.5t289 91.5l288 17v81q0 88 -56 137.5t-155 49.5q-92 0 -149.5 -41t-72.5 -113h-204
q9 146 126 238t308 92t304.5 -94t113.5 -252v-725h-207v173h-5q-45 -87 -136.5 -139t-195.5 -52zM613 1505l269 -307h-185l-164 190h-6l-164 -190h-185l269 307h166z" />
    <glyph glyph-name="atilde" unicode="&#xe3;" horiz-adv-x="1061" 
d="M475 153q114 0 191.5 69.5t77.5 171.5v83l-259 -16q-97 -7 -149.5 -47.5t-52.5 -108.5q0 -69 52.5 -110.5t139.5 -41.5zM415 -18q-155 0 -252.5 88t-97.5 229q0 138 102 219.5t289 91.5l288 17v81q0 88 -56 137.5t-155 49.5q-92 0 -149.5 -41t-72.5 -113h-204
q9 146 126 238t308 92t304.5 -94t113.5 -252v-725h-207v173h-5q-45 -87 -136.5 -139t-195.5 -52zM668 1205q-37 0 -70.5 15t-58 36.5t-46 43t-44 36.5t-43.5 15q-35 0 -54 -35.5t-17 -98.5h-133q0 123 55.5 192t145.5 69q39 0 74 -15t59 -36.5t45.5 -43t42.5 -36.5t41 -15
q33 0 51 35t18 102h133q0 -121 -56 -192.5t-143 -71.5z" />
    <glyph glyph-name="adieresis" unicode="&#xe4;" horiz-adv-x="1061" 
d="M475 153q114 0 191.5 69.5t77.5 171.5v83l-259 -16q-97 -7 -149.5 -47.5t-52.5 -108.5q0 -69 52.5 -110.5t139.5 -41.5zM415 -18q-155 0 -252.5 88t-97.5 229q0 138 102 219.5t289 91.5l288 17v81q0 88 -56 137.5t-155 49.5q-92 0 -149.5 -41t-72.5 -113h-204
q9 146 126 238t308 92t304.5 -94t113.5 -252v-725h-207v173h-5q-45 -87 -136.5 -139t-195.5 -52zM338 1209q-50 0 -84.5 34t-34.5 83t34.5 83t84.5 34q49 0 83.5 -34t34.5 -83t-34.5 -83t-83.5 -34zM723 1209q-50 0 -84.5 34t-34.5 83t34.5 83t84.5 34q49 0 83.5 -34
t34.5 -83t-34.5 -83t-83.5 -34z" />
    <glyph glyph-name="aring" unicode="&#xe5;" horiz-adv-x="1061" 
d="M475 153q114 0 191.5 69.5t77.5 171.5v83l-259 -16q-97 -7 -149.5 -47.5t-52.5 -108.5q0 -69 52.5 -110.5t139.5 -41.5zM415 -18q-155 0 -252.5 88t-97.5 229q0 138 102 219.5t289 91.5l288 17v81q0 88 -56 137.5t-155 49.5q-92 0 -149.5 -41t-72.5 -113h-204
q9 146 126 238t308 92t304.5 -94t113.5 -252v-725h-207v173h-5q-45 -87 -136.5 -139t-195.5 -52zM530 1147q-83 0 -141.5 58t-58.5 140q0 83 59 141.5t141 58.5t141 -58.5t59 -141.5q0 -82 -58.5 -140t-141.5 -58zM530 1246q41 0 70.5 29t29.5 70q0 42 -29.5 71t-70.5 29
t-70.5 -29t-29.5 -71q0 -41 29.5 -70t70.5 -29z" />
    <glyph glyph-name="ae" unicode="&#xe6;" horiz-adv-x="1741" 
d="M1229 -20q-129 0 -229 57.5t-152 158.5h-10q-61 -102 -160.5 -158t-229.5 -56q-178 0 -282.5 86.5t-104.5 229.5q0 139 103.5 218.5t297.5 89.5l281 15v68q0 89 -62.5 147.5t-160.5 58.5q-90 0 -148.5 -43t-66.5 -112h-203q8 146 120.5 238.5t291.5 92.5q129 0 223 -50
t135 -139h8q110 189 353 189q204 0 326 -142.5t122 -382.5v-74h-729v-13q0 -136 76.5 -220t203.5 -84q87 0 148 41.5t84 112.5h206q-23 -145 -145 -237t-296 -92zM1218 897q-111 0 -184 -76t-81 -198h512q-4 124 -71 199t-176 75zM466 152q116 0 196.5 71t80.5 171v77
l-257 -15q-102 -6 -157 -45t-55 -105q0 -68 53 -111t139 -43z" />
    <glyph glyph-name="ccedilla" unicode="&#xe7;" horiz-adv-x="1058" 
d="M804 356h208q-16 -152 -119 -252.5t-264 -119.5l-47 -107q94 -1 149.5 -43.5t55.5 -117.5q0 -85 -66 -132t-173 -49q-96 -2 -147 14v109q53 -12 120 -12q121 0 121 66q0 33 -32.5 47t-105.5 14h-67v79l54 131q-199 21 -315 165t-116 378q0 250 135 397.5t360 147.5
q196 0 318 -109.5t137 -271.5h-206q-17 89 -81.5 145t-165.5 56q-126 0 -201.5 -98.5t-75.5 -266.5q0 -171 75.5 -268t203.5 -97q99 0 162.5 51.5t82.5 143.5z" />
    <glyph glyph-name="egrave" unicode="&#xe8;" horiz-adv-x="1081" 
d="M547 897q-112 0 -186 -76.5t-82 -197.5h526q-4 122 -75 198t-183 76zM804 309h205q-23 -145 -148 -237t-305 -92q-231 0 -363.5 145.5t-132.5 395.5q0 248 132.5 399t354.5 151q218 0 346 -142.5t128 -382.5v-74h-743v-13q0 -138 77 -221t206 -83q91 0 156 42t87 112z
M631 1202h-181l-250 303h217z" />
    <glyph glyph-name="eacute" unicode="&#xe9;" horiz-adv-x="1081" 
d="M547 897q-112 0 -186 -76.5t-82 -197.5h526q-4 122 -75 198t-183 76zM804 309h205q-23 -145 -148 -237t-305 -92q-231 0 -363.5 145.5t-132.5 395.5q0 248 132.5 399t354.5 151q218 0 346 -142.5t128 -382.5v-74h-743v-13q0 -138 77 -221t206 -83q91 0 156 42t87 112z
M638 1202h-181l214 303h217z" />
    <glyph glyph-name="ecircumflex" unicode="&#xea;" horiz-adv-x="1081" 
d="M547 897q-112 0 -186 -76.5t-82 -197.5h526q-4 122 -75 198t-183 76zM804 309h205q-23 -145 -148 -237t-305 -92q-231 0 -363.5 145.5t-132.5 395.5q0 248 132.5 399t354.5 151q218 0 346 -142.5t128 -382.5v-74h-743v-13q0 -138 77 -221t206 -83q91 0 156 42t87 112z
M630 1505l269 -307h-185l-164 190h-6l-164 -190h-185l269 307h166z" />
    <glyph glyph-name="edieresis" unicode="&#xeb;" horiz-adv-x="1081" 
d="M547 897q-112 0 -186 -76.5t-82 -197.5h526q-4 122 -75 198t-183 76zM804 309h205q-23 -145 -148 -237t-305 -92q-231 0 -363.5 145.5t-132.5 395.5q0 248 132.5 399t354.5 151q218 0 346 -142.5t128 -382.5v-74h-743v-13q0 -138 77 -221t206 -83q91 0 156 42t87 112z
M355 1209q-50 0 -84.5 34t-34.5 83t34.5 83t84.5 34q49 0 83.5 -34t34.5 -83t-34.5 -83t-83.5 -34zM740 1209q-50 0 -84.5 34t-34.5 83t34.5 83t84.5 34q49 0 83.5 -34t34.5 -83t-34.5 -83t-83.5 -34z" />
    <glyph glyph-name="igrave" unicode="&#xec;" horiz-adv-x="444" 
d="M114 0v1052h216v-1052h-216zM306 1202h-181l-250 303h217z" />
    <glyph glyph-name="iacute" unicode="&#xed;" horiz-adv-x="444" 
d="M114 0v1052h216v-1052h-216zM313 1202h-181l214 303h217z" />
    <glyph glyph-name="icircumflex" unicode="&#xee;" horiz-adv-x="444" 
d="M114 0v1052h216v-1052h-216zM305 1505l269 -307h-185l-164 190h-6l-164 -190h-185l269 307h166z" />
    <glyph glyph-name="idieresis" unicode="&#xef;" horiz-adv-x="444" 
d="M114 0v1052h216v-1052h-216zM30 1209q-50 0 -84.5 34t-34.5 83t34.5 83t84.5 34q49 0 83.5 -34t34.5 -83t-34.5 -83t-83.5 -34zM415 1209q-50 0 -84.5 34t-34.5 83t34.5 83t84.5 34q49 0 83.5 -34t34.5 -83t-34.5 -83t-83.5 -34z" />
    <glyph glyph-name="eth" unicode="&#xf0;" horiz-adv-x="1148" 
d="M570 -18q-228 0 -361.5 141t-133.5 385q0 235 123.5 373.5t328.5 138.5q86 0 165.5 -41.5t114.5 -105.5h15q-20 76 -68.5 162.5t-102.5 150.5l-272 -89l-42 121l222 72q-62 65 -210 182h263q69 -56 129 -122l248 82l43 -120l-195 -63q224 -291 224 -685
q0 -271 -132.5 -426.5t-358.5 -155.5zM573 850q-127 0 -202 -92.5t-75 -250.5q0 -157 75 -249.5t202 -92.5t202.5 92.5t75.5 249.5q0 156 -76 249.5t-202 93.5z" />
    <glyph glyph-name="ntilde" unicode="&#xf1;" horiz-adv-x="1115" 
d="M107 0v1052h206v-176h5q44 92 128 143t203 51q173 0 269 -103.5t96 -285.5v-681h-217v639q0 120 -56.5 182.5t-167.5 62.5q-114 0 -182 -74t-68 -197v-613h-216zM698 1205q-37 0 -70.5 15t-58 36.5t-46 43t-44 36.5t-43.5 15q-35 0 -54 -35.5t-17 -98.5h-133
q0 123 55.5 192t145.5 69q39 0 74 -15t59 -36.5t45.5 -43t42.5 -36.5t41 -15q33 0 51 35t18 102h133q0 -121 -56 -192.5t-143 -71.5z" />
    <glyph glyph-name="ograve" unicode="&#xf2;" horiz-adv-x="1118" 
d="M559 -20q-227 0 -363 146.5t-136 399.5q0 252 136 398.5t363 146.5t363 -146.5t136 -398.5q0 -253 -136 -399.5t-363 -146.5zM559 158q129 0 204 97t75 271q0 173 -75.5 270t-203.5 97t-203.5 -97t-75.5 -270q0 -174 75.5 -271t203.5 -97zM643 1202h-181l-250 303h217z
" />
    <glyph glyph-name="oacute" unicode="&#xf3;" horiz-adv-x="1118" 
d="M559 -20q-227 0 -363 146.5t-136 399.5q0 252 136 398.5t363 146.5t363 -146.5t136 -398.5q0 -253 -136 -399.5t-363 -146.5zM559 158q129 0 204 97t75 271q0 173 -75.5 270t-203.5 97t-203.5 -97t-75.5 -270q0 -174 75.5 -271t203.5 -97zM650 1202h-181l214 303h217z
" />
    <glyph glyph-name="ocircumflex" unicode="&#xf4;" horiz-adv-x="1118" 
d="M559 -20q-227 0 -363 146.5t-136 399.5q0 252 136 398.5t363 146.5t363 -146.5t136 -398.5q0 -253 -136 -399.5t-363 -146.5zM559 158q129 0 204 97t75 271q0 173 -75.5 270t-203.5 97t-203.5 -97t-75.5 -270q0 -174 75.5 -271t203.5 -97zM642 1505l269 -307h-185
l-164 190h-6l-164 -190h-185l269 307h166z" />
    <glyph glyph-name="otilde" unicode="&#xf5;" horiz-adv-x="1118" 
d="M559 -20q-227 0 -363 146.5t-136 399.5q0 252 136 398.5t363 146.5t363 -146.5t136 -398.5q0 -253 -136 -399.5t-363 -146.5zM559 158q129 0 204 97t75 271q0 173 -75.5 270t-203.5 97t-203.5 -97t-75.5 -270q0 -174 75.5 -271t203.5 -97zM697 1205q-37 0 -70.5 15
t-58 36.5t-46 43t-44 36.5t-43.5 15q-35 0 -54 -35.5t-17 -98.5h-133q0 123 55.5 192t145.5 69q39 0 74 -15t59 -36.5t45.5 -43t42.5 -36.5t41 -15q33 0 51 35t18 102h133q0 -121 -56 -192.5t-143 -71.5z" />
    <glyph glyph-name="odieresis" unicode="&#xf6;" horiz-adv-x="1118" 
d="M559 -20q-227 0 -363 146.5t-136 399.5q0 252 136 398.5t363 146.5t363 -146.5t136 -398.5q0 -253 -136 -399.5t-363 -146.5zM559 158q129 0 204 97t75 271q0 173 -75.5 270t-203.5 97t-203.5 -97t-75.5 -270q0 -174 75.5 -271t203.5 -97zM367 1209q-50 0 -84.5 34
t-34.5 83t34.5 83t84.5 34q49 0 83.5 -34t34.5 -83t-34.5 -83t-83.5 -34zM752 1209q-50 0 -84.5 34t-34.5 83t34.5 83t84.5 34q49 0 83.5 -34t34.5 -83t-34.5 -83t-83.5 -34z" />
    <glyph glyph-name="divide" unicode="&#xf7;" horiz-adv-x="1270" 
d="M636 805q-62 0 -101 38t-39 99q0 60 39.5 98.5t100.5 38.5t100.5 -38.5t39.5 -98.5t-39.5 -98.5t-100.5 -38.5zM636 68q-62 0 -101 38t-39 99q0 60 39.5 98.5t100.5 38.5t100.5 -38.5t39.5 -98.5t-39.5 -98.5t-100.5 -38.5zM1155 487h-1039v173h1039v-173z" />
    <glyph glyph-name="oslash" unicode="&#xf8;" horiz-adv-x="1118" 
d="M787 759l-369 -562q60 -39 141 -39q129 0 204 97t75 271q0 140 -51 233zM335 286l372 563q-64 44 -148 44q-128 0 -203.5 -97t-75.5 -270q0 -146 55 -240zM972 1042l-66 -101q152 -149 152 -415q0 -253 -136 -399.5t-363 -146.5q-138 0 -246 57l-56 -86l-100 65l59 90
q-156 148 -156 420q0 252 136 398.5t363 146.5q144 0 254 -61l60 91z" />
    <glyph glyph-name="ugrave" unicode="&#xf9;" horiz-adv-x="1115" 
d="M1009 1052v-1052h-207v178h-5q-91 -197 -326 -197q-172 0 -270.5 104.5t-98.5 285.5v681h216v-639q0 -121 57 -183.5t168 -62.5q116 0 183 74t67 198v613h216zM640 1202h-181l-250 303h217z" />
    <glyph glyph-name="uacute" unicode="&#xfa;" horiz-adv-x="1115" 
d="M1009 1052v-1052h-207v178h-5q-91 -197 -326 -197q-172 0 -270.5 104.5t-98.5 285.5v681h216v-639q0 -121 57 -183.5t168 -62.5q116 0 183 74t67 198v613h216zM647 1202h-181l214 303h217z" />
    <glyph glyph-name="ucircumflex" unicode="&#xfb;" horiz-adv-x="1115" 
d="M1009 1052v-1052h-207v178h-5q-91 -197 -326 -197q-172 0 -270.5 104.5t-98.5 285.5v681h216v-639q0 -121 57 -183.5t168 -62.5q116 0 183 74t67 198v613h216zM639 1505l269 -307h-185l-164 190h-6l-164 -190h-185l269 307h166z" />
    <glyph glyph-name="udieresis" unicode="&#xfc;" horiz-adv-x="1115" 
d="M1009 1052v-1052h-207v178h-5q-91 -197 -326 -197q-172 0 -270.5 104.5t-98.5 285.5v681h216v-639q0 -121 57 -183.5t168 -62.5q116 0 183 74t67 198v613h216zM364 1209q-50 0 -84.5 34t-34.5 83t34.5 83t84.5 34q49 0 83.5 -34t34.5 -83t-34.5 -83t-83.5 -34zM749 1209
q-50 0 -84.5 34t-34.5 83t34.5 83t84.5 34q49 0 83.5 -34t34.5 -83t-34.5 -83t-83.5 -34z" />
    <glyph glyph-name="yacute" unicode="&#xfd;" horiz-adv-x="1037" 
d="M211 -392q-61 0 -88 5v175q16 -4 70 -4q76 0 119 34.5t68 115.5q0 1 10 33l9 32l-380 1053h234l267 -856h3l267 856h228l-395 -1107q-67 -191 -157 -264t-255 -73zM610 1202h-181l214 303h217z" />
    <glyph glyph-name="thorn" unicode="&#xfe;" horiz-adv-x="1166" 
d="M669 1069q200 0 317.5 -146t117.5 -397q0 -250 -117.5 -397t-316.5 -147q-113 0 -198.5 46.5t-125.5 130.5h-16v-501h-215v1785h209v-566h16q47 90 134 141t195 51zM605 165q130 0 204 96t74 265t-74 265t-204 96q-128 0 -203.5 -97.5t-75.5 -263.5q0 -167 75.5 -264
t203.5 -97z" />
    <glyph glyph-name="ydieresis" unicode="&#xff;" horiz-adv-x="1037" 
d="M211 -392q-61 0 -88 5v175q16 -4 70 -4q76 0 119 34.5t68 115.5q0 1 10 33l9 32l-380 1053h234l267 -856h3l267 856h228l-395 -1107q-67 -191 -157 -264t-255 -73zM327 1209q-50 0 -84.5 34t-34.5 83t34.5 83t84.5 34q49 0 83.5 -34t34.5 -83t-34.5 -83t-83.5 -34z
M712 1209q-50 0 -84.5 34t-34.5 83t34.5 83t84.5 34q49 0 83.5 -34t34.5 -83t-34.5 -83t-83.5 -34z" />
    <glyph glyph-name="Amacron" unicode="&#x100;" horiz-adv-x="1336" 
d="M1073 0l-132 390h-550l-132 -390h-233l521 1443h242l521 -1443h-237zM663 1203l-215 -633h436l-215 633h-6zM995 1756v-127h-654v127h654z" />
    <glyph glyph-name="amacron" unicode="&#x101;" horiz-adv-x="1061" 
d="M475 153q114 0 191.5 69.5t77.5 171.5v83l-259 -16q-97 -7 -149.5 -47.5t-52.5 -108.5q0 -69 52.5 -110.5t139.5 -41.5zM415 -18q-155 0 -252.5 88t-97.5 229q0 138 102 219.5t289 91.5l288 17v81q0 88 -56 137.5t-155 49.5q-92 0 -149.5 -41t-72.5 -113h-204
q9 146 126 238t308 92t304.5 -94t113.5 -252v-725h-207v173h-5q-45 -87 -136.5 -139t-195.5 -52zM829 1382v-128h-598v128h598z" />
    <glyph glyph-name="Abreve" unicode="&#x102;" horiz-adv-x="1336" 
d="M1073 0l-132 390h-550l-132 -390h-233l521 1443h242l521 -1443h-237zM663 1203l-215 -633h436l-215 633h-6zM334 1852h146q8 -86 59 -136t129 -50t129 50t59 136h146q-9 -132 -98.5 -221.5t-235.5 -89.5t-235.5 89.5t-98.5 221.5z" />
    <glyph glyph-name="abreve" unicode="&#x103;" horiz-adv-x="1061" 
d="M475 153q114 0 191.5 69.5t77.5 171.5v83l-259 -16q-97 -7 -149.5 -47.5t-52.5 -108.5q0 -69 52.5 -110.5t139.5 -41.5zM415 -18q-155 0 -252.5 88t-97.5 229q0 138 102 219.5t289 91.5l288 17v81q0 88 -56 137.5t-155 49.5q-92 0 -149.5 -41t-72.5 -113h-204
q9 146 126 238t308 92t304.5 -94t113.5 -252v-725h-207v173h-5q-45 -87 -136.5 -139t-195.5 -52zM194 1504h146q0 -86 52.5 -139t136.5 -53t136.5 53t52.5 139h146q-1 -138 -91.5 -226t-243.5 -88t-243.5 88t-91.5 226z" />
    <glyph glyph-name="Aogonek" unicode="&#x104;" horiz-adv-x="1336" 
d="M663 1203l-215 -633h436l-215 633h-6zM1275 -423q-42 -19 -127 -19q-106 0 -174.5 55t-68.5 143q0 146 166 251l-130 383h-550l-132 -390h-233l521 1443h242l520 -1441l-24 -4q-98 -38 -153.5 -91.5t-55.5 -107.5q0 -47 33.5 -72t86.5 -25q41 0 79 9v-134z" />
    <glyph glyph-name="aogonek" unicode="&#x105;" horiz-adv-x="1061" 
d="M475 153q114 0 191.5 69.5t77.5 171.5v81l-259 -16q-97 -6 -149.5 -46t-52.5 -108q0 -69 52.5 -110.5t139.5 -41.5zM943 -407q-40 -19 -126 -19q-104 0 -170.5 53t-66.5 139q0 81 50 144.5t122 103.5v159h-5q-45 -87 -136.5 -139t-195.5 -52q-155 0 -252.5 88t-97.5 229
q0 138 101.5 218.5t289.5 91.5l288 16v80q0 87 -54.5 135t-153.5 48q-90 0 -149 -40t-72 -108h-202q5 143 125 234t304 91q188 0 302.5 -94.5t114.5 -249.5v-723l-18 -4q-78 -26 -134.5 -75t-56.5 -108q0 -46 31.5 -71t83.5 -25q40 0 78 9v-131z" />
    <glyph glyph-name="Cacute" unicode="&#x106;" horiz-adv-x="1424" 
d="M742 -24q-304 0 -482.5 201t-178.5 545q0 342 179 543.5t482 201.5q246 0 415 -138.5t197 -363.5h-222q-30 139 -136.5 222.5t-253.5 83.5q-197 0 -314.5 -149.5t-117.5 -399.5q0 -253 117 -401.5t316 -148.5q150 0 252.5 73t136.5 204h223q-41 -224 -202.5 -348.5
t-410.5 -124.5zM837 1561h-181l222 295h222z" />
    <glyph glyph-name="cacute" unicode="&#x107;" horiz-adv-x="1058" 
d="M1010 690h-206q-17 89 -81.5 145t-165.5 56q-126 0 -201.5 -98.5t-75.5 -266.5q0 -171 75.5 -268t203.5 -97q99 0 162.5 51.5t82.5 143.5h208q-17 -169 -141.5 -272.5t-313.5 -103.5q-227 0 -362 146.5t-135 399.5q0 250 135 397.5t360 147.5q196 0 318 -109.5
t137 -271.5zM640 1202h-181l214 303h217z" />
    <glyph glyph-name="Ccircumflex" unicode="&#x108;" horiz-adv-x="1424" 
d="M742 -24q-304 0 -482.5 201t-178.5 545q0 342 179 543.5t482 201.5q246 0 415 -138.5t197 -363.5h-222q-30 139 -136.5 222.5t-253.5 83.5q-197 0 -314.5 -149.5t-117.5 -399.5q0 -253 117 -401.5t316 -148.5q150 0 252.5 73t136.5 204h223q-41 -224 -202.5 -348.5
t-410.5 -124.5zM655 1846h166l278 -305h-186l-172 192h-6l-172 -192h-186z" />
    <glyph glyph-name="ccircumflex" unicode="&#x109;" horiz-adv-x="1058" 
d="M1010 690h-206q-17 89 -81.5 145t-165.5 56q-126 0 -201.5 -98.5t-75.5 -266.5q0 -171 75.5 -268t203.5 -97q99 0 162.5 51.5t82.5 143.5h208q-17 -169 -141.5 -272.5t-313.5 -103.5q-227 0 -362 146.5t-135 399.5q0 250 135 397.5t360 147.5q196 0 318 -109.5
t137 -271.5zM632 1505l269 -307h-185l-164 190h-6l-164 -190h-185l269 307h166z" />
    <glyph glyph-name="Cdotaccent" unicode="&#x10a;" horiz-adv-x="1424" 
d="M742 -24q-304 0 -482.5 201t-178.5 545q0 342 179 543.5t482 201.5q246 0 415 -138.5t197 -363.5h-222q-30 139 -136.5 222.5t-253.5 83.5q-197 0 -314.5 -149.5t-117.5 -399.5q0 -253 117 -401.5t316 -148.5q150 0 252.5 73t136.5 204h223q-41 -224 -202.5 -348.5
t-410.5 -124.5zM738 1578q-55 0 -93 38.5t-38 92.5q0 55 38 93t93 38t93 -38t38 -93q0 -54 -38 -92.5t-93 -38.5z" />
    <glyph glyph-name="cdotaccent" unicode="&#x10b;" horiz-adv-x="1058" 
d="M1010 690h-206q-17 89 -81.5 145t-165.5 56q-126 0 -201.5 -98.5t-75.5 -266.5q0 -171 75.5 -268t203.5 -97q99 0 162.5 51.5t82.5 143.5h208q-17 -169 -141.5 -272.5t-313.5 -103.5q-227 0 -362 146.5t-135 399.5q0 250 135 397.5t360 147.5q196 0 318 -109.5
t137 -271.5zM549 1209q-55 0 -94.5 39t-39.5 94q0 54 39.5 93t94.5 39t94 -39t39 -93q0 -55 -39 -94t-94 -39z" />
    <glyph glyph-name="Ccaron" unicode="&#x10c;" horiz-adv-x="1424" 
d="M742 -24q-304 0 -482.5 201t-178.5 545q0 342 179 543.5t482 201.5q246 0 415 -138.5t197 -363.5h-222q-30 139 -136.5 222.5t-253.5 83.5q-197 0 -314.5 -149.5t-117.5 -399.5q0 -253 117 -401.5t316 -148.5q150 0 252.5 73t136.5 204h223q-41 -224 -202.5 -348.5
t-410.5 -124.5zM655 1549l-278 305h186l172 -192h6l172 192h186l-278 -305h-166z" />
    <glyph glyph-name="ccaron" unicode="&#x10d;" horiz-adv-x="1058" 
d="M1010 690h-206q-17 89 -81.5 145t-165.5 56q-126 0 -201.5 -98.5t-75.5 -266.5q0 -171 75.5 -268t203.5 -97q99 0 162.5 51.5t82.5 143.5h208q-17 -169 -141.5 -272.5t-313.5 -103.5q-227 0 -362 146.5t-135 399.5q0 250 135 397.5t360 147.5q196 0 318 -109.5
t137 -271.5zM632 1198h-166l-269 307h185l164 -193h6l164 193h185z" />
    <glyph glyph-name="Dcaron" unicode="&#x10e;" horiz-adv-x="1405" 
d="M133 1443h509q322 0 502.5 -189t180.5 -530q0 -342 -180 -533t-503 -191h-509v1443zM357 1250v-1056h264q230 0 352.5 136t122.5 392q0 255 -123 391.5t-352 136.5h-264zM501 1547l-278 305h186l172 -192h6l172 192h186l-278 -305h-166z" />
    <glyph glyph-name="dcaron" unicode="&#x10f;" horiz-adv-x="1338" 
d="M1198 1443h166l-33 -478h-133v478zM502 -18q-200 0 -321 148t-121 396t120.5 395.5t319.5 147.5q111 0 198 -51.5t132 -140.5h4v566h217v-1443h-210v179h-4q-47 -92 -134.5 -144.5t-200.5 -52.5zM559 887q-128 0 -203 -97.5t-75 -263.5q0 -167 75 -264t203 -97
q125 0 201 98.5t76 262.5q0 163 -76 262t-201 99z" />
    <glyph glyph-name="Dcroat" unicode="&#x110;" horiz-adv-x="1420" 
d="M372 194h264q230 0 352.5 136t122.5 392q0 255 -123 391.5t-352 136.5h-264v-418h269v-184h-269v-454zM148 1443h509q322 0 502.5 -189t180.5 -530q0 -342 -180 -533t-503 -191h-509v648h-118v184h118v611z" />
    <glyph glyph-name="dcroat" unicode="&#x111;" horiz-adv-x="1185" 
d="M559 172q125 0 201 97t76 257q0 159 -76 256t-201 97q-126 0 -202 -96.5t-76 -256.5q0 -162 76 -258t202 -96zM1167 1341v-131h-116v-1210h-210v179h-4q-47 -91 -134 -140.5t-201 -49.5q-198 0 -320 147t-122 390t121.5 390t318.5 147q112 0 198.5 -49t131.5 -137h4v333
h-226v131h226v102h217v-102h116z" />
    <glyph glyph-name="Emacron" unicode="&#x112;" horiz-adv-x="1146" 
d="M1049 194v-194h-916v1443h916v-193h-692v-422h655v-186h-655v-448h692zM918 1756v-127h-654v127h654z" />
    <glyph glyph-name="emacron" unicode="&#x113;" horiz-adv-x="1081" 
d="M547 897q-112 0 -186 -76.5t-82 -197.5h526q-4 122 -75 198t-183 76zM804 309h205q-23 -145 -148 -237t-305 -92q-231 0 -363.5 145.5t-132.5 395.5q0 248 132.5 399t354.5 151q218 0 346 -142.5t128 -382.5v-74h-743v-13q0 -138 77 -221t206 -83q91 0 156 42t87 112z
M846 1382v-128h-598v128h598z" />
    <glyph glyph-name="Ebreve" unicode="&#x114;" horiz-adv-x="1146" 
d="M1049 194v-194h-916v1443h916v-193h-692v-422h655v-186h-655v-448h692zM257 1852h146q8 -86 59 -136t129 -50t129 50t59 136h146q-9 -132 -98.5 -221.5t-235.5 -89.5t-235.5 89.5t-98.5 221.5z" />
    <glyph glyph-name="ebreve" unicode="&#x115;" horiz-adv-x="1081" 
d="M547 897q-112 0 -186 -76.5t-82 -197.5h526q-4 122 -75 198t-183 76zM804 309h205q-23 -145 -148 -237t-305 -92q-231 0 -363.5 145.5t-132.5 395.5q0 248 132.5 399t354.5 151q218 0 346 -142.5t128 -382.5v-74h-743v-13q0 -138 77 -221t206 -83q91 0 156 42t87 112z
M211 1504h146q0 -86 52.5 -139t136.5 -53t136.5 53t52.5 139h146q-1 -138 -91.5 -226t-243.5 -88t-243.5 88t-91.5 226z" />
    <glyph glyph-name="Edotaccent" unicode="&#x116;" horiz-adv-x="1146" 
d="M1049 194v-194h-916v1443h916v-193h-692v-422h655v-186h-655v-448h692zM591 1576q-55 0 -93 38.5t-38 92.5q0 55 38 93t93 38t93 -38t38 -93q0 -54 -38 -92.5t-93 -38.5z" />
    <glyph glyph-name="edotaccent" unicode="&#x117;" horiz-adv-x="1081" 
d="M547 897q-112 0 -186 -76.5t-82 -197.5h526q-4 122 -75 198t-183 76zM804 309h205q-23 -145 -148 -237t-305 -92q-231 0 -363.5 145.5t-132.5 395.5q0 248 132.5 399t354.5 151q218 0 346 -142.5t128 -382.5v-74h-743v-13q0 -138 77 -221t206 -83q91 0 156 42t87 112z
M547 1209q-55 0 -94.5 39t-39.5 94q0 54 39.5 93t94.5 39t94 -39t39 -93q0 -55 -39 -94t-94 -39z" />
    <glyph glyph-name="Eogonek" unicode="&#x118;" horiz-adv-x="1146" 
d="M133 0v1443h916v-193h-692v-422h655v-186h-655v-448h692v-183l-25 -8q-101 -37 -159.5 -93t-58.5 -111q0 -47 33.5 -72t86.5 -25q41 0 79 9v-134q-42 -19 -128 -19q-105 0 -173.5 55t-68.5 143q0 135 149 240v4h-651z" />
    <glyph glyph-name="eogonek" unicode="&#x119;" horiz-adv-x="1081" 
d="M731 -426q-104 0 -171 53t-67 139q0 120 133 216v4q-27 -6 -70 -6q-231 0 -363.5 145.5t-132.5 395.5q0 248 132.5 399t354.5 151q218 0 346 -142.5t128 -382.5v-74h-743v-13q0 -138 77 -221t206 -83q91 0 156 42t87 112h205q-24 -141 -183 -269q-164 -130 -164 -227
q0 -47 32.5 -72.5t84.5 -25.5q40 0 78 9v-131q-40 -19 -126 -19zM547 897q-112 0 -186 -76.5t-82 -197.5h526q-4 122 -75 198t-183 76z" />
    <glyph glyph-name="Ecaron" unicode="&#x11a;" horiz-adv-x="1146" 
d="M1049 194v-194h-916v1443h916v-193h-692v-422h655v-186h-655v-448h692zM508 1547l-278 305h186l172 -192h6l172 192h186l-278 -305h-166z" />
    <glyph glyph-name="ecaron" unicode="&#x11b;" horiz-adv-x="1081" 
d="M547 897q-112 0 -186 -76.5t-82 -197.5h526q-4 122 -75 198t-183 76zM804 309h205q-23 -145 -148 -237t-305 -92q-231 0 -363.5 145.5t-132.5 395.5q0 248 132.5 399t354.5 151q218 0 346 -142.5t128 -382.5v-74h-743v-13q0 -138 77 -221t206 -83q91 0 156 42t87 112z
M630 1198h-166l-269 307h185l164 -193h6l164 193h185z" />
    <glyph glyph-name="Gcircumflex" unicode="&#x11c;" horiz-adv-x="1462" 
d="M1376 600q0 -293 -164.5 -458.5t-457.5 -165.5q-310 0 -491.5 202.5t-181.5 549.5q0 341 180.5 540t489.5 199q241 0 408.5 -131t205.5 -347h-230q-40 134 -141 208t-242 74q-207 0 -324.5 -143.5t-117.5 -397.5q0 -259 120 -408.5t326 -149.5q175 0 286 102.5t113 266.5
v25h-373v181h594v-147zM664 1844h166l278 -305h-186l-172 192h-6l-172 -192h-186z" />
    <glyph glyph-name="gcircumflex" unicode="&#x11d;" horiz-adv-x="1157" 
d="M555 175q127 0 203.5 96t76.5 258t-76.5 260t-203.5 98q-125 0 -199.5 -97t-74.5 -261t74.5 -259t199.5 -95zM557 -396q-184 0 -311.5 88t-147.5 226h217q23 -66 90.5 -106t159.5 -40q125 0 197 65.5t72 174.5v173h-4q-45 -87 -133.5 -138t-199.5 -51q-199 0 -318 144.5
t-119 389.5q0 248 119.5 393.5t322.5 145.5q111 0 199 -52.5t136 -144.5h4v180h210v-1033q0 -188 -134.5 -301.5t-359.5 -113.5zM642 1505l269 -307h-185l-164 190h-6l-164 -190h-185l269 307h166z" />
    <glyph glyph-name="Gbreve" unicode="&#x11e;" horiz-adv-x="1462" 
d="M1376 600q0 -293 -164.5 -458.5t-457.5 -165.5q-310 0 -491.5 202.5t-181.5 549.5q0 341 180.5 540t489.5 199q241 0 408.5 -131t205.5 -347h-230q-40 134 -141 208t-242 74q-207 0 -324.5 -143.5t-117.5 -397.5q0 -259 120 -408.5t326 -149.5q175 0 286 102.5t113 266.5
v25h-373v181h594v-147zM413 1852h146q8 -86 59 -136t129 -50t129 50t59 136h146q-9 -132 -98.5 -221.5t-235.5 -89.5t-235.5 89.5t-98.5 221.5z" />
    <glyph glyph-name="gbreve" unicode="&#x11f;" horiz-adv-x="1157" 
d="M555 175q127 0 203.5 96t76.5 258t-76.5 260t-203.5 98q-125 0 -199.5 -97t-74.5 -261t74.5 -259t199.5 -95zM557 -396q-184 0 -311.5 88t-147.5 226h217q23 -66 90.5 -106t159.5 -40q125 0 197 65.5t72 174.5v173h-4q-45 -87 -133.5 -138t-199.5 -51q-199 0 -318 144.5
t-119 389.5q0 248 119.5 393.5t322.5 145.5q111 0 199 -52.5t136 -144.5h4v180h210v-1033q0 -188 -134.5 -301.5t-359.5 -113.5zM223 1504h146q0 -86 52.5 -139t136.5 -53t136.5 53t52.5 139h146q-1 -138 -91.5 -226t-243.5 -88t-243.5 88t-91.5 226z" />
    <glyph glyph-name="Gdotaccent" unicode="&#x120;" horiz-adv-x="1462" 
d="M1376 600q0 -293 -164.5 -458.5t-457.5 -165.5q-310 0 -491.5 202.5t-181.5 549.5q0 341 180.5 540t489.5 199q241 0 408.5 -131t205.5 -347h-230q-40 134 -141 208t-242 74q-207 0 -324.5 -143.5t-117.5 -397.5q0 -259 120 -408.5t326 -149.5q175 0 286 102.5t113 266.5
v25h-373v181h594v-147zM747 1576q-55 0 -93 38.5t-38 92.5q0 55 38 93t93 38t93 -38t38 -93q0 -54 -38 -92.5t-93 -38.5z" />
    <glyph glyph-name="gdotaccent" unicode="&#x121;" horiz-adv-x="1157" 
d="M555 175q127 0 203.5 96t76.5 258t-76.5 260t-203.5 98q-125 0 -199.5 -97t-74.5 -261t74.5 -259t199.5 -95zM557 -396q-184 0 -311.5 88t-147.5 226h217q23 -66 90.5 -106t159.5 -40q125 0 197 65.5t72 174.5v173h-4q-45 -87 -133.5 -138t-199.5 -51q-199 0 -318 144.5
t-119 389.5q0 248 119.5 393.5t322.5 145.5q111 0 199 -52.5t136 -144.5h4v180h210v-1033q0 -188 -134.5 -301.5t-359.5 -113.5zM559 1209q-55 0 -94.5 39t-39.5 94q0 54 39.5 93t94.5 39t94 -39t39 -93q0 -55 -39 -94t-94 -39z" />
    <glyph glyph-name="Gcommaaccent" unicode="&#x122;" horiz-adv-x="1462" 
d="M1376 600q0 -293 -164.5 -458.5t-457.5 -165.5q-310 0 -491.5 202.5t-181.5 549.5q0 341 180.5 540t489.5 199q241 0 408.5 -131t205.5 -347h-230q-40 134 -141 208t-242 74q-207 0 -324.5 -143.5t-117.5 -397.5q0 -259 120 -408.5t326 -149.5q175 0 286 102.5t113 266.5
v25h-373v181h594v-147zM719 -481h-159l116 352h190z" />
    <glyph glyph-name="gcommaaccent" unicode="&#x123;" horiz-adv-x="1157" 
d="M555 175q127 0 203.5 96t76.5 258t-76.5 260t-203.5 98q-125 0 -199.5 -97t-74.5 -261t74.5 -259t199.5 -95zM557 -396q-184 0 -311.5 88t-147.5 226h217q23 -66 90.5 -106t159.5 -40q125 0 197 65.5t72 174.5v173h-4q-45 -87 -133.5 -138t-199.5 -51q-199 0 -318 144.5
t-119 389.5q0 248 119.5 393.5t322.5 145.5q111 0 199 -52.5t136 -144.5h4v180h210v-1033q0 -188 -134.5 -301.5t-359.5 -113.5zM587 1533h159l-116 -352h-190z" />
    <glyph glyph-name="Hcircumflex" unicode="&#x124;" horiz-adv-x="1454" 
d="M1322 0h-224v639h-741v-639h-224v1443h224v-610h741v610h224v-1443zM644 1844h166l278 -305h-186l-172 192h-6l-172 -192h-186z" />
    <glyph glyph-name="hcircumflex" unicode="&#x125;" horiz-adv-x="1137" 
d="M115 0v1443h214v-567h5q44 93 129 143.5t204 50.5q172 0 270.5 -106t98.5 -286v-678h-217v636q0 118 -58.5 183t-171.5 65q-119 0 -188.5 -75.5t-69.5 -200.5v-608h-216zM141 1844h166l278 -305h-186l-172 192h-6l-172 -192h-186z" />
    <glyph glyph-name="Hbar" unicode="&#x126;" horiz-adv-x="1464" 
d="M1103 833v234h-741v-234h741zM1451 1234v-167h-124v-1067h-224v639h-741v-639h-224v1067h-125v167h125v209h224v-209h741v209h224v-209h124z" />
    <glyph glyph-name="hbar" unicode="&#x127;" horiz-adv-x="1142" 
d="M334 876h5q43 93 128 143.5t204 50.5q173 0 271 -106t98 -286v-678h-216v636q0 118 -59 183t-171 65q-120 0 -189 -75t-69 -201v-608h-217v1210h-101v131h101v102h215v-102h241v-131h-241v-334z" />
    <glyph glyph-name="Itilde" unicode="&#x128;" horiz-adv-x="490" 
d="M357 0h-224v1443h224v-1443zM380 1574q-37 0 -70.5 15t-58 36.5t-46 43t-44 36.5t-43.5 15q-35 0 -54 -35.5t-17 -98.5h-133q0 123 55.5 192t145.5 69q39 0 74 -15t59 -36.5t45.5 -43t42.5 -36.5t41 -15q33 0 51 35t18 102h133q0 -121 -56 -192.5t-143 -71.5z" />
    <glyph glyph-name="itilde" unicode="&#x129;" horiz-adv-x="444" 
d="M114 0v1052h216v-1052h-216zM360 1205q-37 0 -70.5 15t-58 36.5t-46 43t-44 36.5t-43.5 15q-35 0 -54 -35.5t-17 -98.5h-133q0 123 55.5 192t145.5 69q39 0 74 -15t59 -36.5t45.5 -43t42.5 -36.5t41 -15q33 0 51 35t18 102h133q0 -121 -56 -192.5t-143 -71.5z" />
    <glyph glyph-name="Imacron" unicode="&#x12a;" horiz-adv-x="490" 
d="M357 0h-224v1443h224v-1443zM572 1756v-127h-654v127h654z" />
    <glyph glyph-name="imacron" unicode="&#x12b;" horiz-adv-x="444" 
d="M114 0v1052h216v-1052h-216zM476 1382v-128h-508v128h508z" />
    <glyph glyph-name="Ibreve" unicode="&#x12c;" horiz-adv-x="490" 
d="M357 0h-224v1443h224v-1443zM-89 1852h146q8 -86 59 -136t129 -50t129 50t59 136h146q-9 -132 -98.5 -221.5t-235.5 -89.5t-235.5 89.5t-98.5 221.5z" />
    <glyph glyph-name="ibreve" unicode="&#x12d;" horiz-adv-x="444" 
d="M114 0v1052h216v-1052h-216zM-114 1504h146q0 -86 52.5 -139t136.5 -53t136.5 53t52.5 139h146q-1 -138 -91.5 -226t-243.5 -88t-243.5 88t-91.5 226z" />
    <glyph glyph-name="Iogonek" unicode="&#x12e;" horiz-adv-x="490" 
d="M133 -14v1457h224v-1440l-12 -4q-172 -101 -172 -199q0 -47 34 -72.5t88 -25.5q39 0 80 9v-134q-40 -19 -130 -19q-105 0 -173 55t-68 143q0 125 129 230z" />
    <glyph glyph-name="iogonek" unicode="&#x12f;" horiz-adv-x="444" 
d="M222 1198q-52 0 -88.5 36t-36.5 87q0 52 36.5 88t88.5 36q53 0 89.5 -36t36.5 -88q0 -51 -37 -87t-89 -36zM114 -11v1063h216v-1045l-20 -8q-79 -46 -117.5 -89.5t-38.5 -98.5q0 -46 33 -71t86 -25q35 0 78 9v-131q-40 -19 -124 -19q-106 0 -173 54t-67 140
q0 59 32.5 117t94.5 104z" />
    <glyph glyph-name="Idotaccent" unicode="&#x130;" horiz-adv-x="490" 
d="M357 0h-224v1443h224v-1443zM245 1576q-55 0 -93 38.5t-38 92.5q0 55 38 93t93 38t93 -38t38 -93q0 -54 -38 -92.5t-93 -38.5z" />
    <glyph glyph-name="dotlessi" unicode="&#x131;" horiz-adv-x="444" 
d="M114 0v1052h216v-1052h-216z" />
    <glyph glyph-name="IJ" unicode="&#x132;" horiz-adv-x="1550" 
d="M357 0h-224v1443h224v-1443zM528 370h220q2 -90 61.5 -146t153.5 -56q110 0 168.5 64.5t58.5 188.5v1022h224v-1023q0 -214 -119 -333t-330 -119q-195 0 -316 111t-121 291z" />
    <glyph glyph-name="ij" unicode="&#x133;" horiz-adv-x="908" 
d="M114 0v1052h216v-1052h-216zM222 1206q-52 0 -88.5 36t-36.5 87q0 52 36.5 88t88.5 36q53 0 89.5 -36t36.5 -88q0 -51 -37 -87t-89 -36zM784 1052v-1102q0 -161 -84.5 -238.5t-259.5 -77.5q-44 0 -50 2v170q2 0 15.5 -0.5t15.5 -0.5q80 0 113.5 33t33.5 113v1101h216z
M676 1206q-52 0 -88.5 36t-36.5 87q0 52 36.5 88t88.5 36q53 0 89.5 -36t36.5 -88q0 -51 -37 -87t-89 -36z" />
    <glyph glyph-name="Jcircumflex" unicode="&#x134;" horiz-adv-x="1060" 
d="M38 370h220q2 -90 61.5 -146t153.5 -56q110 0 168.5 64.5t58.5 188.5v1022h224v-1023q0 -214 -119 -333t-330 -119q-195 0 -316 111t-121 291zM730 1844h166l278 -305h-186l-172 192h-6l-172 -192h-186z" />
    <glyph glyph-name="jcircumflex" unicode="&#x135;" horiz-adv-x="444" 
d="M330 1052v-1102q0 -161 -84.5 -238.5t-259.5 -77.5q-44 0 -50 2v170q2 0 15.5 -0.5t15.5 -0.5q80 0 113.5 33t33.5 113v1101h216zM304 1505l269 -307h-185l-164 190h-6l-164 -190h-185l269 307h166z" />
    <glyph glyph-name="Kcommaaccent" unicode="&#x136;" horiz-adv-x="1293" 
d="M357 0h-224v1443h224v-687h9l603 687h266l-572 -639l620 -804h-278l-500 650l-148 -169v-481zM601 -481h-159l116 352h190z" />
    <glyph glyph-name="kcommaaccent" unicode="&#x137;" horiz-adv-x="1033" 
d="M333 601l425 451h254l-436 -453l453 -599h-251l-357 467l-90 -89v-378h-216v1443h216v-842h2zM521 -481h-159l116 352h190z" />
    <glyph glyph-name="Lacute" unicode="&#x139;" horiz-adv-x="1088" 
d="M1029 194v-194h-896v1443h224v-1249h672zM344 1559h-181l222 295h222z" />
    <glyph glyph-name="lacute" unicode="&#x13a;" horiz-adv-x="446" 
d="M115 0v1443h216v-1443h-216zM322 1559h-181l222 295h222z" />
    <glyph glyph-name="Lcommaaccent" unicode="&#x13b;" horiz-adv-x="1088" 
d="M1029 194v-194h-896v1443h224v-1249h672zM549 -481h-159l116 352h190z" />
    <glyph glyph-name="lcommaaccent" unicode="&#x13c;" horiz-adv-x="446" 
d="M115 0v1443h216v-1443h-216zM195 -481h-159l116 352h190z" />
    <glyph glyph-name="Lcaron" unicode="&#x13d;" horiz-adv-x="1088" 
d="M620 1443h197l-50 -493h-147v493zM1029 194v-194h-896v1443h224v-1249h672z" />
    <glyph glyph-name="lcaron" unicode="&#x13e;" horiz-adv-x="622" 
d="M478 1450h167l-34 -478h-133v478zM115 0v1443h216v-1443h-216z" />
    <glyph glyph-name="Lslash" unicode="&#x141;" horiz-adv-x="1092" 
d="M362 194h672v-194h-896v677l-114 -54v164l114 54v602h224v-496l320 151v-163l-320 -152v-589z" />
    <glyph glyph-name="lslash" unicode="&#x142;" horiz-adv-x="476" 
d="M461 989v-161l-115 -59v-769h-216v660l-115 -59v161l115 59v622h216v-513z" />
    <glyph glyph-name="Nacute" unicode="&#x143;" horiz-adv-x="1443" 
d="M351 0h-218v1443h203l748 -1064h8v1064h218v-1443h-202l-748 1063h-9v-1063zM821 1559h-181l222 295h222z" />
    <glyph glyph-name="nacute" unicode="&#x144;" horiz-adv-x="1115" 
d="M107 0v1052h206v-176h5q44 92 128 143t203 51q173 0 269 -103.5t96 -285.5v-681h-217v639q0 120 -56.5 182.5t-167.5 62.5q-114 0 -182 -74t-68 -197v-613h-216zM651 1202h-181l214 303h217z" />
    <glyph glyph-name="Ncommaaccent" unicode="&#x145;" horiz-adv-x="1443" 
d="M351 0h-218v1443h203l748 -1064h8v1064h218v-1443h-202l-748 1063h-9v-1063zM694 -481h-159l116 352h190z" />
    <glyph glyph-name="ncommaaccent" unicode="&#x146;" horiz-adv-x="1115" 
d="M107 0v1052h206v-176h5q44 92 128 143t203 51q173 0 269 -103.5t96 -285.5v-681h-217v639q0 120 -56.5 182.5t-167.5 62.5q-114 0 -182 -74t-68 -197v-613h-216zM539 -481h-159l116 352h190z" />
    <glyph glyph-name="Ncaron" unicode="&#x147;" horiz-adv-x="1443" 
d="M351 0h-218v1443h203l748 -1064h8v1064h218v-1443h-202l-748 1063h-9v-1063zM639 1547l-278 305h186l172 -192h6l172 192h186l-278 -305h-166z" />
    <glyph glyph-name="ncaron" unicode="&#x148;" horiz-adv-x="1115" 
d="M107 0v1052h206v-176h5q44 92 128 143t203 51q173 0 269 -103.5t96 -285.5v-681h-217v639q0 120 -56.5 182.5t-167.5 62.5q-114 0 -182 -74t-68 -197v-613h-216zM643 1198h-166l-269 307h185l164 -193h6l164 193h185z" />
    <glyph glyph-name="Omacron" unicode="&#x14c;" horiz-adv-x="1513" 
d="M757 1467q311 0 493.5 -201t182.5 -545t-182 -544.5t-494 -200.5t-494 200.5t-182 544.5t182 545t494 201zM757 1270q-206 0 -326.5 -148t-120.5 -401q0 -252 120.5 -400t326.5 -148q205 0 325.5 148t120.5 400q0 253 -120.5 401t-325.5 148zM1084 1756v-127h-654v127
h654z" />
    <glyph glyph-name="omacron" unicode="&#x14d;" horiz-adv-x="1118" 
d="M559 -20q-227 0 -363 146.5t-136 399.5q0 252 136 398.5t363 146.5t363 -146.5t136 -398.5q0 -253 -136 -399.5t-363 -146.5zM559 158q129 0 204 97t75 271q0 173 -75.5 270t-203.5 97t-203.5 -97t-75.5 -270q0 -174 75.5 -271t203.5 -97zM858 1382v-128h-598v128h598z
" />
    <glyph glyph-name="Obreve" unicode="&#x14e;" horiz-adv-x="1513" 
d="M757 1467q311 0 493.5 -201t182.5 -545t-182 -544.5t-494 -200.5t-494 200.5t-182 544.5t182 545t494 201zM757 1270q-206 0 -326.5 -148t-120.5 -401q0 -252 120.5 -400t326.5 -148q205 0 325.5 148t120.5 400q0 253 -120.5 401t-325.5 148zM423 1852h146q8 -86 59 -136
t129 -50t129 50t59 136h146q-9 -132 -98.5 -221.5t-235.5 -89.5t-235.5 89.5t-98.5 221.5z" />
    <glyph glyph-name="obreve" unicode="&#x14f;" horiz-adv-x="1118" 
d="M559 -20q-227 0 -363 146.5t-136 399.5q0 252 136 398.5t363 146.5t363 -146.5t136 -398.5q0 -253 -136 -399.5t-363 -146.5zM559 158q129 0 204 97t75 271q0 173 -75.5 270t-203.5 97t-203.5 -97t-75.5 -270q0 -174 75.5 -271t203.5 -97zM223 1504h146q0 -86 52.5 -139
t136.5 -53t136.5 53t52.5 139h146q-1 -138 -91.5 -226t-243.5 -88t-243.5 88t-91.5 226z" />
    <glyph glyph-name="Ohungarumlaut" unicode="&#x150;" horiz-adv-x="1513" 
d="M757 1467q311 0 493.5 -201t182.5 -545t-182 -544.5t-494 -200.5t-494 200.5t-182 544.5t182 545t494 201zM757 1270q-206 0 -326.5 -148t-120.5 -401q0 -252 120.5 -400t326.5 -148q205 0 325.5 148t120.5 400q0 253 -120.5 401t-325.5 148zM1031 1559h-181l222 295h222
zM683 1559h-182l222 295h222z" />
    <glyph glyph-name="ohungarumlaut" unicode="&#x151;" horiz-adv-x="1118" 
d="M559 -20q-227 0 -363 146.5t-136 399.5q0 252 136 398.5t363 146.5t363 -146.5t136 -398.5q0 -253 -136 -399.5t-363 -146.5zM559 158q129 0 204 97t75 271q0 173 -75.5 270t-203.5 97t-203.5 -97t-75.5 -270q0 -174 75.5 -271t203.5 -97zM643 1202l194 303h206
l-236 -303h-164zM308 1202l194 303h206l-237 -303h-163z" />
    <glyph glyph-name="OE" unicode="&#x152;" horiz-adv-x="2216" 
d="M764 1271q-208 0 -330 -148.5t-122 -401.5q0 -252 122 -400.5t330 -148.5t330 148.5t122 400.5t-122.5 401t-329.5 149zM1230 0v231q-67 -121 -196 -189.5t-287 -68.5q-303 0 -484 203t-181 545t181.5 545.5t484.5 203.5q160 0 285.5 -66.5t196.5 -189.5v229h889v-193
h-676v-422h638v-186h-638v-448h676v-194h-889z" />
    <glyph glyph-name="oe" unicode="&#x153;" horiz-adv-x="1855" 
d="M1341 -20q-125 0 -230 54.5t-160 145.5h-10q-134 -200 -386 -200q-226 0 -360.5 148t-134.5 397t134 397.5t360 148.5q255 0 387 -208h10q54 96 154 152t226 56q212 0 338.5 -143.5t126.5 -381.5v-74h-739v-17q0 -134 78 -217t204 -83q89 0 154 41.5t86 108.5h206
q-22 -140 -147.5 -232.5t-296.5 -92.5zM1578 623q-3 122 -73 198t-181 76t-185 -76.5t-82 -197.5h521zM277 525q0 -170 74 -267t204 -97q131 0 204.5 96.5t73.5 267.5q0 172 -73.5 269t-204.5 97t-204.5 -97.5t-73.5 -268.5z" />
    <glyph glyph-name="Racute" unicode="&#x154;" horiz-adv-x="1257" 
d="M357 1255v-519h314q130 0 201 68t71 192q0 121 -74 190t-204 69h-308zM357 555v-555h-224v1443h559q222 0 352 -119.5t130 -321.5q0 -147 -74.5 -257.5t-205.5 -154.5l323 -590h-258l-294 555h-308zM663 1559h-181l222 295h222z" />
    <glyph glyph-name="racute" unicode="&#x155;" horiz-adv-x="672" 
d="M107 0v1052h206v-179h5q26 92 93 144t160 52q31 0 74 -8v-201q-29 12 -97 12q-104 0 -164.5 -65t-60.5 -177v-630h-216zM460 1202h-181l214 303h217z" />
    <glyph glyph-name="Rcommaaccent" unicode="&#x156;" horiz-adv-x="1257" 
d="M357 1255v-519h314q130 0 201 68t71 192q0 121 -74 190t-204 69h-308zM357 555v-555h-224v1443h559q222 0 352 -119.5t130 -321.5q0 -147 -74.5 -257.5t-205.5 -154.5l323 -590h-258l-294 555h-308zM536 -481h-159l116 352h190z" />
    <glyph glyph-name="rcommaaccent" unicode="&#x157;" horiz-adv-x="672" 
d="M107 0v1052h206v-179h5q26 92 93 144t160 52q31 0 74 -8v-201q-29 12 -97 12q-104 0 -164.5 -65t-60.5 -177v-630h-216zM187 -481h-159l116 352h190z" />
    <glyph glyph-name="Rcaron" unicode="&#x158;" horiz-adv-x="1257" 
d="M357 1255v-519h314q130 0 201 68t71 192q0 121 -74 190t-204 69h-308zM357 555v-555h-224v1443h559q222 0 352 -119.5t130 -321.5q0 -147 -74.5 -257.5t-205.5 -154.5l323 -590h-258l-294 555h-308zM481 1547l-278 305h186l172 -192h6l172 192h186l-278 -305h-166z" />
    <glyph glyph-name="rcaron" unicode="&#x159;" horiz-adv-x="672" 
d="M107 0v1052h206v-179h5q26 92 93 144t160 52q31 0 74 -8v-201q-29 12 -97 12q-104 0 -164.5 -65t-60.5 -177v-630h-216zM452 1198h-166l-269 307h185l164 -193h6l164 193h185z" />
    <glyph glyph-name="Sacute" unicode="&#x15a;" horiz-adv-x="1244" 
d="M69 402h221q12 -107 107 -172t238 -65q136 0 224.5 63t88.5 160q0 84 -63 137.5t-203 87.5l-187 45q-199 48 -293.5 143t-94.5 246q0 186 146.5 303t378.5 117q228 0 372 -116.5t149 -303.5h-218q-10 107 -92.5 169t-213.5 62q-130 0 -211.5 -60t-81.5 -156
q0 -76 61 -124.5t201 -83.5l159 -39q222 -52 320.5 -146.5t98.5 -253.5q0 -202 -150 -320.5t-407 -118.5q-241 0 -390.5 115.5t-159.5 310.5zM732 1559h-181l222 295h222z" />
    <glyph glyph-name="sacute" unicode="&#x15b;" horiz-adv-x="990" 
d="M88 754q0 141 114 229t298 88q175 0 287.5 -88.5t117.5 -229.5h-203q-8 72 -63 113t-145 41q-88 0 -141.5 -39t-53.5 -101q0 -96 161 -136l177 -41q159 -38 225.5 -103.5t66.5 -182.5q0 -144 -121.5 -234t-315.5 -90q-185 0 -301.5 88t-129.5 234h214q13 -76 71 -116.5
t156 -40.5q97 0 153.5 37.5t56.5 101.5q0 51 -34 81t-116 51l-188 46q-286 69 -286 292zM591 1202h-181l214 303h217z" />
    <glyph glyph-name="Scircumflex" unicode="&#x15c;" horiz-adv-x="1244" 
d="M69 402h221q12 -107 107 -172t238 -65q136 0 224.5 63t88.5 160q0 84 -63 137.5t-203 87.5l-187 45q-199 48 -293.5 143t-94.5 246q0 186 146.5 303t378.5 117q228 0 372 -116.5t149 -303.5h-218q-10 107 -92.5 169t-213.5 62q-130 0 -211.5 -60t-81.5 -156
q0 -76 61 -124.5t201 -83.5l159 -39q222 -52 320.5 -146.5t98.5 -253.5q0 -202 -150 -320.5t-407 -118.5q-241 0 -390.5 115.5t-159.5 310.5zM550 1844h166l278 -305h-186l-172 192h-6l-172 -192h-186z" />
    <glyph glyph-name="scircumflex" unicode="&#x15d;" horiz-adv-x="990" 
d="M88 754q0 141 114 229t298 88q175 0 287.5 -88.5t117.5 -229.5h-203q-8 72 -63 113t-145 41q-88 0 -141.5 -39t-53.5 -101q0 -96 161 -136l177 -41q159 -38 225.5 -103.5t66.5 -182.5q0 -144 -121.5 -234t-315.5 -90q-185 0 -301.5 88t-129.5 234h214q13 -76 71 -116.5
t156 -40.5q97 0 153.5 37.5t56.5 101.5q0 51 -34 81t-116 51l-188 46q-286 69 -286 292zM583 1505l269 -307h-185l-164 190h-6l-164 -190h-185l269 307h166z" />
    <glyph glyph-name="Scedilla" unicode="&#x15e;" horiz-adv-x="1244" 
d="M598 854l159 -39q222 -52 320.5 -146.5t98.5 -253.5q0 -186 -128 -302t-351 -134l-45 -102q94 -1 149.5 -43.5t55.5 -117.5q0 -85 -66 -132t-173 -49q-96 -2 -147 14v109q53 -12 120 -12q121 0 121 66q0 33 -32.5 47t-105.5 14h-67v79l52 126q-216 14 -348 128t-142 296
h221q12 -107 107 -172t238 -65q136 0 224.5 63t88.5 160q0 84 -63 137.5t-203 87.5l-187 45q-199 48 -293.5 143t-94.5 246q0 186 146.5 303t378.5 117q228 0 372 -116.5t149 -303.5h-218q-10 107 -92.5 169t-213.5 62q-130 0 -211.5 -60t-81.5 -156q0 -76 61 -124.5
t201 -83.5z" />
    <glyph glyph-name="scedilla" unicode="&#x15f;" horiz-adv-x="990" 
d="M460 631l177 -41q159 -38 225.5 -103.5t66.5 -182.5q0 -128 -98.5 -215t-260.5 -105l-47 -107q94 -1 149.5 -43.5t55.5 -117.5q0 -85 -66 -132t-173 -49q-96 -2 -147 14v109q53 -12 120 -12q121 0 121 66q0 33 -32.5 47t-105.5 14h-67v79l54 131q-161 14 -260 100
t-111 219h214q13 -76 71 -116.5t156 -40.5q97 0 153.5 37.5t56.5 101.5q0 51 -34 81t-116 51l-188 46q-286 69 -286 292q0 141 114 229t298 88q175 0 287.5 -88.5t117.5 -229.5h-203q-8 72 -63 113t-145 41q-88 0 -141.5 -39t-53.5 -101q0 -96 161 -136z" />
    <glyph glyph-name="Scaron" unicode="&#x160;" horiz-adv-x="1244" 
d="M69 402h221q12 -107 107 -172t238 -65q136 0 224.5 63t88.5 160q0 84 -63 137.5t-203 87.5l-187 45q-199 48 -293.5 143t-94.5 246q0 186 146.5 303t378.5 117q228 0 372 -116.5t149 -303.5h-218q-10 107 -92.5 169t-213.5 62q-130 0 -211.5 -60t-81.5 -156
q0 -76 61 -124.5t201 -83.5l159 -39q222 -52 320.5 -146.5t98.5 -253.5q0 -202 -150 -320.5t-407 -118.5q-241 0 -390.5 115.5t-159.5 310.5zM550 1547l-278 305h186l172 -192h6l172 192h186l-278 -305h-166z" />
    <glyph glyph-name="scaron" unicode="&#x161;" horiz-adv-x="990" 
d="M88 754q0 141 114 229t298 88q175 0 287.5 -88.5t117.5 -229.5h-203q-8 72 -63 113t-145 41q-88 0 -141.5 -39t-53.5 -101q0 -96 161 -136l177 -41q159 -38 225.5 -103.5t66.5 -182.5q0 -144 -121.5 -234t-315.5 -90q-185 0 -301.5 88t-129.5 234h214q13 -76 71 -116.5
t156 -40.5q97 0 153.5 37.5t56.5 101.5q0 51 -34 81t-116 51l-188 46q-286 69 -286 292zM583 1198h-166l-269 307h185l164 -193h6l164 193h185z" />
    <glyph glyph-name="Tcedilla" unicode="&#x162;" horiz-adv-x="1205" 
d="M715 0h-18l-54 -123q94 -1 149.5 -43.5t55.5 -117.5q0 -85 -66 -132t-173 -49q-96 -2 -147 14v109q53 -12 120 -12q121 0 121 66q0 33 -32.5 47t-105.5 14h-67v79l61 148h-68v1250h-442v193h1107v-193h-441v-1250z" />
    <glyph glyph-name="tcedilla" unicode="&#x163;" horiz-adv-x="657" 
d="M461 -7l-51 -116q94 -1 149.5 -43.5t55.5 -117.5q0 -85 -66 -132t-173 -49q-96 -2 -147 14v109q53 -12 120 -12q121 0 121 66q0 33 -32.5 47t-105.5 14h-67v79l65 157q-84 24 -122 88.5t-38 179.5v604h-153v171h153v249h217v-249h200v-171h-200v-580q0 -68 31 -100
t97 -32q48 0 71 5v-171q-40 -10 -120 -10h-5z" />
    <glyph glyph-name="Tcaron" unicode="&#x164;" horiz-adv-x="1205" 
d="M715 0h-224v1250h-442v193h1107v-193h-441v-1250zM520 1547l-278 305h186l172 -192h6l172 192h186l-278 -305h-166z" />
    <glyph glyph-name="tcaron" unicode="&#x165;" horiz-adv-x="762" 
d="M532 1673h166l-32 -478h-134v478zM170 1301h217v-249h200v-171h-200v-580q0 -68 31 -100t97 -32q48 0 71 5v-171q-40 -10 -120 -10q-159 0 -227.5 65.5t-68.5 218.5v604h-153v171h153v249z" />
    <glyph glyph-name="Tbar" unicode="&#x166;" horiz-adv-x="1218" 
d="M1160 1250h-441v-454h299v-168h-299v-628h-224v628h-295v168h295v454h-442v193h1107v-193z" />
    <glyph glyph-name="tbar" unicode="&#x167;" horiz-adv-x="678" 
d="M597 478h-210v-177q0 -68 31 -100t97 -32q48 0 71 5v-171q-40 -10 -120 -10q-159 0 -227.5 65.5t-68.5 218.5v201h-149v145h149v258h-153v171h153v249h217v-249h200v-171h-200v-258h210v-145z" />
    <glyph glyph-name="Utilde" unicode="&#x168;" horiz-adv-x="1434" 
d="M357 1443v-917q0 -158 95.5 -254.5t264.5 -96.5t265 96.5t96 254.5v917h223v-936q0 -237 -158 -384t-426 -147t-426 147t-158 384v936h224zM852 1574q-37 0 -70.5 15t-58 36.5t-46 43t-44 36.5t-43.5 15q-35 0 -54 -35.5t-17 -98.5h-133q0 123 55.5 192t145.5 69
q39 0 74 -15t59 -36.5t45.5 -43t42.5 -36.5t41 -15q33 0 51 35t18 102h133q0 -121 -56 -192.5t-143 -71.5z" />
    <glyph glyph-name="utilde" unicode="&#x169;" horiz-adv-x="1115" 
d="M1009 1052v-1052h-207v178h-5q-91 -197 -326 -197q-172 0 -270.5 104.5t-98.5 285.5v681h216v-639q0 -121 57 -183.5t168 -62.5q116 0 183 74t67 198v613h216zM694 1205q-37 0 -70.5 15t-58 36.5t-46 43t-44 36.5t-43.5 15q-35 0 -54 -35.5t-17 -98.5h-133
q0 123 55.5 192t145.5 69q39 0 74 -15t59 -36.5t45.5 -43t42.5 -36.5t41 -15q33 0 51 35t18 102h133q0 -121 -56 -192.5t-143 -71.5z" />
    <glyph glyph-name="Umacron" unicode="&#x16a;" horiz-adv-x="1434" 
d="M357 1443v-917q0 -158 95.5 -254.5t264.5 -96.5t265 96.5t96 254.5v917h223v-936q0 -237 -158 -384t-426 -147t-426 147t-158 384v936h224zM1044 1756v-127h-654v127h654z" />
    <glyph glyph-name="umacron" unicode="&#x16b;" horiz-adv-x="1115" 
d="M1009 1052v-1052h-207v178h-5q-91 -197 -326 -197q-172 0 -270.5 104.5t-98.5 285.5v681h216v-639q0 -121 57 -183.5t168 -62.5q116 0 183 74t67 198v613h216zM855 1382v-128h-598v128h598z" />
    <glyph glyph-name="Ubreve" unicode="&#x16c;" horiz-adv-x="1434" 
d="M357 1443v-917q0 -158 95.5 -254.5t264.5 -96.5t265 96.5t96 254.5v917h223v-936q0 -237 -158 -384t-426 -147t-426 147t-158 384v936h224zM383 1852h146q8 -86 59 -136t129 -50t129 50t59 136h146q-9 -132 -98.5 -221.5t-235.5 -89.5t-235.5 89.5t-98.5 221.5z" />
    <glyph glyph-name="ubreve" unicode="&#x16d;" horiz-adv-x="1115" 
d="M1009 1052v-1052h-207v178h-5q-91 -197 -326 -197q-172 0 -270.5 104.5t-98.5 285.5v681h216v-639q0 -121 57 -183.5t168 -62.5q116 0 183 74t67 198v613h216zM220 1504h146q0 -86 52.5 -139t136.5 -53t136.5 53t52.5 139h146q-1 -138 -91.5 -226t-243.5 -88t-243.5 88
t-91.5 226z" />
    <glyph glyph-name="Uring" unicode="&#x16e;" horiz-adv-x="1434" 
d="M357 1443v-917q0 -158 95.5 -254.5t264.5 -96.5t265 96.5t96 254.5v917h223v-936q0 -237 -158 -384t-426 -147t-426 147t-158 384v936h224zM717 1517q-81 0 -138.5 57t-57.5 138q0 80 57.5 137.5t138.5 57.5t138.5 -57.5t57.5 -137.5q0 -81 -57.5 -138t-138.5 -57z
M717 1613q41 0 70 29t29 70q0 40 -29 69t-70 29t-70 -29t-29 -69q0 -41 29 -70t70 -29z" />
    <glyph glyph-name="uring" unicode="&#x16f;" horiz-adv-x="1115" 
d="M1009 1052v-1052h-207v178h-5q-91 -197 -326 -197q-172 0 -270.5 104.5t-98.5 285.5v681h216v-639q0 -121 57 -183.5t168 -62.5q116 0 183 74t67 198v613h216zM556 1147q-83 0 -141.5 58t-58.5 140q0 83 59 141.5t141 58.5t141 -58.5t59 -141.5q0 -82 -58.5 -140
t-141.5 -58zM556 1246q41 0 70.5 29t29.5 70q0 42 -29.5 71t-70.5 29t-70.5 -29t-29.5 -71q0 -41 29.5 -70t70.5 -29z" />
    <glyph glyph-name="Uhungarumlaut" unicode="&#x170;" horiz-adv-x="1434" 
d="M357 1443v-917q0 -158 95.5 -254.5t264.5 -96.5t265 96.5t96 254.5v917h223v-936q0 -237 -158 -384t-426 -147t-426 147t-158 384v936h224zM991 1559h-181l222 295h222zM643 1559h-182l222 295h222z" />
    <glyph glyph-name="uhungarumlaut" unicode="&#x171;" horiz-adv-x="1115" 
d="M1009 1052v-1052h-207v178h-5q-91 -197 -326 -197q-172 0 -270.5 104.5t-98.5 285.5v681h216v-639q0 -121 57 -183.5t168 -62.5q116 0 183 74t67 198v613h216zM640 1202l194 303h206l-236 -303h-164zM305 1202l194 303h206l-237 -303h-163z" />
    <glyph glyph-name="Uogonek" unicode="&#x172;" horiz-adv-x="1434" 
d="M948 -442q-106 0 -174 54.5t-68 141.5q0 130 142 238v4q-68 -20 -131 -20q-264 0 -424 145t-160 386v936h224v-917q0 -161 97.5 -256t262.5 -95q166 0 263.5 95t97.5 256v917h223v-936q0 -139 -60 -251t-190 -220q-87 -71 -131 -127.5t-44 -108.5q0 -47 33.5 -72.5
t86.5 -25.5q41 0 79 9v-134q-40 -19 -127 -19z" />
    <glyph glyph-name="uogonek" unicode="&#x173;" horiz-adv-x="1115" 
d="M994 -407q-40 -19 -126 -19q-104 0 -170.5 53t-66.5 139q0 80 49.5 144t121.5 104v164h-5q-91 -197 -326 -197q-172 0 -270.5 104.5t-98.5 285.5v681h216v-639q0 -121 57 -183.5t168 -62.5q116 0 183 74t67 198v613h216v-1054l-17 -4q-78 -26 -134.5 -75t-56.5 -108
q0 -46 31 -71t83 -25q41 0 79 9v-131z" />
    <glyph glyph-name="Wcircumflex" unicode="&#x174;" horiz-adv-x="1923" 
d="M956 1088l-311 -1088h-212l-389 1443h233l267 -1130h8l305 1130h208l306 -1130h8l267 1130h233l-390 -1443h-211l-312 1088h-10zM878 1844h166l278 -305h-186l-172 192h-6l-172 -192h-186z" />
    <glyph glyph-name="wcircumflex" unicode="&#x175;" horiz-adv-x="1520" 
d="M1495 1052l-288 -1052h-225l-221 788h-5l-219 -788h-223l-289 1052h216l192 -828h4l219 828h208l220 -828h5l192 828h214zM843 1505l269 -307h-185l-164 190h-6l-164 -190h-185l269 307h166z" />
    <glyph glyph-name="Ycircumflex" unicode="&#x176;" horiz-adv-x="1293" 
d="M758 0h-224v591l-508 852h250l368 -637h7l368 637h248l-509 -852v-591zM563 1844h166l278 -305h-186l-172 192h-6l-172 -192h-186z" />
    <glyph glyph-name="ycircumflex" unicode="&#x177;" horiz-adv-x="1037" 
d="M211 -392q-61 0 -88 5v175q16 -4 70 -4q76 0 119 34.5t68 115.5q0 1 10 33l9 32l-380 1053h234l267 -856h3l267 856h228l-395 -1107q-67 -191 -157 -264t-255 -73zM602 1505l269 -307h-185l-164 190h-6l-164 -190h-185l269 307h166z" />
    <glyph glyph-name="Ydieresis" unicode="&#x178;" horiz-adv-x="1293" 
d="M758 0h-224v591l-508 852h250l368 -637h7l368 637h248l-509 -852v-591zM454 1592q-50 0 -84.5 34t-34.5 83t34.5 83t84.5 34q49 0 83.5 -34t34.5 -83t-34.5 -83t-83.5 -34zM839 1592q-50 0 -84.5 34t-34.5 83t34.5 83t84.5 34q49 0 83.5 -34t34.5 -83t-34.5 -83
t-83.5 -34z" />
    <glyph glyph-name="Zacute" unicode="&#x179;" horiz-adv-x="1273" 
d="M95 0v153l790 1089v8h-766v193h1041v-153l-787 -1089v-7h806v-194h-1084zM736 1559h-181l222 295h222z" />
    <glyph glyph-name="zacute" unicode="&#x17a;" horiz-adv-x="986" 
d="M85 0v139l561 737v4h-557v172h805v-148l-547 -728v-4h553v-172h-815zM584 1202h-181l214 303h217z" />
    <glyph glyph-name="Zdotaccent" unicode="&#x17b;" horiz-adv-x="1273" 
d="M95 0v153l790 1089v8h-766v193h1041v-153l-787 -1089v-7h806v-194h-1084zM637 1576q-55 0 -93 38.5t-38 92.5q0 55 38 93t93 38t93 -38t38 -93q0 -54 -38 -92.5t-93 -38.5z" />
    <glyph glyph-name="zdotaccent" unicode="&#x17c;" horiz-adv-x="986" 
d="M85 0v139l561 737v4h-557v172h805v-148l-547 -728v-4h553v-172h-815zM493 1209q-55 0 -94.5 39t-39.5 94q0 54 39.5 93t94.5 39t94 -39t39 -93q0 -55 -39 -94t-94 -39z" />
    <glyph glyph-name="Zcaron" unicode="&#x17d;" horiz-adv-x="1273" 
d="M95 0v153l790 1089v8h-766v193h1041v-153l-787 -1089v-7h806v-194h-1084zM554 1547l-278 305h186l172 -192h6l172 192h186l-278 -305h-166z" />
    <glyph glyph-name="zcaron" unicode="&#x17e;" horiz-adv-x="986" 
d="M85 0v139l561 737v4h-557v172h805v-148l-547 -728v-4h553v-172h-815zM576 1198h-166l-269 307h185l164 -193h6l164 193h185z" />
    <glyph glyph-name="uni04D8" unicode="&#x4d8;" horiz-adv-x="1456" 
d="M725 -35q-292 0 -461.5 193.5t-172.5 523.5v89h1037v23q1 214 -118 350.5t-307 136.5q-268 0 -364 -220h-229q62 196 220 306.5t376 110.5q302 0 480.5 -205.5t178.5 -552.5q0 -340 -176.5 -547.5t-463.5 -207.5zM728 162q160 0 267.5 116t128.5 312h-792
q15 -200 120.5 -314t275.5 -114z" />
    <glyph glyph-name="uni04D8" unicode="&#x18f;" horiz-adv-x="1456" 
d="M725 -35q-292 0 -461.5 193.5t-172.5 523.5v89h1037v23q1 214 -118 350.5t-307 136.5q-268 0 -364 -220h-229q62 196 220 306.5t376 110.5q302 0 480.5 -205.5t178.5 -552.5q0 -340 -176.5 -547.5t-463.5 -207.5zM728 162q160 0 267.5 116t128.5 312h-792
q15 -200 120.5 -314t275.5 -114z" />
    <glyph glyph-name="florin" unicode="&#x192;" horiz-adv-x="1270" 
d="M1224 1425v-184q-83 39 -183 39q-111 0 -170 -49.5t-75 -156.5l-30 -201h362v-167h-386l-52 -349q-28 -194 -133 -287.5t-292 -93.5q-124 0 -217 44v193q37 -22 91 -36t102 -14q107 0 161.5 51t71.5 168l48 324h-330v167h355l32 219q55 372 436 372q123 0 209 -39z" />
    <glyph glyph-name="Ohorn" unicode="&#x1a0;" horiz-adv-x="1534" 
d="M757 -24q-312 0 -494 200.5t-182 544.5t182 545t494 201q80 0 212.5 -21.5t208.5 -21.5q59 0 84 21t25 70v148h185v-206q0 -83 -52 -133t-139 -50h-60v-6q91 -66 151.5 -222.5t60.5 -324.5q0 -344 -182 -544.5t-494 -200.5zM757 173q205 0 325.5 148t120.5 400
q0 253 -120.5 401t-325.5 148q-206 0 -326.5 -148t-120.5 -401q0 -252 120.5 -400t326.5 -148z" />
    <glyph glyph-name="ohorn" unicode="&#x1a1;" horiz-adv-x="1177" 
d="M559 158q129 0 204 97t75 271q0 173 -75 270t-204 97q-128 0 -203.5 -97t-75.5 -270q0 -174 75.5 -271t203.5 -97zM1058 519q0 -246 -136.5 -392.5t-360.5 -146.5q-229 0 -365 147t-136 399q0 251 136 398t363 147q73 0 153.5 -17.5t119.5 -17.5q58 0 81.5 19.5
t23.5 67.5v136h183v-196q0 -75 -42 -120.5t-112 -45.5h-33v-5q125 -141 125 -373z" />
    <glyph glyph-name="Uhorn" unicode="&#x1af;" horiz-adv-x="1609" 
d="M717 -24q-264 0 -424 145t-160 386v936h224v-917q0 -161 97.5 -256t262.5 -95q166 0 263.5 94.5t97.5 256.5v917h229q87 0 87 84v167h185v-207q0 -92 -56 -144t-155 -52h-67v-784q0 -241 -160 -386t-424 -145z" />
    <glyph glyph-name="uhorn" unicode="&#x1b0;" horiz-adv-x="1252" 
d="M797 178q-91 -197 -326 -197q-172 0 -270.5 104.5t-98.5 285.5v681h216v-639q0 -121 57 -183.5t168 -62.5q116 0 183 74t67 198v613h200q83 0 83 80v150h184v-190q0 -89 -54.5 -140t-151.5 -51h-45v-901h-207v178h-5z" />
    <glyph glyph-name="uni01C4" unicode="&#x1c4;" horiz-adv-x="2683" 
d="M133 1443h509q322 0 502.5 -189t180.5 -530q0 -342 -180 -533t-503 -191h-509v1443zM357 1250v-1056h264q230 0 352.5 136t122.5 392q0 255 -123 391.5t-352 136.5h-264zM1504 0v153l790 1089v8h-766v193h1041v-153l-787 -1089v-7h806v-194h-1084zM1963 1547l-278 305
h186l172 -192h6l172 192h186l-278 -305h-166z" />
    <glyph glyph-name="uni01C5" unicode="&#x1c5;" horiz-adv-x="2422" 
d="M133 1443h509q322 0 502.5 -189t180.5 -530q0 -342 -180 -533t-503 -191h-509v1443zM357 1250v-1056h264q230 0 352.5 136t122.5 392q0 255 -123 391.5t-352 136.5h-264zM1495 0v139l561 737v4h-557v172h805v-148l-547 -728v-4h553v-172h-815zM1986 1198h-166l-269 307
h185l164 -193h6l164 193h185z" />
    <glyph glyph-name="uni01C6" unicode="&#x1c6;" horiz-adv-x="2206" 
d="M502 -18q-200 0 -321 148t-121 396t120.5 395.5t319.5 147.5q111 0 198 -51.5t132 -140.5h4v566h217v-1443h-210v179h-4q-47 -92 -134.5 -144.5t-200.5 -52.5zM559 887q-128 0 -203 -97.5t-75 -263.5q0 -167 75 -264t203 -97q125 0 201 98.5t76 262.5q0 163 -76 262
t-201 99zM1279 0v139l561 737v4h-557v172h805v-148l-547 -728v-4h553v-172h-815zM1770 1198h-166l-269 307h185l164 -193h6l164 193h185z" />
    <glyph glyph-name="uni01C7" unicode="&#x1c7;" horiz-adv-x="2148" 
d="M1029 194v-194h-896v1443h224v-1249h672zM1126 370h220q2 -90 61.5 -146t153.5 -56q110 0 168.5 64.5t58.5 188.5v1022h224v-1023q0 -214 -119 -333t-330 -119q-195 0 -316 111t-121 291z" />
    <glyph glyph-name="uni01C8" unicode="&#x1c8;" horiz-adv-x="1542" 
d="M1029 194v-194h-896v1443h224v-1249h672zM1418 1052v-1102q0 -161 -84.5 -238.5t-259.5 -77.5q-44 0 -50 2v170q2 0 15.5 -0.5t15.5 -0.5q80 0 113.5 33t33.5 113v1101h216zM1310 1206q-52 0 -88.5 36t-36.5 87q0 52 36.5 88t88.5 36q53 0 89.5 -36t36.5 -88
q0 -51 -37 -87t-89 -36z" />
    <glyph glyph-name="uni01C9" unicode="&#x1c9;" horiz-adv-x="910" 
d="M115 0v1443h216v-1443h-216zM786 1052v-1102q0 -161 -84.5 -238.5t-259.5 -77.5q-44 0 -50 2v170q2 0 15.5 -0.5t15.5 -0.5q80 0 113.5 33t33.5 113v1101h216zM678 1206q-52 0 -88.5 36t-36.5 87q0 52 36.5 88t88.5 36q53 0 89.5 -36t36.5 -88q0 -51 -37 -87t-89 -36z
" />
    <glyph glyph-name="uni01CA" unicode="&#x1ca;" horiz-adv-x="2503" 
d="M351 0h-218v1443h203l748 -1064h8v1064h218v-1443h-202l-748 1063h-9v-1063zM1481 370h220q2 -90 61.5 -146t153.5 -56q110 0 168.5 64.5t58.5 188.5v1022h224v-1023q0 -214 -119 -333t-330 -119q-195 0 -316 111t-121 291z" />
    <glyph glyph-name="uni01CB" unicode="&#x1cb;" horiz-adv-x="1897" 
d="M351 0h-218v1443h203l748 -1064h8v1064h218v-1443h-202l-748 1063h-9v-1063zM1773 1052v-1102q0 -161 -84.5 -238.5t-259.5 -77.5q-44 0 -50 2v170q2 0 15.5 -0.5t15.5 -0.5q80 0 113.5 33t33.5 113v1101h216zM1665 1206q-52 0 -88.5 36t-36.5 87q0 52 36.5 88t88.5 36
q53 0 89.5 -36t36.5 -88q0 -51 -37 -87t-89 -36z" />
    <glyph glyph-name="uni01CC" unicode="&#x1cc;" horiz-adv-x="1599" 
d="M107 0v1052h206v-176h5q44 92 128 143t203 51q173 0 269 -103.5t96 -285.5v-681h-217v639q0 120 -56.5 182.5t-167.5 62.5q-114 0 -182 -74t-68 -197v-613h-216zM1475 1052v-1102q0 -161 -84.5 -238.5t-259.5 -77.5q-44 0 -50 2v170q2 0 15.5 -0.5t15.5 -0.5
q80 0 113.5 33t33.5 113v1101h216zM1367 1206q-52 0 -88.5 36t-36.5 87q0 52 36.5 88t88.5 36q53 0 89.5 -36t36.5 -88q0 -51 -37 -87t-89 -36z" />
    <glyph glyph-name="Acaron" unicode="&#x1cd;" horiz-adv-x="1336" 
d="M1073 0l-132 390h-550l-132 -390h-233l521 1443h242l521 -1443h-237zM663 1203l-215 -633h436l-215 633h-6zM585 1547l-278 305h186l172 -192h6l172 192h186l-278 -305h-166z" />
    <glyph glyph-name="acaron" unicode="&#x1ce;" horiz-adv-x="1061" 
d="M475 153q114 0 191.5 69.5t77.5 171.5v83l-259 -16q-97 -7 -149.5 -47.5t-52.5 -108.5q0 -69 52.5 -110.5t139.5 -41.5zM415 -18q-155 0 -252.5 88t-97.5 229q0 138 102 219.5t289 91.5l288 17v81q0 88 -56 137.5t-155 49.5q-92 0 -149.5 -41t-72.5 -113h-204
q9 146 126 238t308 92t304.5 -94t113.5 -252v-725h-207v173h-5q-45 -87 -136.5 -139t-195.5 -52zM613 1198h-166l-269 307h185l164 -193h6l164 193h185z" />
    <glyph glyph-name="Icaron" unicode="&#x1cf;" horiz-adv-x="490" 
d="M357 0h-224v1443h224v-1443zM162 1547l-278 305h186l172 -192h6l172 192h186l-278 -305h-166z" />
    <glyph glyph-name="icaron" unicode="&#x1d0;" horiz-adv-x="444" 
d="M114 0v1052h216v-1052h-216zM305 1198h-166l-269 307h185l164 -193h6l164 193h185z" />
    <glyph glyph-name="Ocaron" unicode="&#x1d1;" horiz-adv-x="1513" 
d="M757 1467q311 0 493.5 -201t182.5 -545t-182 -544.5t-494 -200.5t-494 200.5t-182 544.5t182 545t494 201zM757 1270q-206 0 -326.5 -148t-120.5 -401q0 -252 120.5 -400t326.5 -148q205 0 325.5 148t120.5 400q0 253 -120.5 401t-325.5 148zM674 1547l-278 305h186
l172 -192h6l172 192h186l-278 -305h-166z" />
    <glyph glyph-name="ocaron" unicode="&#x1d2;" horiz-adv-x="1118" 
d="M559 -20q-227 0 -363 146.5t-136 399.5q0 252 136 398.5t363 146.5t363 -146.5t136 -398.5q0 -253 -136 -399.5t-363 -146.5zM559 158q129 0 204 97t75 271q0 173 -75.5 270t-203.5 97t-203.5 -97t-75.5 -270q0 -174 75.5 -271t203.5 -97zM642 1198h-166l-269 307h185
l164 -193h6l164 193h185z" />
    <glyph glyph-name="Ucaron" unicode="&#x1d3;" horiz-adv-x="1434" 
d="M357 1443v-917q0 -158 95.5 -254.5t264.5 -96.5t265 96.5t96 254.5v917h223v-936q0 -237 -158 -384t-426 -147t-426 147t-158 384v936h224zM634 1547l-278 305h186l172 -192h6l172 192h186l-278 -305h-166z" />
    <glyph glyph-name="ucaron" unicode="&#x1d4;" horiz-adv-x="1115" 
d="M1009 1052v-1052h-207v178h-5q-91 -197 -326 -197q-172 0 -270.5 104.5t-98.5 285.5v681h216v-639q0 -121 57 -183.5t168 -62.5q116 0 183 74t67 198v613h216zM639 1198h-166l-269 307h185l164 -193h6l164 193h185z" />
    <glyph glyph-name="Udieresismacron" unicode="&#x1d5;" horiz-adv-x="1434" 
d="M357 1443v-917q0 -158 95.5 -254.5t264.5 -96.5t265 96.5t96 254.5v917h223v-936q0 -237 -158 -384t-426 -147t-426 147t-158 384v936h224zM532 1779q47 0 80.5 -33.5t33.5 -80.5t-33.5 -80.5t-80.5 -33.5q-48 0 -81.5 33.5t-33.5 80.5t33.5 80.5t81.5 33.5zM390 2042
h654v-127h-654v127zM902 1779q48 0 81.5 -33.5t33.5 -80.5t-33.5 -80.5t-81.5 -33.5q-47 0 -80.5 33.5t-33.5 80.5t33.5 80.5t80.5 33.5z" />
    <glyph glyph-name="udieresismacron" unicode="&#x1d6;" horiz-adv-x="1115" 
d="M1009 1052v-1052h-207v178h-5q-91 -197 -326 -197q-172 0 -270.5 104.5t-98.5 285.5v681h216v-639q0 -121 57 -183.5t168 -62.5q116 0 183 74t67 198v613h216zM363 1167q-50 0 -84.5 34t-34.5 83t34.5 83t84.5 34q49 0 83.5 -34t34.5 -83t-34.5 -83t-83.5 -34zM749 1167
q-49 0 -83.5 34t-34.5 83t34.5 83t83.5 34q50 0 84.5 -34t34.5 -83t-34.5 -83t-84.5 -34zM855 1671v-128h-598v128h598z" />
    <glyph glyph-name="Udieresisacute" unicode="&#x1d7;" horiz-adv-x="1434" 
d="M357 1443v-917q0 -158 95.5 -254.5t264.5 -96.5t265 96.5t96 254.5v917h223v-936q0 -237 -158 -384t-426 -147t-426 147t-158 384v936h224zM622 1847l174 228h197l-200 -228h-171zM532 1551q-48 0 -81.5 33.5t-33.5 80.5t33.5 80.5t81.5 33.5q47 0 80.5 -33.5t33.5 -80.5
t-33.5 -80.5t-80.5 -33.5zM902 1551q-47 0 -80.5 33.5t-33.5 80.5t33.5 80.5t80.5 33.5q48 0 81.5 -33.5t33.5 -80.5t-33.5 -80.5t-81.5 -33.5z" />
    <glyph glyph-name="udieresisacute" unicode="&#x1d8;" horiz-adv-x="1115" 
d="M1009 1052v-1052h-207v178h-5q-91 -197 -326 -197q-172 0 -270.5 104.5t-98.5 285.5v681h216v-639q0 -121 57 -183.5t168 -62.5q116 0 183 74t67 198v613h216zM457 1517l207 293h193l-232 -293h-168zM364 1169q-50 0 -84.5 34t-34.5 83t34.5 83t84.5 34q49 0 83.5 -34
t34.5 -83t-34.5 -83t-83.5 -34zM749 1169q-50 0 -84.5 34t-34.5 83t34.5 83t84.5 34q49 0 83.5 -34t34.5 -83t-34.5 -83t-83.5 -34z" />
    <glyph glyph-name="Udieresiscaron" unicode="&#x1d9;" horiz-adv-x="1434" 
d="M357 1443v-917q0 -158 95.5 -254.5t264.5 -96.5t265 96.5t96 254.5v917h223v-936q0 -237 -158 -384t-426 -147t-426 147t-158 384v936h224zM629 1836l-261 245h191l154 -146h8l154 146h191l-261 -245h-176zM532 1779q47 0 80.5 -33.5t33.5 -80.5t-33.5 -80.5t-80.5 -33.5
q-48 0 -81.5 33.5t-33.5 80.5t33.5 80.5t81.5 33.5zM902 1779q48 0 81.5 -33.5t33.5 -80.5t-33.5 -80.5t-81.5 -33.5q-47 0 -80.5 33.5t-33.5 80.5t33.5 80.5t80.5 33.5z" />
    <glyph glyph-name="udieresiscaron" unicode="&#x1da;" horiz-adv-x="1115" 
d="M1009 1052v-1052h-207v178h-5q-91 -197 -326 -197q-172 0 -270.5 104.5t-98.5 285.5v681h216v-639q0 -121 57 -183.5t168 -62.5q116 0 183 74t67 198v613h216zM363 1167q-50 0 -84.5 34t-34.5 83t34.5 83t84.5 34q49 0 83.5 -34t34.5 -83t-34.5 -83t-83.5 -34zM749 1167
q-49 0 -83.5 34t-34.5 83t34.5 83t83.5 34q50 0 84.5 -34t34.5 -83t-34.5 -83t-84.5 -34zM640 1490h-168l-269 291h186l164 -179h6l164 179h186z" />
    <glyph glyph-name="Udieresisgrave" unicode="&#x1db;" horiz-adv-x="1434" 
d="M357 1443v-917q0 -158 95.5 -254.5t264.5 -96.5t265 96.5t96 254.5v917h223v-936q0 -237 -158 -384t-426 -147t-426 147t-158 384v936h224zM804 1847h-171l-200 228h197zM532 1551q-48 0 -81.5 33.5t-33.5 80.5t33.5 80.5t81.5 33.5q47 0 80.5 -33.5t33.5 -80.5
t-33.5 -80.5t-80.5 -33.5zM902 1551q-47 0 -80.5 33.5t-33.5 80.5t33.5 80.5t80.5 33.5q48 0 81.5 -33.5t33.5 -80.5t-33.5 -80.5t-81.5 -33.5z" />
    <glyph glyph-name="udieresisgrave" unicode="&#x1dc;" horiz-adv-x="1115" 
d="M1009 1052v-1052h-207v178h-5q-91 -197 -326 -197q-172 0 -270.5 104.5t-98.5 285.5v681h216v-639q0 -121 57 -183.5t168 -62.5q116 0 183 74t67 198v613h216zM654 1516h-163l-232 294h193zM364 1169q-50 0 -84.5 34t-34.5 83t34.5 83t84.5 34q49 0 83.5 -34t34.5 -83
t-34.5 -83t-83.5 -34zM749 1169q-50 0 -84.5 34t-34.5 83t34.5 83t84.5 34q49 0 83.5 -34t34.5 -83t-34.5 -83t-83.5 -34z" />
    <glyph glyph-name="uni04D9" unicode="&#x4d9;" horiz-adv-x="1100" 
d="M542 154q114 0 188 75.5t82 200.5h-526q2 -125 72.5 -200.5t183.5 -75.5zM287 765h-206q37 141 158 223.5t300 82.5q228 0 359.5 -146t131.5 -397q0 -250 -132.5 -399t-356.5 -149q-218 0 -345 142t-127 386l3 74h741v11q0 137 -76 221t-199 84q-185 0 -251 -133z" />
    <glyph glyph-name="uni04D9" unicode="&#x259;" horiz-adv-x="1100" 
d="M542 154q114 0 188 75.5t82 200.5h-526q2 -125 72.5 -200.5t183.5 -75.5zM287 765h-206q37 141 158 223.5t300 82.5q228 0 359.5 -146t131.5 -397q0 -250 -132.5 -399t-356.5 -149q-218 0 -345 142t-127 386l3 74h741v11q0 137 -76 221t-199 84q-185 0 -251 -133z" />
    <glyph glyph-name="uni04D9" unicode="&#x1dd;" horiz-adv-x="1100" 
d="M542 154q114 0 188 75.5t82 200.5h-526q2 -125 72.5 -200.5t183.5 -75.5zM287 765h-206q37 141 158 223.5t300 82.5q228 0 359.5 -146t131.5 -397q0 -250 -132.5 -399t-356.5 -149q-218 0 -345 142t-127 386l3 74h741v11q0 137 -76 221t-199 84q-185 0 -251 -133z" />
    <glyph glyph-name="Adieresismacron" unicode="&#x1de;" horiz-adv-x="1336" 
d="M1073 0l-132 390h-550l-132 -390h-233l521 1443h242l521 -1443h-237zM663 1203l-215 -633h436l-215 633h-6zM483 1779q47 0 80.5 -33.5t33.5 -80.5t-33.5 -80.5t-80.5 -33.5q-48 0 -81.5 33.5t-33.5 80.5t33.5 80.5t81.5 33.5zM341 2042h654v-127h-654v127zM853 1779
q48 0 81.5 -33.5t33.5 -80.5t-33.5 -80.5t-81.5 -33.5q-47 0 -80.5 33.5t-33.5 80.5t33.5 80.5t80.5 33.5z" />
    <glyph glyph-name="adieresismacron" unicode="&#x1df;" horiz-adv-x="1061" 
d="M475 153q114 0 191.5 69.5t77.5 171.5v83l-259 -16q-97 -7 -149.5 -47.5t-52.5 -108.5q0 -69 52.5 -110.5t139.5 -41.5zM415 -18q-155 0 -252.5 88t-97.5 229q0 138 102 219.5t289 91.5l288 17v81q0 88 -56 137.5t-155 49.5q-92 0 -149.5 -41t-72.5 -113h-204
q9 146 126 238t308 92t304.5 -94t113.5 -252v-725h-207v173h-5q-45 -87 -136.5 -139t-195.5 -52zM337 1167q-50 0 -84.5 34t-34.5 83t34.5 83t84.5 34q49 0 83.5 -34t34.5 -83t-34.5 -83t-83.5 -34zM723 1167q-49 0 -83.5 34t-34.5 83t34.5 83t83.5 34q50 0 84.5 -34
t34.5 -83t-34.5 -83t-84.5 -34zM829 1671v-128h-598v128h598z" />
    </font>
</defs>
</svg>
